<?xml version="1.0" encoding="utf-8"?>
<!-- Generator: Adobe Illustrator 24.1.1, SVG Export Plug-In . SVG Version: 6.00 Build 0)  -->
<svg version="1.1" id="livetype" xmlns="http://www.w3.org/2000/svg" xmlns:xlink="http://www.w3.org/1999/xlink" x="0px" y="0px"
	 viewBox="0 0 463.7 155" style="enable-background:new 0 0 463.7 155;" xml:space="preserve">
<style type="text/css">
	.st0{fill:#FFFFFF;}
</style>
<g>
	<g>
		<g>
			<path d="M426.8,0H36.9c-1.4,0-2.8,0-4.2,0c-1.2,0-2.4,0-3.6,0c-2.6,0-5.2,0.3-7.8,0.7c-2.6,0.4-5,1.3-7.4,2.4
				c-2.3,1.2-4.4,2.7-6.3,4.6c-1.8,1.8-3.4,4-4.6,6.3c-1.2,2.3-2,4.8-2.4,7.4c-0.4,2.6-0.7,5.2-0.7,7.8c0,1.2,0,2.4-0.1,3.6v89.6
				c0,1.2,0,2.4,0.1,3.6c0,2.6,0.3,5.2,0.7,7.8c0.4,2.6,1.2,5.1,2.4,7.4c1.2,2.3,2.7,4.4,4.6,6.3c1.8,1.8,4,3.4,6.3,4.6
				c2.3,1.2,4.8,2,7.4,2.4c2.6,0.4,5.2,0.7,7.8,0.7c1.2,0,2.4,0,3.6,0c1.4,0,2.8,0,4.2,0h389.8c1.4,0,2.8,0,4.2,0c1.2,0,2.4,0,3.6,0
				c2.6,0,5.2-0.3,7.8-0.7c2.6-0.4,5.1-1.3,7.4-2.4c2.3-1.2,4.4-2.7,6.3-4.6c1.8-1.8,3.4-3.9,4.6-6.3c1.2-2.3,2-4.8,2.4-7.4
				c0.4-2.6,0.7-5.2,0.7-7.8c0-1.2,0-2.4,0-3.6c0-1.4,0-2.8,0-4.2V37c0-1.4,0-2.8,0-4.2c0-1.2,0-2.4,0-3.6c0-2.6-0.3-5.2-0.7-7.8
				c-0.4-2.6-1.2-5.1-2.4-7.4c-2.4-4.7-6.2-8.5-10.8-10.8c-2.3-1.2-4.8-2-7.4-2.4c-2.6-0.4-5.2-0.7-7.8-0.7c-1.2,0-2.4,0-3.6,0
				C429.6,0,428.2,0,426.8,0L426.8,0z"/>
			<path class="st0" d="M32.7,151.6c-1.2,0-2.3,0-3.5,0c-2.4,0-4.8-0.2-7.2-0.6c-2.2-0.4-4.4-1.1-6.4-2.1c-2-1-3.8-2.3-5.4-3.9
				c-1.6-1.6-2.9-3.4-4-5.4c-1-2-1.7-4.2-2.1-6.4c-0.4-2.4-0.6-4.8-0.6-7.3c0-0.8-0.1-3.5-0.1-3.5V32.7c0,0,0-2.7,0.1-3.5
				c0-2.4,0.2-4.9,0.6-7.3c0.4-2.2,1.1-4.4,2.1-6.4c1-2,2.3-3.8,3.9-5.4c1.6-1.6,3.4-2.9,5.4-4c2-1,4.2-1.7,6.4-2.1
				c2.4-0.4,4.8-0.6,7.3-0.6l3.5,0H431l3.5,0c2.4,0,4.8,0.2,7.2,0.6c2.3,0.4,4.4,1.1,6.5,2.1c4,2.1,7.3,5.4,9.4,9.4
				c1,2,1.7,4.2,2.1,6.4c0.4,2.4,0.6,4.9,0.7,7.3c0,1.1,0,2.3,0,3.4c0,1.5,0,2.8,0,4.2v81.1c0,1.4,0,2.8,0,4.2c0,1.3,0,2.4,0,3.6
				c0,2.4-0.3,4.8-0.7,7.2c-0.4,2.3-1.1,4.4-2.1,6.5c-1,2-2.3,3.8-3.9,5.4c-1.6,1.6-3.4,2.9-5.4,4c-2,1-4.2,1.7-6.5,2.1
				c-2.4,0.4-4.8,0.6-7.2,0.6c-1.1,0-2.3,0-3.5,0l-4.2,0L32.7,151.6z"/>
		</g>
		<g id="_Group_">
			<g id="_Group_2">
				<g id="_Group_3">
					<path id="_Path_" d="M96.9,77.1c0.1-6.8,3.7-13.2,9.5-16.7c-3.7-5.3-9.7-8.5-16.1-8.7c-6.8-0.7-13.3,4-16.8,4
						c-3.5,0-8.8-4-14.5-3.9c-7.5,0.2-14.4,4.4-18,11c-7.8,13.5-2,33.3,5.5,44.2c3.7,5.3,8.1,11.3,13.8,11.1
						c5.6-0.2,7.7-3.6,14.4-3.6c6.7,0,8.6,3.6,14.5,3.4c6-0.1,9.8-5.4,13.4-10.8c2.7-3.8,4.7-8,6.1-12.5
						C101.5,91.8,96.9,84.8,96.9,77.1z"/>
					<path id="_Path_2" d="M85.9,44.5c3.3-3.9,4.9-9,4.5-14.1c-5,0.5-9.6,2.9-12.9,6.7c-3.3,3.7-4.9,8.6-4.6,13.5
						C77.9,50.7,82.7,48.4,85.9,44.5z"/>
				</g>
			</g>
			<g>
				<path d="M163.9,105.2h-18.3l-4.4,13h-7.8l17.4-48.1h8.1l17.4,48.1h-7.9L163.9,105.2z M147.5,99.2H162l-7.2-21.1h-0.2L147.5,99.2
					z"/>
				<path d="M213.7,100.6c0,10.9-5.8,17.9-14.6,17.9c-4.6,0.2-8.8-2.1-11-6.1h-0.2v17.4h-7.2V83.1h7v5.8h0.1c2.3-4,6.6-6.4,11.2-6.2
					C207.9,82.7,213.7,89.8,213.7,100.6z M206.3,100.6c0-7.1-3.7-11.8-9.3-11.8c-5.5,0-9.2,4.8-9.2,11.8c0,7.1,3.7,11.8,9.2,11.8
					C202.7,112.4,206.3,107.8,206.3,100.6L206.3,100.6z"/>
				<path d="M252.4,100.6c0,10.9-5.8,17.9-14.6,17.9c-4.6,0.2-8.8-2.1-11-6.1h-0.2v17.4h-7.2V83.1h7v5.8h0.1c2.3-4,6.6-6.4,11.2-6.2
					C246.5,82.7,252.4,89.8,252.4,100.6z M245,100.6c0-7.1-3.7-11.8-9.3-11.8c-5.5,0-9.2,4.8-9.2,11.8c0,7.1,3.7,11.8,9.2,11.8
					C241.3,112.4,245,107.8,245,100.6z"/>
				<path d="M277.9,104.8c0.5,4.8,5.2,7.9,11.5,7.9c6.1,0,10.4-3.1,10.4-7.4c0-3.7-2.6-6-8.9-7.5l-6.2-1.5
					c-8.8-2.1-12.9-6.3-12.9-13c0-8.3,7.2-14,17.5-14c10.2,0,17.1,5.7,17.4,14h-7.3c-0.4-4.8-4.4-7.7-10.2-7.7
					c-5.8,0-9.8,2.9-9.8,7.2c0,3.4,2.5,5.4,8.7,6.9l5.3,1.3c9.9,2.3,14,6.3,14,13.3c0,9-7.2,14.6-18.6,14.6
					c-10.7,0-17.9-5.5-18.3-14.2L277.9,104.8z"/>
				<path d="M323,74.8v8.3h6.7v5.7H323v19.3c0,3,1.3,4.4,4.3,4.4c0.8,0,1.6-0.1,2.4-0.2v5.7c-1.3,0.2-2.7,0.4-4,0.3
					c-7.1,0-9.9-2.7-9.9-9.5V88.8h-5.1v-5.7h5.1v-8.3H323z"/>
				<path d="M333.5,100.6c0-11,6.5-18,16.6-18c10.2,0,16.6,6.9,16.6,18c0,11.1-6.4,18-16.6,18C339.9,118.6,333.5,111.7,333.5,100.6z
					 M359.4,100.6c0-7.6-3.5-12-9.3-12c-5.8,0-9.3,4.5-9.3,12c0,7.6,3.5,12,9.3,12C356,112.7,359.4,108.2,359.4,100.6L359.4,100.6z"
					/>
				<path d="M372.7,83.1h6.9v6h0.2c1-3.8,4.5-6.5,8.4-6.3c0.8,0,1.7,0.1,2.5,0.3v6.7c-1-0.3-2.1-0.5-3.2-0.4c-4-0.2-7.4,3-7.5,7
					c0,0.4,0,0.7,0,1.1v20.8h-7.2L372.7,83.1z"/>
				<path d="M423.9,107.9c-1,6.4-7.2,10.7-15.1,10.7c-10.2,0-16.5-6.8-16.5-17.8c0-11,6.4-18.1,16.2-18.1c9.7,0,15.8,6.7,15.8,17.3
					v2.5h-24.8v0.4c-0.4,5,3.3,9.5,8.3,9.9c0.4,0,0.8,0,1.1,0c3.5,0.3,6.8-1.7,8.1-4.9L423.9,107.9z M399.5,97.4h17.5
					c0.3-4.7-3.3-8.6-8-8.9c-0.2,0-0.4,0-0.7,0C403.5,88.5,399.5,92.4,399.5,97.4C399.5,97.3,399.5,97.4,399.5,97.4z"/>
			</g>
		</g>
	</g>
	<g id="_Group_4">
		<g>
			<path d="M146.6,33.8c5.6-0.4,10.5,3.8,10.9,9.5c0,0.7,0,1.3-0.1,2c0,7.4-4,11.6-10.9,11.6h-8.4V33.8H146.6z M141.8,53.7h4.4
				c4,0.2,7.5-2.8,7.7-6.8c0-0.5,0-1-0.1-1.5c0.5-4-2.2-7.7-6.2-8.2c-0.5-0.1-0.9-0.1-1.4-0.1h-4.4V53.7z"/>
			<path d="M177.1,52.2c-1,3.3-4.2,5.4-7.6,5c-4.4,0.1-8-3.3-8.1-7.7c0-0.4,0-0.9,0.1-1.3c-0.6-4.4,2.5-8.5,6.9-9
				c0.4-0.1,0.8-0.1,1.1-0.1c4.9,0,7.8,3.3,7.8,8.8v1.2H165v0.2c-0.2,2.5,1.7,4.8,4.2,5c0.1,0,0.3,0,0.4,0c1.7,0.2,3.3-0.6,4.2-2.1
				L177.1,52.2z M165,46.6h8.8c0.2-2.3-1.6-4.3-3.9-4.5c-0.1,0-0.3,0-0.4,0c-2.5,0-4.5,1.9-4.5,4.4C165,46.5,165,46.6,165,46.6
				L165,46.6z"/>
			<path d="M188.3,39.2c3.9,0,6.5,1.8,6.8,4.9h-3.3c-0.3-1.3-1.6-2.1-3.5-2.1c-1.9,0-3.4,0.9-3.4,2.3c0,1,0.9,1.7,2.8,2.1l2.9,0.7
				c3.3,0.8,4.9,2.2,4.9,4.8c0,3.3-3.1,5.5-7.2,5.5c-4.2,0-6.9-1.9-7.2-5h3.4c0.6,1.5,2.2,2.4,3.8,2.2c2.1,0,3.7-1,3.7-2.4
				c0-1-0.8-1.7-2.6-2.1l-3-0.7c-3.3-0.8-4.9-2.3-4.9-4.9C181.6,41.3,184.4,39.2,188.3,39.2z"/>
			<path d="M211.6,45.2c-0.5-1.9-2.2-3.1-4.1-3c-2.9,0-4.6,2.2-4.6,5.9c0,3.8,1.8,6,4.6,6c1.9,0.2,3.7-1,4.1-2.9h3.3
				c-0.5,3.7-3.8,6.3-7.5,5.9c-4.4,0.1-8.1-3.3-8.3-7.8c0-0.5,0-0.9,0.1-1.4c-0.6-4.4,2.5-8.4,6.8-8.9c0.4-0.1,0.9-0.1,1.3-0.1
				c3.7-0.3,7,2.3,7.5,6L211.6,45.2z"/>
			<path d="M218.3,52c0-3.1,2.3-5,6.5-5.2l4.7-0.3V45c0-1.8-1.2-2.9-3.6-2.9c-1.9,0-3.3,0.7-3.6,1.9H219c0.4-3,3.2-4.9,7.1-4.9
				c4.4,0,6.8,2.2,6.8,5.9V57h-3.3v-2.5h-0.3c-1.1,1.8-3.1,2.8-5.2,2.7c-2.9,0.3-5.5-1.8-5.8-4.7C218.3,52.4,218.3,52.2,218.3,52z
				 M229.6,50.5v-1.5l-4.3,0.3c-2.4,0.2-3.5,1-3.5,2.5c0,1.6,1.4,2.5,3.2,2.5c2.3,0.2,4.3-1.4,4.5-3.7
				C229.5,50.6,229.5,50.6,229.6,50.5z M224.1,36.6l4-5.5h4l-4.5,5.5H224.1z"/>
			<path d="M238.4,39.5h3.3v2.7h0.3c0.8-1.9,2.7-3.1,4.7-3c0.5,0,1,0,1.5,0.1v3.4c-0.6-0.1-1.3-0.2-1.9-0.2
				c-2.2-0.2-4.2,1.5-4.4,3.7c0,0.1,0,0.3,0,0.4V57h-3.4L238.4,39.5z"/>
			<path d="M251.4,58.7h3.5c0.3,1.3,1.7,2.1,4.1,2.1c2.9,0,4.6-1.4,4.6-3.7v-3.3h-0.3c-1.1,1.9-3.2,3-5.4,2.9
				c-4.5,0-7.2-3.4-7.2-8.7c0-5.3,2.8-8.8,7.2-8.8c2.3-0.1,4.4,1.1,5.5,3.1h0.3v-2.8h3.3v17.6c0,4-3.1,6.5-8.1,6.5
				C254.5,63.6,251.7,61.7,251.4,58.7z M263.6,48c0-3.5-1.8-5.7-4.7-5.7c-3,0-4.6,2.2-4.6,5.7c0,3.5,1.7,5.7,4.6,5.7
				C261.8,53.7,263.6,51.5,263.6,48L263.6,48z"/>
			<path d="M271.5,52c0-3.1,2.3-5,6.5-5.2l4.7-0.3V45c0-1.8-1.2-2.9-3.6-2.9c-1.9,0-3.3,0.7-3.6,1.9h-3.3c0.4-3,3.2-4.9,7.1-4.9
				c4.4,0,6.8,2.2,6.8,5.9V57h-3.3v-2.5h-0.3c-1.1,1.8-3.1,2.8-5.2,2.7c-2.9,0.3-5.5-1.8-5.8-4.7C271.5,52.4,271.5,52.2,271.5,52z
				 M282.7,50.5v-1.5l-4.3,0.3c-2.4,0.2-3.5,1-3.5,2.5c0,1.6,1.4,2.5,3.2,2.5c2.3,0.2,4.3-1.4,4.5-3.7
				C282.7,50.6,282.7,50.6,282.7,50.5z"/>
			<path d="M291.7,32.7h3.4V57h-3.4V32.7z"/>
			<path d="M299.9,48.2c-0.4-4.5,2.9-8.6,7.4-9c4.5-0.4,8.6,2.9,9,7.4c0.1,0.5,0.1,1.1,0,1.6c0.4,4.5-2.9,8.6-7.4,9s-8.6-2.9-9-7.4
				C299.8,49.3,299.8,48.8,299.9,48.2z M312.8,48.2c0-3.8-1.7-6-4.7-6c-3,0-4.7,2.2-4.7,6c0,3.8,1.7,6,4.7,6
				C311.1,54.2,312.8,52,312.8,48.2z"/>
			<path d="M345.2,52.2c-1,3.3-4.2,5.4-7.6,5c-4.4,0.1-8-3.3-8.1-7.7c0-0.4,0-0.9,0.1-1.3c-0.6-4.4,2.5-8.5,6.9-9
				c0.4-0.1,0.8-0.1,1.1-0.1c4.9,0,7.8,3.3,7.8,8.8v1.2h-12.3v0.2c-0.2,2.5,1.7,4.8,4.2,5c0.1,0,0.3,0,0.4,0
				c1.7,0.2,3.3-0.6,4.2-2.1L345.2,52.2z M333.1,46.6h8.8c0.2-2.3-1.6-4.3-3.9-4.5c-0.1,0-0.3,0-0.4,0c-2.5,0-4.5,1.9-4.5,4.4
				C333.1,46.5,333.1,46.6,333.1,46.6L333.1,46.6z"/>
			<path d="M350,39.5h3.3v2.8h0.3c0.9-2,3-3.3,5.2-3.1c3.1-0.2,5.8,2.1,6.1,5.2c0,0.4,0,0.8,0,1.3V57h-3.4V46.5
				c0-2.8-1.2-4.2-3.8-4.2c-2.2-0.1-4.1,1.6-4.2,3.8c0,0.2,0,0.4,0,0.6V57H350L350,39.5z"/>
			<path d="M394.4,52.2c-1,3.3-4.2,5.4-7.6,5c-4.4,0.1-8-3.3-8.1-7.7c0-0.4,0-0.9,0.1-1.3c-0.6-4.4,2.5-8.5,6.9-9
				c0.4-0.1,0.8-0.1,1.1-0.1c4.9,0,7.8,3.3,7.8,8.8v1.2h-12.3v0.2c-0.2,2.5,1.7,4.8,4.2,5c0.1,0,0.3,0,0.4,0
				c1.7,0.2,3.3-0.6,4.2-2.1L394.4,52.2z M382.3,46.6h8.8c0.2-2.3-1.6-4.3-3.9-4.5c-0.1,0-0.3,0-0.4,0c-2.5,0-4.5,1.9-4.5,4.4
				C382.3,46.5,382.3,46.6,382.3,46.6L382.3,46.6z"/>
			<path d="M399.4,32.7h3.4V57h-3.4V32.7z"/>
		</g>
	</g>
</g>
</svg>
