<?xml version="1.0" encoding="utf-8"?>
<!-- Generator: Adobe Illustrator 24.1.1, SVG Export Plug-In . SVG Version: 6.00 Build 0)  -->
<svg version="1.1" id="artwork" xmlns="http://www.w3.org/2000/svg" xmlns:xlink="http://www.w3.org/1999/xlink" x="0px" y="0px"
	 viewBox="0 0 155 45.9" style="enable-background:new 0 0 155 45.9;" xml:space="preserve">
<style type="text/css">
	.st0{fill:#A6A6A6;}
	.st1{fill:#FFFFFF;}
	.st2{fill:url(#SVGID_1_);}
	.st3{fill:url(#SVGID_2_);}
	.st4{fill:url(#SVGID_3_);}
	.st5{fill:url(#SVGID_4_);}
	.st6{opacity:0.2;enable-background:new    ;}
	.st7{opacity:0.12;enable-background:new    ;}
	.st8{opacity:0.25;fill:#FFFFFF;enable-background:new    ;}
	.st9{fill:#FFFFFF;stroke:#FFFFFF;stroke-width:0.2;stroke-miterlimit:10;}
</style>
<g>
	<g>
		<path d="M149.3,45.9H5.7c-3.2,0-5.7-2.6-5.7-5.7V5.7C0,2.5,2.6,0,5.7,0h143.5c3.2,0,5.7,2.6,5.7,5.7v34.4
			C155,43.3,152.5,45.9,149.3,45.9z"/>
	</g>
	<g>
		<g>
			<path class="st0" d="M149.3,0.9c2.6,0,4.8,2.2,4.8,4.8v34.4c0,2.6-2.2,4.8-4.8,4.8H5.7c-2.6,0-4.8-2.2-4.8-4.8V5.7
				c0-2.6,2.2-4.8,4.8-4.8H149.3 M149.3,0H5.7C2.5,0,0,2.6,0,5.7v34.4c0,3.2,2.6,5.7,5.7,5.7h143.5c3.2,0,5.7-2.6,5.7-5.7V5.7
				C155,2.6,152.5,0,149.3,0L149.3,0z"/>
		</g>
	</g>
	<path class="st1" d="M78.2,25c-2.8,0-4.9,2.1-4.9,4.9c0,2.8,2.2,4.9,4.9,4.9c2.8,0,4.9-2.1,4.9-4.9C83.1,27,80.9,25,78.2,25z
		 M78.2,32.8c-1.5,0-2.8-1.3-2.8-3c0-1.7,1.3-3,2.8-3c1.5,0,2.8,1.1,2.8,3C80.9,31.6,79.7,32.8,78.2,32.8z M67.5,25
		c-2.8,0-4.9,2.1-4.9,4.9c0,2.8,2.2,4.9,4.9,4.9c2.8,0,4.9-2.1,4.9-4.9C72.4,27,70.3,25,67.5,25z M67.5,32.8c-1.5,0-2.8-1.3-2.8-3
		c0-1.7,1.3-3,2.8-3c1.5,0,2.8,1.1,2.8,3C70.3,31.6,69,32.8,67.5,32.8z M54.8,26.5v2.1h4.9c-0.1,1.1-0.6,2.1-1.1,2.6
		c-0.7,0.7-1.8,1.5-3.8,1.5c-3.1,0-5.4-2.4-5.4-5.5s2.4-5.5,5.4-5.5c1.6,0,2.9,0.7,3.8,1.5l1.5-1.5c-1.3-1.1-2.9-2.1-5.2-2.1
		c-4.1,0-7.7,3.4-7.7,7.6s3.6,7.6,7.7,7.6c2.3,0,3.9-0.7,5.3-2.2c1.4-1.4,1.8-3.3,1.8-4.8c0-0.5,0-0.9-0.1-1.3
		C61.9,26.5,54.8,26.5,54.8,26.5z M106.9,28.1c-0.5-1.1-1.6-3.1-4.1-3.1c-2.5,0-4.6,2-4.6,4.9c0,2.8,2.1,4.9,4.8,4.9
		c2.2,0,3.6-1.4,4-2.2l-1.6-1.1c-0.6,0.8-1.3,1.4-2.4,1.4s-1.8-0.5-2.4-1.5l6.5-2.8L106.9,28.1z M100.2,29.7c0-1.8,1.5-2.9,2.5-2.9
		c0.8,0,1.6,0.5,1.8,1L100.2,29.7z M94.8,34.4H97V20.1h-2.2V34.4z M91.4,26.1L91.4,26.1c-0.6-0.6-1.5-1.1-2.6-1.1
		c-2.4,0-4.7,2.2-4.7,4.9c0,2.8,2.2,4.8,4.7,4.8c1.1,0,2.1-0.6,2.5-1.1h0.1v0.7c0,1.8-1,2.9-2.6,2.9c-1.3,0-2.2-0.9-2.4-1.7
		l-1.8,0.8c0.6,1.3,2,2.9,4.4,2.9c2.5,0,4.6-1.5,4.6-5.1v-8.7h-2.1C91.4,25.3,91.4,26.1,91.4,26.1z M88.9,32.8c-1.5,0-2.8-1.3-2.8-3
		c0-1.7,1.3-3,2.8-3s2.6,1.3,2.6,3C91.5,31.6,90.4,32.8,88.9,32.8z M116.9,20.1h-5.2v14.4h2.2V29h3c2.4,0,4.7-1.7,4.7-4.5
		S119.3,20.1,116.9,20.1z M117,27h-3.1V22h3.1c1.6,0,2.5,1.4,2.5,2.4C119.4,25.7,118.5,27,117,27z M130.2,24.9
		c-1.6,0-3.2,0.7-3.8,2.2l2,0.8c0.5-0.8,1.1-1,2-1c1.1,0,2.2,0.7,2.3,1.8v0.1c-0.3-0.2-1.3-0.6-2.2-0.6c-2.1,0-4.1,1.1-4.1,3.2
		c0,2,1.7,3.2,3.6,3.2c1.5,0,2.2-0.7,2.8-1.4h0.1v1.1h2.1v-5.5C134.6,26.4,132.6,24.9,130.2,24.9z M130,32.8c-0.7,0-1.7-0.3-1.7-1.3
		c0-1.1,1.3-1.5,2.3-1.5c0.9,0,1.4,0.2,2,0.5C132.3,31.9,131.1,32.8,130,32.8z M142,25.3l-2.4,6.2h-0.1l-2.5-6.2h-2.3l3.8,8.7
		l-2.2,4.8h2.2l5.9-13.5H142z M122.7,34.4h2.2V20.1h-2.2V34.4z"/>
	<g>
		
			<linearGradient id="SVGID_1_" gradientUnits="userSpaceOnUse" x1="24.9952" y1="599.9659" x2="5.7265" y2="619.2346" gradientTransform="matrix(1 0 0 1 0 -590)">
			<stop  offset="0" style="stop-color:#00A0FF"/>
			<stop  offset="6.574450e-03" style="stop-color:#00A1FF"/>
			<stop  offset="0.2601" style="stop-color:#00BEFF"/>
			<stop  offset="0.5122" style="stop-color:#00D2FF"/>
			<stop  offset="0.7604" style="stop-color:#00DFFF"/>
			<stop  offset="1" style="stop-color:#00E3FF"/>
		</linearGradient>
		<path class="st2" d="M11.9,8.6c-0.3,0.3-0.6,0.9-0.6,1.6v25.4c0,0.7,0.2,1.3,0.6,1.6l0.1,0.1l14.2-14.2V23v-0.1L11.9,8.6L11.9,8.6
			z"/>
		
			<linearGradient id="SVGID_2_" gradientUnits="userSpaceOnUse" x1="38.8469" y1="613.0204" x2="11.0653" y2="613.0204" gradientTransform="matrix(1 0 0 1 0 -590)">
			<stop  offset="0" style="stop-color:#FFE000"/>
			<stop  offset="0.4087" style="stop-color:#FFBD00"/>
			<stop  offset="0.7754" style="stop-color:#FFA500"/>
			<stop  offset="1" style="stop-color:#FF9C00"/>
		</linearGradient>
		<path class="st3" d="M31,27.9l-4.7-4.7V23v-0.1l4.7-4.7l0.1,0.1l5.6,3.2c1.6,0.9,1.6,2.4,0,3.3L31,27.9L31,27.9z"/>
		
			<linearGradient id="SVGID_3_" gradientUnits="userSpaceOnUse" x1="28.4918" y1="615.5859" x2="2.3619" y2="641.7159" gradientTransform="matrix(1 0 0 1 0 -590)">
			<stop  offset="0" style="stop-color:#FF3A44"/>
			<stop  offset="1" style="stop-color:#C31162"/>
		</linearGradient>
		<path class="st4" d="M31.1,27.8L26.3,23L11.9,37.3c0.6,0.6,1.4,0.6,2.4,0.1L31.1,27.8"/>
		
			<linearGradient id="SVGID_4_" gradientUnits="userSpaceOnUse" x1="8.3375" y1="590.2432" x2="20.0057" y2="601.9113" gradientTransform="matrix(1 0 0 1 0 -590)">
			<stop  offset="0" style="stop-color:#32A071"/>
			<stop  offset="6.850000e-02" style="stop-color:#2DA771"/>
			<stop  offset="0.4762" style="stop-color:#15CF74"/>
			<stop  offset="0.8009" style="stop-color:#06E775"/>
			<stop  offset="1" style="stop-color:#00F076"/>
		</linearGradient>
		<path class="st5" d="M31.1,18.1L14.4,8.6c-1-0.6-1.8-0.5-2.4,0.1L26.3,23L31.1,18.1z"/>
		<g>
			<path class="st6" d="M31,27.7l-16.6,9.4c-0.9,0.6-1.7,0.5-2.3,0l0,0l-0.1,0.1l0,0l0.1,0.1l0,0c0.6,0.5,1.4,0.6,2.3,0L31,27.7
				L31,27.7z"/>
			<path class="st7" d="M11.9,37.1c-0.3-0.3-0.5-0.9-0.5-1.6v0.1c0,0.7,0.2,1.3,0.6,1.6v-0.1H11.9z"/>
		</g>
		<path class="st7" d="M36.7,24.5L31,27.7l0.1,0.1l5.6-3.2c0.8-0.5,1.1-1,1.1-1.6l0,0C37.9,23.5,37.4,24,36.7,24.5z"/>
		<path class="st8" d="M14.4,8.7l22.4,12.7c0.7,0.5,1.1,0.9,1.1,1.5l0,0c0-0.6-0.3-1.1-1.1-1.6L14.4,8.6c-1.6-0.9-2.9-0.1-2.9,1.7
			v0.1C11.5,8.6,12.7,7.8,14.4,8.7z"/>
	</g>
</g>
<g>
	<path class="st9" d="M51.3,16v-6h1.8c0.9,0,1.7,0.3,2.2,0.8c0.6,0.6,0.8,1.3,0.8,2.2c0,0.9-0.3,1.6-0.8,2.2
		C54.8,15.7,54,16,53.1,16H51.3z M52.1,15.3h1.1c0.7,0,1.2-0.2,1.6-0.6c0.4-0.4,0.6-1,0.6-1.7s-0.2-1.3-0.6-1.7
		c-0.4-0.4-1-0.6-1.6-0.6h-1.1V15.3z"/>
	<path class="st9" d="M57.2,16v-6H58v6H57.2z"/>
	<path class="st9" d="M61.1,16.1c-0.4,0-0.9-0.1-1.3-0.4c-0.4-0.3-0.7-0.7-0.8-1.2l0.7-0.3c0.1,0.3,0.3,0.6,0.5,0.8
		c0.3,0.2,0.6,0.3,0.9,0.3c0.3,0,0.6-0.1,0.9-0.3c0.2-0.2,0.4-0.4,0.4-0.7c0-0.3-0.1-0.6-0.4-0.8c-0.2-0.2-0.6-0.4-1.1-0.5
		c-0.5-0.2-0.9-0.4-1.2-0.6c-0.3-0.3-0.4-0.6-0.4-1s0.2-0.8,0.5-1.1c0.3-0.3,0.8-0.5,1.3-0.5s0.9,0.1,1.2,0.4s0.5,0.5,0.6,0.8
		l-0.7,0.3c-0.1-0.2-0.2-0.4-0.4-0.5c-0.2-0.2-0.5-0.2-0.8-0.2s-0.5,0.1-0.8,0.2C60.1,11,60,11.2,60,11.5c0,0.2,0.1,0.4,0.3,0.6
		s0.5,0.3,0.9,0.4c0.3,0.1,0.5,0.2,0.7,0.3c0.2,0.1,0.4,0.2,0.6,0.4c0.2,0.1,0.4,0.3,0.5,0.6c0.1,0.2,0.2,0.5,0.2,0.8
		s-0.1,0.6-0.2,0.8c-0.1,0.2-0.3,0.4-0.5,0.5c-0.3,0-0.5,0.1-0.7,0.1C61.6,16.1,61.3,16.1,61.1,16.1z"/>
	<path class="st9" d="M65,16h-0.8v-6h2c0.5,0,0.9,0.2,1.3,0.5s0.6,0.8,0.6,1.3s-0.2,0.9-0.6,1.3c-0.4,0.3-0.8,0.5-1.3,0.5H65V16z
		 M65,12.8h1.3c0.3,0,0.6-0.1,0.8-0.3c0.2-0.2,0.3-0.5,0.3-0.7c0-0.3-0.1-0.5-0.3-0.7c-0.2-0.2-0.5-0.3-0.8-0.3H65V12.8z"/>
	<path class="st9" d="M74,15.2c-0.6,0.6-1.3,0.9-2.2,0.9c-0.9,0-1.6-0.3-2.2-0.9s-0.9-1.3-0.9-2.2s0.3-1.6,0.9-2.2s1.3-0.9,2.2-0.9
		c0.9,0,1.6,0.3,2.2,0.9s0.9,1.3,0.9,2.2C74.9,13.9,74.6,14.6,74,15.2z M70.2,14.7c0.4,0.4,1,0.7,1.6,0.7s1.2-0.2,1.6-0.7
		c0.4-0.4,0.7-1,0.7-1.7s-0.2-1.3-0.7-1.7c-0.4-0.4-1-0.7-1.6-0.7s-1.2,0.2-1.6,0.7c-0.4,0.4-0.7,1-0.7,1.7S69.7,14.3,70.2,14.7z"/>
	<path class="st9" d="M76,16v-6h0.9l2.9,4.7l0,0v-1.2V10h0.8v6h-0.8l-3.1-4.9l0,0v1.2V16H76z"/>
	<path class="st9" d="M82,16v-6h0.8v6H82z"/>
	<path class="st9" d="M84.1,16v-6h2.2c0.5,0,0.9,0.2,1.2,0.5c0.3,0.3,0.5,0.7,0.5,1.2c0,0.3-0.1,0.5-0.2,0.8
		c-0.1,0.2-0.3,0.4-0.6,0.5l0,0c0.3,0.1,0.5,0.3,0.7,0.5s0.3,0.5,0.3,0.9c0,0.5-0.2,0.9-0.5,1.2c-0.4,0.3-0.8,0.5-1.3,0.5h-2.3V16z
		 M84.9,12.6h1.4c0.3,0,0.5-0.1,0.7-0.3c0.2-0.2,0.3-0.4,0.3-0.6S87.1,11.2,87,11c-0.2-0.2-0.4-0.3-0.7-0.3h-1.4V12.6z M84.9,15.3
		h1.6c0.3,0,0.5-0.1,0.7-0.3c0.2-0.2,0.3-0.4,0.3-0.7c0-0.2-0.1-0.5-0.3-0.7c-0.2-0.2-0.4-0.3-0.7-0.3H85L84.9,15.3L84.9,15.3z"/>
	<path class="st9" d="M89.2,16v-6H90v5.3h2.6V16H89.2z"/>
	<path class="st9" d="M97.1,10.7h-2.7v1.9h2.5v0.7h-2.5v1.9h2.7V16h-3.5v-6h3.5V10.7z"/>
	<path class="st9" d="M103.8,10.7h-2.7v1.9h2.5v0.7h-2.5v1.9h2.7V16h-3.5v-6h3.5V10.7z"/>
	<path class="st9" d="M105,16v-6h0.9l2.9,4.7l0,0v-1.2V10h0.8v6h-0.8l-3.1-4.9l0,0v1.2V16H105z"/>
</g>
</svg>
