<?xml version="1.0" encoding="utf-8"?>
<!-- Generator: Adobe Illustrator 24.1.1, SVG Export Plug-In . SVG Version: 6.00 Build 0)  -->
<svg version="1.1" id="Capa_1" xmlns="http://www.w3.org/2000/svg" xmlns:xlink="http://www.w3.org/1999/xlink" x="0px" y="0px"
	 viewBox="0 0 612.6 220.6" style="enable-background:new 0 0 612.6 220.6;" xml:space="preserve">
<style type="text/css">
	.st0{fill:#3C3C3B;}
	.st1{fill:#E2A926;}
	.st2{fill:#C80965;}
	.st3{fill:#489FD8;}
</style>
<g>
	<g>
		<path class="st0" d="M229.1,95.2c-2,1.1-4.2,1.7-6.6,1.7c-2.8,0-5.1-0.9-6.8-2.7s-2.6-4.2-2.6-7.2c0-3,1-5.5,2.9-7.5
			c1.9-1.9,4.3-2.9,7.3-2.9c2.1,0,3.9,0.3,5.4,1v2.5c-1.6-1-3.5-1.5-5.6-1.5c-2.2,0-4,0.8-5.4,2.3c-1.4,1.5-2.1,3.5-2.1,5.9
			c0,2.5,0.7,4.4,2,5.8c1.3,1.4,3.1,2.1,5.3,2.1c1.5,0,2.9-0.3,4-0.9v-5.5h-4.3v-2.1h6.6V95.2z"/>
		<path class="st0" d="M244.6,90.1h-9.9c0,1.6,0.5,2.8,1.3,3.6s1.9,1.3,3.3,1.3c1.6,0,3-0.5,4.3-1.6v2.1c-1.2,0.9-2.9,1.3-4.9,1.3
			c-2,0-3.5-0.6-4.7-1.9s-1.7-3.1-1.7-5.4c0-2.2,0.6-4,1.9-5.3c1.2-1.4,2.8-2.1,4.6-2.1s3.2,0.6,4.3,1.8c1,1.2,1.5,2.8,1.5,4.9V90.1
			z M242.3,88.2c0-1.3-0.3-2.3-0.9-3c-0.6-0.7-1.5-1.1-2.6-1.1c-1.1,0-2,0.4-2.7,1.1c-0.7,0.8-1.2,1.7-1.4,3H242.3z"/>
		<path class="st0" d="M247.2,96.1v-2.4c1.2,0.9,2.6,1.4,4,1.4c2,0,3-0.7,3-2c0-0.4-0.1-0.7-0.3-1s-0.4-0.5-0.7-0.7
			c-0.3-0.2-0.6-0.4-1-0.5c-0.4-0.2-0.8-0.3-1.3-0.5c-0.6-0.2-1.2-0.5-1.6-0.7c-0.5-0.3-0.9-0.5-1.2-0.8s-0.6-0.7-0.7-1.1
			c-0.2-0.4-0.2-0.9-0.2-1.4c0-0.7,0.2-1.2,0.5-1.7s0.7-0.9,1.2-1.3s1.1-0.6,1.7-0.8c0.6-0.2,1.3-0.3,2-0.3c1.2,0,2.3,0.2,3.3,0.6
			v2.3c-1-0.7-2.2-1-3.6-1c-0.4,0-0.8,0-1.1,0.1s-0.6,0.2-0.9,0.4c-0.2,0.2-0.4,0.4-0.6,0.6c-0.1,0.2-0.2,0.5-0.2,0.8
			c0,0.4,0.1,0.7,0.2,0.9s0.3,0.5,0.6,0.7s0.6,0.4,0.9,0.5c0.4,0.2,0.8,0.3,1.2,0.5c0.6,0.2,1.2,0.5,1.7,0.7
			c0.5,0.3,0.9,0.5,1.3,0.8s0.6,0.7,0.8,1.1s0.3,0.9,0.3,1.5c0,0.7-0.2,1.3-0.5,1.8c-0.3,0.5-0.7,0.9-1.2,1.3
			c-0.5,0.3-1.1,0.6-1.8,0.8s-1.4,0.2-2.1,0.2C249.5,96.9,248.2,96.6,247.2,96.1z"/>
		<path class="st0" d="M266.4,96.4c-0.5,0.3-1.2,0.4-2.1,0.4c-2.5,0-3.7-1.4-3.7-4.1v-8.3h-2.4v-1.9h2.4v-3.4l2.2-0.7v4.1h3.5v1.9
			h-3.5v7.9c0,0.9,0.2,1.6,0.5,2c0.3,0.4,0.8,0.6,1.6,0.6c0.6,0,1.1-0.2,1.5-0.5V96.4z"/>
		<path class="st0" d="M270.5,79c-0.4,0-0.7-0.1-1-0.4s-0.4-0.6-0.4-1c0-0.4,0.1-0.8,0.4-1c0.3-0.3,0.6-0.4,1-0.4
			c0.4,0,0.8,0.1,1,0.4c0.3,0.3,0.4,0.6,0.4,1c0,0.4-0.1,0.7-0.4,1C271.3,78.9,270.9,79,270.5,79z M271.6,96.6h-2.2v-14h2.2V96.6z"
			/>
		<path class="st0" d="M282,96.9c-2.1,0-3.7-0.7-5-2c-1.2-1.3-1.9-3-1.9-5.2c0-2.4,0.6-4.2,1.9-5.5c1.3-1.3,3-2,5.2-2
			c2.1,0,3.7,0.6,4.9,1.9s1.8,3.1,1.8,5.3c0,2.2-0.6,4-1.9,5.4C285.8,96.2,284.1,96.9,282,96.9z M282.2,84.1c-1.4,0-2.6,0.5-3.4,1.5
			c-0.8,1-1.3,2.3-1.3,4.1c0,1.7,0.4,3,1.3,3.9s2,1.4,3.4,1.4c1.4,0,2.6-0.5,3.3-1.4c0.8-0.9,1.2-2.3,1.2-4c0-1.8-0.4-3.1-1.2-4
			C284.7,84.6,283.6,84.1,282.2,84.1z M285.4,75.4l-3.6,4.5h-1.7l3-4.5H285.4z"/>
		<path class="st0" d="M304.2,96.6h-2.2v-8c0-3-1.1-4.5-3.3-4.5c-1.1,0-2,0.4-2.8,1.3c-0.7,0.8-1.1,1.9-1.1,3.2v8h-2.2v-14h2.2v2.3
			h0.1c1.1-1.8,2.6-2.7,4.6-2.7c1.5,0,2.7,0.5,3.5,1.5c0.8,1,1.2,2.4,1.2,4.3V96.6z"/>
		<path class="st0" d="M328,96.6h-2.2v-2.4h-0.1c-1,1.8-2.6,2.7-4.8,2.7c-1.8,0-3.2-0.6-4.2-1.9c-1.1-1.3-1.6-3-1.6-5.1
			c0-2.3,0.6-4.2,1.8-5.6s2.7-2.1,4.7-2.1c1.9,0,3.3,0.8,4.2,2.3h0.1v-8.7h2.2V96.6z M325.8,90.2v-2.1c0-1.1-0.4-2.1-1.1-2.9
			c-0.7-0.8-1.7-1.2-2.8-1.2c-1.4,0-2.4,0.5-3.2,1.5c-0.8,1-1.2,2.4-1.2,4.2c0,1.6,0.4,2.9,1.1,3.8c0.8,0.9,1.8,1.4,3,1.4
			c1.2,0,2.3-0.5,3-1.4S325.8,91.6,325.8,90.2z"/>
		<path class="st0" d="M343.8,90.1h-9.9c0,1.6,0.5,2.8,1.3,3.6s1.9,1.3,3.3,1.3c1.6,0,3-0.5,4.3-1.6v2.1c-1.2,0.9-2.9,1.3-4.9,1.3
			c-2,0-3.5-0.6-4.7-1.9s-1.7-3.1-1.7-5.4c0-2.2,0.6-4,1.9-5.3c1.2-1.4,2.8-2.1,4.6-2.1s3.2,0.6,4.3,1.8c1,1.2,1.5,2.8,1.5,4.9V90.1
			z M341.5,88.2c0-1.3-0.3-2.3-0.9-3c-0.6-0.7-1.5-1.1-2.6-1.1c-1.1,0-2,0.4-2.7,1.1c-0.7,0.8-1.2,1.7-1.4,3H341.5z"/>
		<path class="st0" d="M368.5,95.7c-1.4,0.8-3.3,1.1-5.4,1.1c-2.8,0-5-0.9-6.7-2.7c-1.7-1.8-2.5-4.2-2.5-7.1c0-3.1,0.9-5.7,2.8-7.6
			c1.9-1.9,4.3-2.9,7.2-2.9c1.9,0,3.4,0.3,4.6,0.8v2.4c-1.4-0.8-3-1.2-4.6-1.2c-2.3,0-4.1,0.8-5.5,2.3s-2.1,3.5-2.1,6
			c0,2.4,0.7,4.3,2,5.7c1.3,1.4,3,2.1,5.1,2.1c2,0,3.7-0.4,5.1-1.3V95.7z"/>
		<path class="st0" d="M382.2,96.6H380v-2.2h-0.1c-1,1.7-2.4,2.5-4.3,2.5c-1.4,0-2.5-0.4-3.3-1.1s-1.2-1.7-1.2-2.9
			c0-2.6,1.5-4.1,4.6-4.6l4.2-0.6c0-2.4-1-3.6-2.9-3.6c-1.7,0-3.2,0.6-4.6,1.7v-2.3c1.4-0.9,3-1.3,4.8-1.3c3.3,0,4.9,1.7,4.9,5.2
			V96.6z M380,89.5l-3.4,0.5c-1,0.1-1.8,0.4-2.4,0.8s-0.8,1-0.8,2c0,0.7,0.2,1.2,0.7,1.7c0.5,0.4,1.1,0.6,1.9,0.6
			c1.1,0,2-0.4,2.8-1.2s1.1-1.8,1.1-3V89.5z"/>
		<path class="st0" d="M388.7,96.6h-2.2V75.8h2.2V96.6z"/>
		<path class="st0" d="M394.4,79c-0.4,0-0.7-0.1-1-0.4s-0.4-0.6-0.4-1c0-0.4,0.1-0.8,0.4-1c0.3-0.3,0.6-0.4,1-0.4
			c0.4,0,0.8,0.1,1,0.4c0.3,0.3,0.4,0.6,0.4,1c0,0.4-0.1,0.7-0.4,1C395.1,78.9,394.8,79,394.4,79z M395.5,96.6h-2.2v-14h2.2V96.6z"
			/>
		<path class="st0" d="M412,96.6h-2.2v-2.4h-0.1c-1,1.8-2.6,2.7-4.8,2.7c-1.8,0-3.2-0.6-4.2-1.9c-1.1-1.3-1.6-3-1.6-5.1
			c0-2.3,0.6-4.2,1.8-5.6s2.7-2.1,4.7-2.1c1.9,0,3.3,0.8,4.2,2.3h0.1v-8.7h2.2V96.6z M409.7,90.2v-2.1c0-1.1-0.4-2.1-1.1-2.9
			c-0.7-0.8-1.7-1.2-2.8-1.2c-1.4,0-2.4,0.5-3.2,1.5c-0.8,1-1.2,2.4-1.2,4.2c0,1.6,0.4,2.9,1.1,3.8c0.8,0.9,1.8,1.4,3,1.4
			c1.2,0,2.3-0.5,3-1.4S409.7,91.6,409.7,90.2z"/>
		<path class="st0" d="M426.5,96.6h-2.2v-2.2h-0.1c-1,1.7-2.4,2.5-4.3,2.5c-1.4,0-2.5-0.4-3.3-1.1s-1.2-1.7-1.2-2.9
			c0-2.6,1.5-4.1,4.6-4.6l4.2-0.6c0-2.4-1-3.6-2.9-3.6c-1.7,0-3.2,0.6-4.6,1.7v-2.3c1.4-0.9,3-1.3,4.8-1.3c3.3,0,4.9,1.7,4.9,5.2
			V96.6z M424.3,89.5l-3.4,0.5c-1,0.1-1.8,0.4-2.4,0.8s-0.8,1-0.8,2c0,0.7,0.2,1.2,0.7,1.7c0.5,0.4,1.1,0.6,1.9,0.6
			c1.1,0,2-0.4,2.8-1.2s1.1-1.8,1.1-3V89.5z"/>
		<path class="st0" d="M442.7,96.6h-2.2v-2.4h-0.1c-1,1.8-2.6,2.7-4.8,2.7c-1.8,0-3.2-0.6-4.2-1.9c-1.1-1.3-1.6-3-1.6-5.1
			c0-2.3,0.6-4.2,1.8-5.6s2.7-2.1,4.7-2.1c1.9,0,3.3,0.8,4.2,2.3h0.1v-8.7h2.2V96.6z M440.5,90.2v-2.1c0-1.1-0.4-2.1-1.1-2.9
			c-0.7-0.8-1.7-1.2-2.8-1.2c-1.4,0-2.4,0.5-3.2,1.5c-0.8,1-1.2,2.4-1.2,4.2c0,1.6,0.4,2.9,1.1,3.8c0.8,0.9,1.8,1.4,3,1.4
			c1.2,0,2.3-0.5,3-1.4S440.5,91.6,440.5,90.2z"/>
		<path class="st0" d="M213.5,122.8v-2.7c0.3,0.3,0.7,0.5,1.1,0.7s0.9,0.4,1.4,0.6s1,0.3,1.4,0.3s0.9,0.1,1.3,0.1
			c1.4,0,2.5-0.3,3.2-0.8c0.7-0.5,1-1.3,1-2.3c0-0.5-0.1-1-0.3-1.4c-0.2-0.4-0.6-0.7-1-1.1c-0.4-0.3-0.9-0.6-1.5-0.9
			c-0.6-0.3-1.2-0.6-1.8-0.9c-0.7-0.3-1.3-0.7-1.9-1.1s-1.1-0.7-1.5-1.2c-0.4-0.4-0.8-0.9-1-1.5c-0.3-0.5-0.4-1.2-0.4-1.9
			c0-0.9,0.2-1.7,0.6-2.3c0.4-0.7,0.9-1.2,1.5-1.6c0.6-0.4,1.4-0.7,2.2-1c0.8-0.2,1.6-0.3,2.5-0.3c1.9,0,3.3,0.2,4.2,0.7v2.6
			c-1.2-0.8-2.6-1.2-4.5-1.2c-0.5,0-1,0.1-1.5,0.2c-0.5,0.1-0.9,0.3-1.3,0.5c-0.4,0.2-0.7,0.5-1,0.9c-0.2,0.4-0.4,0.8-0.4,1.4
			c0,0.5,0.1,0.9,0.3,1.3c0.2,0.4,0.5,0.7,0.8,1s0.8,0.6,1.3,0.9c0.5,0.3,1.1,0.6,1.8,0.9c0.7,0.3,1.4,0.7,2,1.1s1.2,0.8,1.7,1.3
			s0.8,1,1.1,1.5c0.3,0.6,0.4,1.2,0.4,1.9c0,1-0.2,1.8-0.6,2.5s-0.9,1.2-1.5,1.6c-0.6,0.4-1.4,0.7-2.2,0.9s-1.7,0.3-2.7,0.3
			c-0.3,0-0.7,0-1.1-0.1c-0.5-0.1-0.9-0.1-1.4-0.2s-0.9-0.2-1.3-0.4C214.1,123.1,213.8,122.9,213.5,122.8z"/>
		<path class="st0" d="M240.3,117.1h-9.9c0,1.6,0.5,2.8,1.3,3.6s1.9,1.3,3.3,1.3c1.6,0,3-0.5,4.3-1.6v2.1c-1.2,0.9-2.9,1.3-4.9,1.3
			c-2,0-3.5-0.6-4.7-1.9s-1.7-3.1-1.7-5.4c0-2.2,0.6-4,1.9-5.3c1.2-1.4,2.8-2.1,4.6-2.1s3.2,0.6,4.3,1.8c1,1.2,1.5,2.8,1.5,4.9
			V117.1z M238,115.2c0-1.3-0.3-2.3-0.9-3c-0.6-0.7-1.5-1.1-2.6-1.1c-1.1,0-2,0.4-2.7,1.1c-0.7,0.8-1.2,1.7-1.4,3H238z"/>
		<path class="st0" d="M251,111.8c-0.4-0.3-1-0.5-1.7-0.5c-1,0-1.8,0.5-2.4,1.4s-1,2.1-1,3.7v7.1h-2.2v-14h2.2v2.9h0.1
			c0.3-1,0.8-1.8,1.5-2.3c0.7-0.6,1.4-0.8,2.2-0.8c0.6,0,1,0.1,1.3,0.2V111.8z"/>
		<path class="st0" d="M265.5,109.6l-5.6,14h-2.2l-5.3-14h2.5l3.6,10.2c0.3,0.7,0.4,1.4,0.5,2h0.1c0.1-0.7,0.2-1.3,0.4-1.9l3.7-10.2
			H265.5z"/>
		<path class="st0" d="M269.1,106c-0.4,0-0.7-0.1-1-0.4s-0.4-0.6-0.4-1c0-0.4,0.1-0.8,0.4-1c0.3-0.3,0.6-0.4,1-0.4
			c0.4,0,0.8,0.1,1,0.4c0.3,0.3,0.4,0.6,0.4,1c0,0.4-0.1,0.7-0.4,1C269.8,105.9,269.5,106,269.1,106z M270.2,123.6h-2.2v-14h2.2
			V123.6z"/>
		<path class="st0" d="M284.3,122.9c-1.1,0.6-2.4,1-3.8,1c-2,0-3.6-0.6-4.8-1.9s-1.8-3-1.8-5.1c0-2.3,0.7-4.2,2-5.6
			c1.3-1.4,3.1-2.1,5.3-2.1c1.2,0,2.3,0.2,3.3,0.7v2.3c-1-0.7-2.2-1.1-3.3-1.1c-1.4,0-2.6,0.5-3.5,1.5s-1.4,2.4-1.4,4
			c0,1.6,0.4,2.9,1.3,3.9c0.9,0.9,2,1.4,3.5,1.4c1.2,0,2.4-0.4,3.4-1.2V122.9z"/>
		<path class="st0" d="M288.8,106c-0.4,0-0.7-0.1-1-0.4s-0.4-0.6-0.4-1c0-0.4,0.1-0.8,0.4-1c0.3-0.3,0.6-0.4,1-0.4
			c0.4,0,0.8,0.1,1,0.4c0.3,0.3,0.4,0.6,0.4,1c0,0.4-0.1,0.7-0.4,1C289.6,105.9,289.2,106,288.8,106z M289.9,123.6h-2.2v-14h2.2
			V123.6z"/>
		<path class="st0" d="M300.3,123.9c-2.1,0-3.7-0.7-5-2c-1.2-1.3-1.9-3-1.9-5.2c0-2.4,0.6-4.2,1.9-5.5c1.3-1.3,3-2,5.2-2
			c2.1,0,3.7,0.6,4.9,1.9s1.8,3.1,1.8,5.3c0,2.2-0.6,4-1.9,5.4C304.1,123.2,302.4,123.9,300.3,123.9z M300.4,111.1
			c-1.4,0-2.6,0.5-3.4,1.5c-0.8,1-1.3,2.3-1.3,4.1c0,1.7,0.4,3,1.3,3.9s2,1.4,3.4,1.4c1.4,0,2.6-0.5,3.3-1.4c0.8-0.9,1.2-2.3,1.2-4
			c0-1.8-0.4-3.1-1.2-4C303,111.6,301.9,111.1,300.4,111.1z"/>
		<path class="st0" d="M310,123.1v-2.4c1.2,0.9,2.6,1.4,4,1.4c2,0,3-0.7,3-2c0-0.4-0.1-0.7-0.3-1s-0.4-0.5-0.7-0.7
			c-0.3-0.2-0.6-0.4-1-0.5c-0.4-0.2-0.8-0.3-1.3-0.5c-0.6-0.2-1.2-0.5-1.6-0.7c-0.5-0.3-0.9-0.5-1.2-0.8s-0.6-0.7-0.7-1.1
			c-0.2-0.4-0.2-0.9-0.2-1.4c0-0.7,0.2-1.2,0.5-1.7s0.7-0.9,1.2-1.3s1.1-0.6,1.7-0.8c0.6-0.2,1.3-0.3,2-0.3c1.2,0,2.3,0.2,3.3,0.6
			v2.3c-1-0.7-2.2-1-3.6-1c-0.4,0-0.8,0-1.1,0.1s-0.6,0.2-0.9,0.4c-0.2,0.2-0.4,0.4-0.6,0.6c-0.1,0.2-0.2,0.5-0.2,0.8
			c0,0.4,0.1,0.7,0.2,0.9s0.3,0.5,0.6,0.7s0.6,0.4,0.9,0.5c0.4,0.2,0.8,0.3,1.2,0.5c0.6,0.2,1.2,0.5,1.7,0.7
			c0.5,0.3,0.9,0.5,1.3,0.8s0.6,0.7,0.8,1.1s0.3,0.9,0.3,1.5c0,0.7-0.2,1.3-0.5,1.8c-0.3,0.5-0.7,0.9-1.2,1.3
			c-0.5,0.3-1.1,0.6-1.8,0.8s-1.4,0.2-2.1,0.2C312.3,123.9,311,123.6,310,123.1z"/>
		<path class="st0" d="M342.3,123.6h-2.2v-2.4H340c-1,1.8-2.6,2.7-4.8,2.7c-1.8,0-3.2-0.6-4.2-1.9c-1.1-1.3-1.6-3-1.6-5.1
			c0-2.3,0.6-4.2,1.8-5.6s2.7-2.1,4.7-2.1c1.9,0,3.3,0.8,4.2,2.3h0.1v-8.7h2.2V123.6z M340.1,117.2v-2.1c0-1.1-0.4-2.1-1.1-2.9
			c-0.7-0.8-1.7-1.2-2.8-1.2c-1.4,0-2.4,0.5-3.2,1.5c-0.8,1-1.2,2.4-1.2,4.2c0,1.6,0.4,2.9,1.1,3.8c0.8,0.9,1.8,1.4,3,1.4
			c1.2,0,2.3-0.5,3-1.4S340.1,118.6,340.1,117.2z"/>
		<path class="st0" d="M358.1,117.1h-9.9c0,1.6,0.5,2.8,1.3,3.6s1.9,1.3,3.3,1.3c1.6,0,3-0.5,4.3-1.6v2.1c-1.2,0.9-2.9,1.3-4.9,1.3
			c-2,0-3.5-0.6-4.7-1.9s-1.7-3.1-1.7-5.4c0-2.2,0.6-4,1.9-5.3c1.2-1.4,2.8-2.1,4.6-2.1s3.2,0.6,4.3,1.8c1,1.2,1.5,2.8,1.5,4.9
			V117.1z M355.8,115.2c0-1.3-0.3-2.3-0.9-3c-0.6-0.7-1.5-1.1-2.6-1.1c-1.1,0-2,0.4-2.7,1.1c-0.7,0.8-1.2,1.7-1.4,3H355.8z"/>
		<path class="st0" d="M381.1,106h-5.7v17.5h-2.3V106h-5.6V104h13.6V106z"/>
		<path class="st0" d="M386.5,123.6h-2.3V104h2.3V123.6z"/>
		<path class="st0" d="M213.5,149.8v-2.7c0.3,0.3,0.7,0.5,1.1,0.7s0.9,0.4,1.4,0.6s1,0.3,1.4,0.3s0.9,0.1,1.3,0.1
			c1.4,0,2.5-0.3,3.2-0.8c0.7-0.5,1-1.3,1-2.3c0-0.5-0.1-1-0.3-1.4c-0.2-0.4-0.6-0.7-1-1.1c-0.4-0.3-0.9-0.6-1.5-0.9
			c-0.6-0.3-1.2-0.6-1.8-0.9c-0.7-0.3-1.3-0.7-1.9-1.1s-1.1-0.7-1.5-1.2c-0.4-0.4-0.8-0.9-1-1.5c-0.3-0.5-0.4-1.2-0.4-1.9
			c0-0.9,0.2-1.7,0.6-2.3c0.4-0.7,0.9-1.2,1.5-1.6c0.6-0.4,1.4-0.7,2.2-1c0.8-0.2,1.6-0.3,2.5-0.3c1.9,0,3.3,0.2,4.2,0.7v2.6
			c-1.2-0.8-2.6-1.2-4.5-1.2c-0.5,0-1,0.1-1.5,0.2c-0.5,0.1-0.9,0.3-1.3,0.5c-0.4,0.2-0.7,0.5-1,0.9c-0.2,0.4-0.4,0.8-0.4,1.4
			c0,0.5,0.1,0.9,0.3,1.3c0.2,0.4,0.5,0.7,0.8,1s0.8,0.6,1.3,0.9c0.5,0.3,1.1,0.6,1.8,0.9c0.7,0.3,1.4,0.7,2,1.1s1.2,0.8,1.7,1.3
			s0.8,1,1.1,1.5c0.3,0.6,0.4,1.2,0.4,1.9c0,1-0.2,1.8-0.6,2.5s-0.9,1.2-1.5,1.6c-0.6,0.4-1.4,0.7-2.2,0.9s-1.7,0.3-2.7,0.3
			c-0.3,0-0.7,0-1.1-0.1c-0.5-0.1-0.9-0.1-1.4-0.2s-0.9-0.2-1.3-0.4C214.1,150.1,213.8,149.9,213.5,149.8z"/>
		<path class="st0" d="M240.3,144.1h-9.9c0,1.6,0.5,2.8,1.3,3.6s1.9,1.3,3.3,1.3c1.6,0,3-0.5,4.3-1.6v2.1c-1.2,0.9-2.9,1.3-4.9,1.3
			c-2,0-3.5-0.6-4.7-1.9s-1.7-3.1-1.7-5.4c0-2.2,0.6-4,1.9-5.3c1.2-1.4,2.8-2.1,4.6-2.1s3.2,0.6,4.3,1.8c1,1.2,1.5,2.8,1.5,4.9
			V144.1z M238,142.2c0-1.3-0.3-2.3-0.9-3c-0.6-0.7-1.5-1.1-2.6-1.1c-1.1,0-2,0.4-2.7,1.1c-0.7,0.8-1.2,1.7-1.4,3H238z"/>
		<path class="st0" d="M255.6,149.4c0,5.1-2.5,7.7-7.4,7.7c-1.7,0-3.2-0.3-4.5-1v-2.2c1.6,0.9,3.1,1.3,4.5,1.3
			c3.4,0,5.2-1.8,5.2-5.5v-1.5h-0.1c-1.1,1.8-2.7,2.7-4.8,2.7c-1.7,0-3.1-0.6-4.2-1.9s-1.6-2.9-1.6-5c0-2.4,0.6-4.3,1.7-5.7
			c1.1-1.4,2.7-2.1,4.7-2.1c1.9,0,3.3,0.8,4.2,2.3h0.1v-1.9h2.2V149.4z M253.4,144.2v-2.1c0-1.1-0.4-2.1-1.1-2.9s-1.7-1.2-2.8-1.2
			c-1.4,0-2.5,0.5-3.3,1.5c-0.8,1-1.2,2.4-1.2,4.2c0,1.6,0.4,2.8,1.1,3.7c0.8,0.9,1.7,1.4,3,1.4c1.3,0,2.3-0.4,3.1-1.3
			C253,146.8,253.4,145.6,253.4,144.2z"/>
		<path class="st0" d="M271.5,150.6h-2.2v-2.2h-0.1c-0.9,1.7-2.4,2.5-4.3,2.5c-3.3,0-5-2-5-6v-8.4h2.2v8c0,3,1.1,4.4,3.4,4.4
			c1.1,0,2-0.4,2.7-1.2s1.1-1.9,1.1-3.2v-8.1h2.2V150.6z"/>
		<path class="st0" d="M283.3,138.8c-0.4-0.3-1-0.5-1.7-0.5c-1,0-1.8,0.5-2.4,1.4s-1,2.1-1,3.7v7.1H276v-14h2.2v2.9h0.1
			c0.3-1,0.8-1.8,1.5-2.3c0.7-0.6,1.4-0.8,2.2-0.8c0.6,0,1,0.1,1.3,0.2V138.8z"/>
		<path class="st0" d="M286.9,133c-0.4,0-0.7-0.1-1-0.4s-0.4-0.6-0.4-1c0-0.4,0.1-0.8,0.4-1c0.3-0.3,0.6-0.4,1-0.4
			c0.4,0,0.8,0.1,1,0.4c0.3,0.3,0.4,0.6,0.4,1c0,0.4-0.1,0.7-0.4,1C287.6,132.9,287.3,133,286.9,133z M288,150.6h-2.2v-14h2.2V150.6
			z"/>
		<path class="st0" d="M304.5,150.6h-2.2v-2.4h-0.1c-1,1.8-2.6,2.7-4.8,2.7c-1.8,0-3.2-0.6-4.2-1.9c-1.1-1.3-1.6-3-1.6-5.1
			c0-2.3,0.6-4.2,1.8-5.6s2.7-2.1,4.7-2.1c1.9,0,3.3,0.8,4.2,2.3h0.1v-8.7h2.2V150.6z M302.2,144.2v-2.1c0-1.1-0.4-2.1-1.1-2.9
			c-0.7-0.8-1.7-1.2-2.8-1.2c-1.4,0-2.4,0.5-3.2,1.5c-0.8,1-1.2,2.4-1.2,4.2c0,1.6,0.4,2.9,1.1,3.8c0.8,0.9,1.8,1.4,3,1.4
			c1.2,0,2.3-0.5,3-1.4S302.2,145.6,302.2,144.2z"/>
		<path class="st0" d="M319,150.6h-2.2v-2.2h-0.1c-1,1.7-2.4,2.5-4.3,2.5c-1.4,0-2.5-0.4-3.3-1.1s-1.2-1.7-1.2-2.9
			c0-2.6,1.5-4.1,4.6-4.6l4.2-0.6c0-2.4-1-3.6-2.9-3.6c-1.7,0-3.2,0.6-4.6,1.7v-2.3c1.4-0.9,3-1.3,4.8-1.3c3.3,0,4.9,1.7,4.9,5.2
			V150.6z M316.8,143.5l-3.4,0.5c-1,0.1-1.8,0.4-2.4,0.8s-0.8,1-0.8,2c0,0.7,0.2,1.2,0.7,1.7c0.5,0.4,1.1,0.6,1.9,0.6
			c1.1,0,2-0.4,2.8-1.2s1.1-1.8,1.1-3V143.5z"/>
		<path class="st0" d="M335.2,150.6H333v-2.4h-0.1c-1,1.8-2.6,2.7-4.8,2.7c-1.8,0-3.2-0.6-4.2-1.9c-1.1-1.3-1.6-3-1.6-5.1
			c0-2.3,0.6-4.2,1.8-5.6s2.7-2.1,4.7-2.1c1.9,0,3.3,0.8,4.2,2.3h0.1v-8.7h2.2V150.6z M333,144.2v-2.1c0-1.1-0.4-2.1-1.1-2.9
			c-0.7-0.8-1.7-1.2-2.8-1.2c-1.4,0-2.4,0.5-3.2,1.5c-0.8,1-1.2,2.4-1.2,4.2c0,1.6,0.4,2.9,1.1,3.8c0.8,0.9,1.8,1.4,3,1.4
			c1.2,0,2.3-0.5,3-1.4S333,145.6,333,144.2z"/>
		<path class="st0" d="M359.4,150.6h-2.2v-2.4h-0.1c-1,1.8-2.6,2.7-4.8,2.7c-1.8,0-3.2-0.6-4.2-1.9c-1.1-1.3-1.6-3-1.6-5.1
			c0-2.3,0.6-4.2,1.8-5.6s2.7-2.1,4.7-2.1c1.9,0,3.3,0.8,4.2,2.3h0.1v-8.7h2.2V150.6z M357.1,144.2v-2.1c0-1.1-0.4-2.1-1.1-2.9
			c-0.7-0.8-1.7-1.2-2.8-1.2c-1.4,0-2.4,0.5-3.2,1.5c-0.8,1-1.2,2.4-1.2,4.2c0,1.6,0.4,2.9,1.1,3.8c0.8,0.9,1.8,1.4,3,1.4
			c1.2,0,2.3-0.5,3-1.4S357.1,145.6,357.1,144.2z"/>
		<path class="st0" d="M375.1,144.1h-9.9c0,1.6,0.5,2.8,1.3,3.6s1.9,1.3,3.3,1.3c1.6,0,3-0.5,4.3-1.6v2.1c-1.2,0.9-2.9,1.3-4.9,1.3
			c-2,0-3.5-0.6-4.7-1.9s-1.7-3.1-1.7-5.4c0-2.2,0.6-4,1.9-5.3c1.2-1.4,2.8-2.1,4.6-2.1s3.2,0.6,4.3,1.8c1,1.2,1.5,2.8,1.5,4.9
			V144.1z M372.9,142.2c0-1.3-0.3-2.3-0.9-3c-0.6-0.7-1.5-1.1-2.6-1.1c-1.1,0-2,0.4-2.7,1.1c-0.7,0.8-1.2,1.7-1.4,3H372.9z"/>
		<path class="st0" d="M388.5,150.6h-2.2v-20.7h2.2V150.6z"/>
		<path class="st0" d="M403,150.6h-2.2v-2.2h-0.1c-1,1.7-2.4,2.5-4.3,2.5c-1.4,0-2.5-0.4-3.3-1.1s-1.2-1.7-1.2-2.9
			c0-2.6,1.5-4.1,4.6-4.6l4.2-0.6c0-2.4-1-3.6-2.9-3.6c-1.7,0-3.2,0.6-4.6,1.7v-2.3c1.4-0.9,3-1.3,4.8-1.3c3.3,0,4.9,1.7,4.9,5.2
			V150.6z M400.8,143.5l-3.4,0.5c-1,0.1-1.8,0.4-2.4,0.8s-0.8,1-0.8,2c0,0.7,0.2,1.2,0.7,1.7c0.5,0.4,1.1,0.6,1.9,0.6
			c1.1,0,2-0.4,2.8-1.2s1.1-1.8,1.1-3V143.5z"/>
		<path class="st0" d="M417.5,150.6h-2.3V131h2.3V150.6z"/>
		<path class="st0" d="M434,150.6h-2.2v-8c0-3-1.1-4.5-3.3-4.5c-1.1,0-2,0.4-2.8,1.3c-0.7,0.8-1.1,1.9-1.1,3.2v8h-2.2v-14h2.2v2.3
			h0.1c1.1-1.8,2.6-2.7,4.6-2.7c1.5,0,2.7,0.5,3.5,1.5c0.8,1,1.2,2.4,1.2,4.3V150.6z"/>
		<path class="st0" d="M445.1,131.8c-0.4-0.2-0.9-0.4-1.5-0.4c-1.6,0-2.4,1-2.4,3v2.2h3.3v1.9h-3.3v12.1h-2.2v-12.1h-2.4v-1.9h2.4
			v-2.3c0-1.5,0.4-2.6,1.3-3.5c0.8-0.9,1.9-1.3,3.2-1.3c0.7,0,1.2,0.1,1.6,0.2V131.8z"/>
		<path class="st0" d="M452.8,150.9c-2.1,0-3.7-0.7-5-2c-1.2-1.3-1.9-3-1.9-5.2c0-2.4,0.6-4.2,1.9-5.5c1.3-1.3,3-2,5.2-2
			c2.1,0,3.7,0.6,4.9,1.9s1.8,3.1,1.8,5.3c0,2.2-0.6,4-1.9,5.4C456.6,150.2,454.9,150.9,452.8,150.9z M453,138.1
			c-1.4,0-2.6,0.5-3.4,1.5c-0.8,1-1.3,2.3-1.3,4.1c0,1.7,0.4,3,1.3,3.9s2,1.4,3.4,1.4c1.4,0,2.6-0.5,3.3-1.4c0.8-0.9,1.2-2.3,1.2-4
			c0-1.8-0.4-3.1-1.2-4C455.5,138.6,454.4,138.1,453,138.1z"/>
		<path class="st0" d="M470.7,138.8c-0.4-0.3-1-0.5-1.7-0.5c-1,0-1.8,0.5-2.4,1.4s-1,2.1-1,3.7v7.1h-2.2v-14h2.2v2.9h0.1
			c0.3-1,0.8-1.8,1.5-2.3c0.7-0.6,1.4-0.8,2.2-0.8c0.6,0,1,0.1,1.3,0.2V138.8z"/>
		<path class="st0" d="M492.9,150.6h-2.2v-8c0-1.5-0.2-2.7-0.7-3.4c-0.5-0.7-1.3-1-2.4-1c-1,0-1.8,0.4-2.4,1.3s-1,1.9-1,3.1v8h-2.2
			v-8.3c0-2.8-1.1-4.1-3.2-4.1c-1,0-1.8,0.4-2.4,1.2c-0.6,0.8-1,1.9-1,3.2v8h-2.2v-14h2.2v2.2h0.1c1-1.7,2.4-2.5,4.3-2.5
			c1,0,1.8,0.3,2.5,0.8s1.2,1.2,1.5,2.1c1-1.9,2.6-2.9,4.6-2.9c3.1,0,4.6,1.9,4.6,5.7V150.6z"/>
		<path class="st0" d="M507.2,150.6h-2.2v-2.2h-0.1c-1,1.7-2.4,2.5-4.3,2.5c-1.4,0-2.5-0.4-3.3-1.1s-1.2-1.7-1.2-2.9
			c0-2.6,1.5-4.1,4.6-4.6l4.2-0.6c0-2.4-1-3.6-2.9-3.6c-1.7,0-3.2,0.6-4.6,1.7v-2.3c1.4-0.9,3-1.3,4.8-1.3c3.3,0,4.9,1.7,4.9,5.2
			V150.6z M504.9,143.5l-3.4,0.5c-1,0.1-1.8,0.4-2.4,0.8s-0.8,1-0.8,2c0,0.7,0.2,1.2,0.7,1.7c0.5,0.4,1.1,0.6,1.9,0.6
			c1.1,0,2-0.4,2.8-1.2s1.1-1.8,1.1-3V143.5z"/>
		<path class="st0" d="M521,149.9c-1.1,0.6-2.4,1-3.8,1c-2,0-3.6-0.6-4.8-1.9s-1.8-3-1.8-5.1c0-2.3,0.7-4.2,2-5.6
			c1.3-1.4,3.1-2.1,5.3-2.1c1.2,0,2.3,0.2,3.3,0.7v2.3c-1-0.7-2.2-1.1-3.3-1.1c-1.4,0-2.6,0.5-3.5,1.5s-1.4,2.4-1.4,4
			c0,1.6,0.4,2.9,1.3,3.9c0.9,0.9,2,1.4,3.5,1.4c1.2,0,2.4-0.4,3.4-1.2V149.9z"/>
		<path class="st0" d="M525.5,133c-0.4,0-0.7-0.1-1-0.4s-0.4-0.6-0.4-1c0-0.4,0.1-0.8,0.4-1c0.3-0.3,0.6-0.4,1-0.4
			c0.4,0,0.8,0.1,1,0.4c0.3,0.3,0.4,0.6,0.4,1c0,0.4-0.1,0.7-0.4,1C526.3,132.9,525.9,133,525.5,133z M526.6,150.6h-2.2v-14h2.2
			V150.6z"/>
		<path class="st0" d="M537,150.9c-2.1,0-3.7-0.7-5-2c-1.2-1.3-1.9-3-1.9-5.2c0-2.4,0.6-4.2,1.9-5.5c1.3-1.3,3-2,5.2-2
			c2.1,0,3.7,0.6,4.9,1.9s1.8,3.1,1.8,5.3c0,2.2-0.6,4-1.9,5.4C540.8,150.2,539.1,150.9,537,150.9z M537.1,138.1
			c-1.4,0-2.6,0.5-3.4,1.5c-0.8,1-1.3,2.3-1.3,4.1c0,1.7,0.4,3,1.3,3.9s2,1.4,3.4,1.4c1.4,0,2.6-0.5,3.3-1.4c0.8-0.9,1.2-2.3,1.2-4
			c0-1.8-0.4-3.1-1.2-4C539.7,138.6,538.6,138.1,537.1,138.1z M540.4,129.4l-3.6,4.5h-1.7l3-4.5H540.4z"/>
		<path class="st0" d="M559.2,150.6h-2.2v-8c0-3-1.1-4.5-3.3-4.5c-1.1,0-2,0.4-2.8,1.3c-0.7,0.8-1.1,1.9-1.1,3.2v8h-2.2v-14h2.2v2.3
			h0.1c1.1-1.8,2.6-2.7,4.6-2.7c1.5,0,2.7,0.5,3.5,1.5c0.8,1,1.2,2.4,1.2,4.3V150.6z"/>
		<path class="st0" d="M229.1,176.2c-2,1.1-4.2,1.7-6.6,1.7c-2.8,0-5.1-0.9-6.8-2.7s-2.6-4.2-2.6-7.2c0-3,1-5.5,2.9-7.5
			c1.9-1.9,4.3-2.9,7.3-2.9c2.1,0,3.9,0.3,5.4,1v2.5c-1.6-1-3.5-1.5-5.6-1.5c-2.2,0-4,0.8-5.4,2.3c-1.4,1.5-2.1,3.5-2.1,5.9
			c0,2.5,0.7,4.4,2,5.8c1.3,1.4,3.1,2.1,5.3,2.1c1.5,0,2.9-0.3,4-0.9v-5.5h-4.3v-2.1h6.6V176.2z"/>
		<path class="st0" d="M244.6,171.1h-9.9c0,1.6,0.5,2.8,1.3,3.6s1.9,1.3,3.3,1.3c1.6,0,3-0.5,4.3-1.6v2.1c-1.2,0.9-2.9,1.3-4.9,1.3
			c-2,0-3.5-0.6-4.7-1.9s-1.7-3.1-1.7-5.4c0-2.2,0.6-4,1.9-5.3c1.2-1.4,2.8-2.1,4.6-2.1s3.2,0.6,4.3,1.8c1,1.2,1.5,2.8,1.5,4.9
			V171.1z M242.3,169.2c0-1.3-0.3-2.3-0.9-3c-0.6-0.7-1.5-1.1-2.6-1.1c-1.1,0-2,0.4-2.7,1.1c-0.7,0.8-1.2,1.7-1.4,3H242.3z"/>
		<path class="st0" d="M247.2,177.1v-2.4c1.2,0.9,2.6,1.4,4,1.4c2,0,3-0.7,3-2c0-0.4-0.1-0.7-0.3-1s-0.4-0.5-0.7-0.7
			c-0.3-0.2-0.6-0.4-1-0.5c-0.4-0.2-0.8-0.3-1.3-0.5c-0.6-0.2-1.2-0.5-1.6-0.7c-0.5-0.3-0.9-0.5-1.2-0.8s-0.6-0.7-0.7-1.1
			c-0.2-0.4-0.2-0.9-0.2-1.4c0-0.7,0.2-1.2,0.5-1.7s0.7-0.9,1.2-1.3s1.1-0.6,1.7-0.8c0.6-0.2,1.3-0.3,2-0.3c1.2,0,2.3,0.2,3.3,0.6
			v2.3c-1-0.7-2.2-1-3.6-1c-0.4,0-0.8,0-1.1,0.1s-0.6,0.2-0.9,0.4c-0.2,0.2-0.4,0.4-0.6,0.6c-0.1,0.2-0.2,0.5-0.2,0.8
			c0,0.4,0.1,0.7,0.2,0.9s0.3,0.5,0.6,0.7s0.6,0.4,0.9,0.5c0.4,0.2,0.8,0.3,1.2,0.5c0.6,0.2,1.2,0.5,1.7,0.7
			c0.5,0.3,0.9,0.5,1.3,0.8s0.6,0.7,0.8,1.1s0.3,0.9,0.3,1.5c0,0.7-0.2,1.3-0.5,1.8c-0.3,0.5-0.7,0.9-1.2,1.3
			c-0.5,0.3-1.1,0.6-1.8,0.8s-1.4,0.2-2.1,0.2C249.5,177.9,248.2,177.6,247.2,177.1z"/>
		<path class="st0" d="M266.4,177.4c-0.5,0.3-1.2,0.4-2.1,0.4c-2.5,0-3.7-1.4-3.7-4.1v-8.3h-2.4v-1.9h2.4v-3.4l2.2-0.7v4.1h3.5v1.9
			h-3.5v7.9c0,0.9,0.2,1.6,0.5,2c0.3,0.4,0.8,0.6,1.6,0.6c0.6,0,1.1-0.2,1.5-0.5V177.4z"/>
		<path class="st0" d="M270.5,160c-0.4,0-0.7-0.1-1-0.4s-0.4-0.6-0.4-1c0-0.4,0.1-0.8,0.4-1c0.3-0.3,0.6-0.4,1-0.4
			c0.4,0,0.8,0.1,1,0.4c0.3,0.3,0.4,0.6,0.4,1c0,0.4-0.1,0.7-0.4,1C271.3,159.9,270.9,160,270.5,160z M271.6,177.6h-2.2v-14h2.2
			V177.6z"/>
		<path class="st0" d="M282,177.9c-2.1,0-3.7-0.7-5-2c-1.2-1.3-1.9-3-1.9-5.2c0-2.4,0.6-4.2,1.9-5.5c1.3-1.3,3-2,5.2-2
			c2.1,0,3.7,0.6,4.9,1.9s1.8,3.1,1.8,5.3c0,2.2-0.6,4-1.9,5.4C285.8,177.2,284.1,177.9,282,177.9z M282.2,165.1
			c-1.4,0-2.6,0.5-3.4,1.5c-0.8,1-1.3,2.3-1.3,4.1c0,1.7,0.4,3,1.3,3.9s2,1.4,3.4,1.4c1.4,0,2.6-0.5,3.3-1.4c0.8-0.9,1.2-2.3,1.2-4
			c0-1.8-0.4-3.1-1.2-4C284.7,165.6,283.6,165.1,282.2,165.1z M285.4,156.4l-3.6,4.5h-1.7l3-4.5H285.4z"/>
		<path class="st0" d="M304.2,177.6h-2.2v-8c0-3-1.1-4.5-3.3-4.5c-1.1,0-2,0.4-2.8,1.3c-0.7,0.8-1.1,1.9-1.1,3.2v8h-2.2v-14h2.2v2.3
			h0.1c1.1-1.8,2.6-2.7,4.6-2.7c1.5,0,2.7,0.5,3.5,1.5c0.8,1,1.2,2.4,1.2,4.3V177.6z"/>
		<path class="st0" d="M331.5,177.6H329l-2.1-5.5h-8.3l-2,5.5h-2.6l7.5-19.6h2.4L331.5,177.6z M326.2,170l-3.1-8.4
			c-0.1-0.3-0.2-0.7-0.3-1.3h-0.1c-0.1,0.6-0.2,1-0.3,1.3l-3,8.4H326.2z"/>
		<path class="st0" d="M345.8,177.6h-2.2v-8c0-3-1.1-4.5-3.3-4.5c-1.1,0-2,0.4-2.8,1.3c-0.7,0.8-1.1,1.9-1.1,3.2v8h-2.2v-14h2.2v2.3
			h0.1c1.1-1.8,2.6-2.7,4.6-2.7c1.5,0,2.7,0.5,3.5,1.5c0.8,1,1.2,2.4,1.2,4.3V177.6z"/>
		<path class="st0" d="M356.5,177.4c-0.5,0.3-1.2,0.4-2.1,0.4c-2.5,0-3.7-1.4-3.7-4.1v-8.3h-2.4v-1.9h2.4v-3.4l2.2-0.7v4.1h3.5v1.9
			h-3.5v7.9c0,0.9,0.2,1.6,0.5,2c0.3,0.4,0.8,0.6,1.6,0.6c0.6,0,1.1-0.2,1.5-0.5V177.4z"/>
		<path class="st0" d="M360.6,160c-0.4,0-0.7-0.1-1-0.4s-0.4-0.6-0.4-1c0-0.4,0.1-0.8,0.4-1c0.3-0.3,0.6-0.4,1-0.4
			c0.4,0,0.8,0.1,1,0.4c0.3,0.3,0.4,0.6,0.4,1c0,0.4-0.1,0.7-0.4,1C361.4,159.9,361,160,360.6,160z M361.7,177.6h-2.2v-14h2.2V177.6
			z"/>
		<path class="st0" d="M365.4,177.1v-2.4c1.2,0.9,2.6,1.4,4,1.4c2,0,3-0.7,3-2c0-0.4-0.1-0.7-0.3-1s-0.4-0.5-0.7-0.7
			c-0.3-0.2-0.6-0.4-1-0.5c-0.4-0.2-0.8-0.3-1.3-0.5c-0.6-0.2-1.2-0.5-1.6-0.7c-0.5-0.3-0.9-0.5-1.2-0.8s-0.6-0.7-0.7-1.1
			c-0.2-0.4-0.2-0.9-0.2-1.4c0-0.7,0.2-1.2,0.5-1.7s0.7-0.9,1.2-1.3s1.1-0.6,1.7-0.8c0.6-0.2,1.3-0.3,2-0.3c1.2,0,2.3,0.2,3.3,0.6
			v2.3c-1-0.7-2.2-1-3.6-1c-0.4,0-0.8,0-1.1,0.1s-0.6,0.2-0.9,0.4c-0.2,0.2-0.4,0.4-0.6,0.6c-0.1,0.2-0.2,0.5-0.2,0.8
			c0,0.4,0.1,0.7,0.2,0.9s0.3,0.5,0.6,0.7s0.6,0.4,0.9,0.5c0.4,0.2,0.8,0.3,1.2,0.5c0.6,0.2,1.2,0.5,1.7,0.7
			c0.5,0.3,0.9,0.5,1.3,0.8s0.6,0.7,0.8,1.1s0.3,0.9,0.3,1.5c0,0.7-0.2,1.3-0.5,1.8c-0.3,0.5-0.7,0.9-1.2,1.3
			c-0.5,0.3-1.1,0.6-1.8,0.8s-1.4,0.2-2.1,0.2C367.7,177.9,366.5,177.6,365.4,177.1z"/>
		<path class="st0" d="M384,177.9c-2.1,0-3.7-0.7-5-2c-1.2-1.3-1.9-3-1.9-5.2c0-2.4,0.6-4.2,1.9-5.5c1.3-1.3,3-2,5.2-2
			c2.1,0,3.7,0.6,4.9,1.9s1.8,3.1,1.8,5.3c0,2.2-0.6,4-1.9,5.4C387.8,177.2,386.1,177.9,384,177.9z M384.1,165.1
			c-1.4,0-2.6,0.5-3.4,1.5c-0.8,1-1.3,2.3-1.3,4.1c0,1.7,0.4,3,1.3,3.9s2,1.4,3.4,1.4c1.4,0,2.6-0.5,3.3-1.4c0.8-0.9,1.2-2.3,1.2-4
			c0-1.8-0.4-3.1-1.2-4C386.7,165.6,385.6,165.1,384.1,165.1z"/>
		<path class="st0" d="M396.8,175.5L396.8,175.5l-0.1,2h-2.2v-20.7h2.2v9.2h0.1c1.1-1.9,2.7-2.8,4.8-2.8c1.8,0,3.2,0.6,4.2,1.9
			c1,1.3,1.5,2.9,1.5,5c0,2.3-0.6,4.2-1.7,5.6s-2.7,2.1-4.7,2.1C399.2,177.9,397.8,177.1,396.8,175.5z M396.8,169.9v2
			c0,1.2,0.4,2.1,1.1,2.9s1.7,1.2,2.9,1.2c1.4,0,2.4-0.5,3.2-1.6s1.2-2.5,1.2-4.3c0-1.6-0.4-2.8-1.1-3.7c-0.7-0.9-1.7-1.3-2.9-1.3
			c-1.3,0-2.4,0.5-3.1,1.4C397.2,167.4,396.8,168.5,396.8,169.9z"/>
		<path class="st0" d="M416.8,177.9c-2.1,0-3.7-0.7-5-2c-1.2-1.3-1.9-3-1.9-5.2c0-2.4,0.6-4.2,1.9-5.5c1.3-1.3,3-2,5.2-2
			c2.1,0,3.7,0.6,4.9,1.9s1.8,3.1,1.8,5.3c0,2.2-0.6,4-1.9,5.4C420.7,177.2,419,177.9,416.8,177.9z M417,165.1
			c-1.4,0-2.6,0.5-3.4,1.5c-0.8,1-1.3,2.3-1.3,4.1c0,1.7,0.4,3,1.3,3.9s2,1.4,3.4,1.4c1.4,0,2.6-0.5,3.3-1.4c0.8-0.9,1.2-2.3,1.2-4
			c0-1.8-0.4-3.1-1.2-4C419.6,165.6,418.5,165.1,417,165.1z"/>
		<path class="st0" d="M434.7,165.8c-0.4-0.3-1-0.5-1.7-0.5c-1,0-1.8,0.5-2.4,1.4s-1,2.1-1,3.7v7.1h-2.2v-14h2.2v2.9h0.1
			c0.3-1,0.8-1.8,1.5-2.3c0.7-0.6,1.4-0.8,2.2-0.8c0.6,0,1,0.1,1.3,0.2V165.8z"/>
		<path class="st0" d="M448.7,177.6h-2.2v-8c0-3-1.1-4.5-3.3-4.5c-1.1,0-2,0.4-2.8,1.3c-0.7,0.8-1.1,1.9-1.1,3.2v8h-2.2v-14h2.2v2.3
			h0.1c1.1-1.8,2.6-2.7,4.6-2.7c1.5,0,2.7,0.5,3.5,1.5c0.8,1,1.2,2.4,1.2,4.3V177.6z"/>
		<path class="st0" d="M458.8,177.9c-2.1,0-3.7-0.7-5-2c-1.2-1.3-1.9-3-1.9-5.2c0-2.4,0.6-4.2,1.9-5.5c1.3-1.3,3-2,5.2-2
			c2.1,0,3.7,0.6,4.9,1.9s1.8,3.1,1.8,5.3c0,2.2-0.6,4-1.9,5.4C462.6,177.2,460.9,177.9,458.8,177.9z M458.9,165.1
			c-1.4,0-2.6,0.5-3.4,1.5c-0.8,1-1.3,2.3-1.3,4.1c0,1.7,0.4,3,1.3,3.9s2,1.4,3.4,1.4c1.4,0,2.6-0.5,3.3-1.4c0.8-0.9,1.2-2.3,1.2-4
			c0-1.8-0.4-3.1-1.2-4C461.5,165.6,460.4,165.1,458.9,165.1z"/>
	</g>
	<g>
		<path class="st0" d="M211.2,65.4V61c0.8,0.7,1.7,1.2,2.6,1.5c0.9,0.3,1.9,0.5,2.8,0.5c0.6,0,1,0,1.5-0.2c0.4-0.1,0.8-0.2,1-0.4
			s0.5-0.4,0.6-0.6c0.1-0.2,0.2-0.5,0.2-0.8c0-0.4-0.1-0.7-0.3-1s-0.5-0.6-0.9-0.8c-0.4-0.3-0.8-0.5-1.3-0.7
			c-0.5-0.2-1.1-0.5-1.7-0.7c-1.5-0.6-2.7-1.4-3.4-2.3c-0.8-0.9-1.1-2-1.1-3.3c0-1,0.2-1.9,0.6-2.6c0.4-0.7,1-1.3,1.7-1.8
			c0.7-0.5,1.5-0.8,2.5-1c0.9-0.2,1.9-0.3,3-0.3c1,0,1.9,0.1,2.7,0.2s1.5,0.3,2.2,0.6v4.1c-0.3-0.2-0.7-0.4-1.1-0.6
			c-0.4-0.2-0.8-0.3-1.2-0.4c-0.4-0.1-0.8-0.2-1.2-0.3s-0.8-0.1-1.2-0.1c-0.5,0-1,0-1.4,0.1s-0.8,0.2-1,0.4
			c-0.3,0.2-0.5,0.4-0.7,0.6c-0.2,0.2-0.2,0.5-0.2,0.8c0,0.3,0.1,0.6,0.3,0.9s0.4,0.5,0.7,0.7s0.7,0.5,1.2,0.7
			c0.5,0.2,1,0.5,1.5,0.7c0.8,0.3,1.5,0.7,2.1,1s1.2,0.8,1.6,1.3s0.8,1,1,1.6c0.2,0.6,0.4,1.3,0.4,2.1c0,1.1-0.2,2-0.6,2.8
			c-0.4,0.7-1,1.3-1.7,1.8c-0.7,0.5-1.5,0.8-2.5,1s-1.9,0.3-3,0.3c-1.1,0-2.1-0.1-3.1-0.3S211.9,65.8,211.2,65.4z"/>
		<path class="st0" d="M229.5,50c-0.7,0-1.3-0.2-1.8-0.6c-0.5-0.4-0.7-1-0.7-1.6c0-0.6,0.2-1.2,0.7-1.6s1.1-0.6,1.8-0.6
			c0.7,0,1.3,0.2,1.8,0.6s0.7,0.9,0.7,1.6c0,0.7-0.2,1.2-0.7,1.6C230.9,49.7,230.3,50,229.5,50z M231.6,66.2h-4.3v-14h4.3V66.2z"/>
		<path class="st0" d="M234.4,65.8v-3.5c0.7,0.4,1.4,0.7,2.1,1c0.7,0.2,1.4,0.3,2,0.3c0.8,0,1.4-0.1,1.8-0.3c0.4-0.2,0.7-0.5,0.7-1
			c0-0.3-0.1-0.5-0.3-0.7c-0.2-0.2-0.5-0.3-0.8-0.5s-0.7-0.3-1-0.4s-0.7-0.2-1.1-0.4c-0.6-0.2-1-0.4-1.5-0.7
			c-0.4-0.2-0.8-0.5-1.1-0.8c-0.3-0.3-0.5-0.7-0.7-1.1c-0.2-0.4-0.2-0.9-0.2-1.5c0-0.8,0.2-1.5,0.5-2c0.3-0.6,0.8-1,1.4-1.4
			c0.6-0.4,1.2-0.6,2-0.8c0.7-0.2,1.5-0.3,2.3-0.3c0.6,0,1.2,0,1.9,0.1s1.3,0.2,1.9,0.4v3.3c-0.5-0.3-1.1-0.6-1.8-0.7
			c-0.6-0.2-1.2-0.2-1.8-0.2c-0.3,0-0.5,0-0.8,0.1c-0.3,0.1-0.5,0.1-0.7,0.2s-0.3,0.2-0.5,0.4s-0.2,0.3-0.2,0.5
			c0,0.3,0.1,0.5,0.2,0.7c0.2,0.2,0.4,0.3,0.6,0.5c0.3,0.1,0.6,0.3,0.9,0.4c0.3,0.1,0.6,0.2,1,0.3c0.6,0.2,1.1,0.4,1.6,0.7
			c0.5,0.2,0.9,0.5,1.2,0.8c0.3,0.3,0.6,0.7,0.8,1.1c0.2,0.4,0.3,0.9,0.3,1.5c0,0.8-0.2,1.5-0.5,2.1s-0.8,1.1-1.4,1.4
			s-1.3,0.6-2.1,0.8s-1.6,0.3-2.4,0.3C237.1,66.5,235.7,66.3,234.4,65.8z"/>
		<path class="st0" d="M256.1,66c-0.6,0.3-1.6,0.5-2.9,0.5c-3,0-4.6-1.6-4.6-4.7v-6.4h-2.3v-3.2h2.3v-3l4.3-1.2v4.3h3.1v3.2h-3.1V61
			c0,1.5,0.6,2.2,1.7,2.2c0.5,0,0.9-0.1,1.4-0.4V66z"/>
		<path class="st0" d="M271,60.4h-9.1c0.1,2,1.4,3,3.8,3c1.5,0,2.9-0.4,4.1-1.1v3.1c-1.3,0.7-3,1-5,1c-2.3,0-4-0.6-5.3-1.9
			c-1.2-1.3-1.9-3-1.9-5.2c0-2.3,0.7-4.2,2-5.5c1.3-1.4,3-2,5-2c2,0,3.6,0.6,4.7,1.8c1.1,1.2,1.7,2.9,1.7,4.9V60.4z M267,57.7
			c0-2-0.8-3-2.4-3c-0.7,0-1.3,0.3-1.8,0.9s-0.8,1.3-0.9,2.1H267z"/>
		<path class="st0" d="M295.8,66.2h-4.3v-8c0-2-0.7-3-2.2-3c-0.7,0-1.3,0.3-1.7,0.9c-0.4,0.6-0.7,1.4-0.7,2.3v7.8h-4.3v-8.1
			c0-2-0.7-3-2.2-3c-0.7,0-1.3,0.3-1.8,0.9c-0.4,0.6-0.7,1.4-0.7,2.4v7.8h-4.3v-14h4.3v2.2h0.1c0.4-0.7,1.1-1.4,1.9-1.8
			c0.8-0.5,1.7-0.7,2.6-0.7c2,0,3.3,0.9,4.1,2.6c1.1-1.7,2.6-2.6,4.7-2.6c3,0,4.6,1.9,4.6,5.6V66.2z"/>
		<path class="st0" d="M310.8,66.2h-4.1v-2h-0.1c-0.9,1.6-2.3,2.4-4.2,2.4c-1.4,0-2.4-0.4-3.2-1.2c-0.8-0.8-1.2-1.8-1.2-3.1
			c0-2.7,1.6-4.3,4.8-4.7l3.8-0.5c0-1.5-0.8-2.3-2.5-2.3c-1.7,0-3.3,0.5-4.8,1.5V53c0.6-0.3,1.4-0.6,2.5-0.8c1-0.2,2-0.4,2.9-0.4
			c4,0,6,2,6,6V66.2z M306.8,60.5v-0.9l-2.5,0.3c-1.4,0.2-2.1,0.8-2.1,1.9c0,0.5,0.2,0.9,0.5,1.2s0.8,0.5,1.4,0.5
			c0.8,0,1.5-0.3,2-0.8S306.8,61.3,306.8,60.5z"/>
		<path class="st0" d="M326.8,66.2h-4.4V46.6h4.4V66.2z"/>
		<path class="st0" d="M344.3,66.2H340v-7.8c0-2.2-0.8-3.3-2.3-3.3c-0.7,0-1.4,0.3-1.8,0.9s-0.7,1.3-0.7,2.2v8h-4.3v-14h4.3v2.2h0.1
			c1-1.7,2.5-2.6,4.5-2.6c3.1,0,4.6,1.9,4.6,5.8V66.2z"/>
		<path class="st0" d="M356.2,66c-0.6,0.3-1.6,0.5-2.9,0.5c-3,0-4.6-1.6-4.6-4.7v-6.4h-2.3v-3.2h2.3v-3l4.3-1.2v4.3h3.1v3.2h-3.1V61
			c0,1.5,0.6,2.2,1.7,2.2c0.5,0,0.9-0.1,1.4-0.4V66z"/>
		<path class="st0" d="M371.1,60.4H362c0.1,2,1.4,3,3.8,3c1.5,0,2.9-0.4,4.1-1.1v3.1c-1.3,0.7-3,1-5,1c-2.3,0-4-0.6-5.3-1.9
			c-1.2-1.3-1.9-3-1.9-5.2c0-2.3,0.7-4.2,2-5.5c1.3-1.4,3-2,5-2c2,0,3.6,0.6,4.7,1.8c1.1,1.2,1.7,2.9,1.7,4.9V60.4z M367.1,57.7
			c0-2-0.8-3-2.4-3c-0.7,0-1.3,0.3-1.8,0.9s-0.8,1.3-0.9,2.1H367.1z"/>
		<path class="st0" d="M387.4,64.6c0,2.6-0.8,4.6-2.3,6c-1.5,1.4-3.7,2.1-6.5,2.1c-1.9,0-3.4-0.3-4.5-0.8v-3.6
			c1.4,0.8,2.9,1.3,4.4,1.3c1.5,0,2.6-0.4,3.4-1.2c0.8-0.8,1.2-1.8,1.2-3.1v-1.1H383c-1,1.6-2.4,2.4-4.4,2.4c-1.8,0-3.2-0.6-4.3-1.9
			s-1.6-2.9-1.6-5.1c0-2.4,0.6-4.3,1.8-5.6s2.7-2.1,4.6-2.1c1.7,0,3,0.7,3.8,2h0.1v-1.6h4.3V64.6z M383.1,59.4v-1.1
			c0-0.9-0.3-1.6-0.8-2.3c-0.5-0.6-1.2-0.9-2-0.9c-1,0-1.7,0.4-2.3,1.1c-0.5,0.7-0.8,1.8-0.8,3.2c0,1.2,0.3,2.1,0.8,2.8
			c0.5,0.7,1.2,1,2.1,1c0.9,0,1.6-0.3,2.2-1C382.9,61.5,383.1,60.6,383.1,59.4z"/>
		<path class="st0" d="M400.1,56.1c-0.5-0.3-1.1-0.4-1.8-0.4c-0.9,0-1.7,0.3-2.2,1c-0.5,0.7-0.8,1.6-0.8,2.8v6.7H391v-14h4.3v2.6
			h0.1c0.7-1.9,1.9-2.8,3.7-2.8c0.5,0,0.8,0.1,1.1,0.2V56.1z"/>
		<path class="st0" d="M413.8,66.2h-4.1v-2h-0.1c-0.9,1.6-2.3,2.4-4.2,2.4c-1.4,0-2.4-0.4-3.2-1.2c-0.8-0.8-1.2-1.8-1.2-3.1
			c0-2.7,1.6-4.3,4.8-4.7l3.8-0.5c0-1.5-0.8-2.3-2.5-2.3c-1.7,0-3.3,0.5-4.8,1.5V53c0.6-0.3,1.4-0.6,2.5-0.8c1-0.2,2-0.4,2.9-0.4
			c4,0,6,2,6,6V66.2z M409.7,60.5v-0.9l-2.5,0.3c-1.4,0.2-2.1,0.8-2.1,1.9c0,0.5,0.2,0.9,0.5,1.2s0.8,0.5,1.4,0.5
			c0.8,0,1.5-0.3,2-0.8S409.7,61.3,409.7,60.5z"/>
		<path class="st0" d="M430.9,66.2h-4.3v-1.9h-0.1c-1,1.5-2.4,2.3-4.3,2.3c-1.8,0-3.2-0.6-4.2-1.9c-1.1-1.2-1.6-3-1.6-5.2
			c0-2.3,0.6-4.2,1.8-5.6s2.7-2.1,4.6-2.1c1.8,0,3.1,0.6,3.8,1.9h0.1v-8.3h4.3V66.2z M426.7,59.4v-1.1c0-0.9-0.3-1.7-0.8-2.3
			s-1.2-0.9-2.1-0.9c-1,0-1.7,0.4-2.2,1.1s-0.8,1.8-0.8,3.1c0,1.2,0.3,2.2,0.8,2.8c0.5,0.7,1.2,1,2.2,1c0.9,0,1.6-0.4,2.1-1.1
			C426.4,61.4,426.7,60.5,426.7,59.4z"/>
		<path class="st0" d="M441.2,66.5c-2.3,0-4.2-0.7-5.5-2c-1.3-1.3-2-3.1-2-5.3c0-2.3,0.7-4.1,2.1-5.4c1.4-1.3,3.3-2,5.6-2
			c2.3,0,4.1,0.7,5.5,2c1.3,1.3,2,3,2,5.2c0,2.3-0.7,4.2-2,5.5C445.5,65.8,443.6,66.5,441.2,66.5z M441.3,55.1c-1,0-1.8,0.4-2.4,1.1
			c-0.6,0.7-0.8,1.7-0.8,3c0,2.7,1.1,4,3.3,4c2.1,0,3.1-1.4,3.1-4.1C444.5,56.4,443.4,55.1,441.3,55.1z"/>
		<path class="st0" d="M473,66.2h-4.3v-1.9h-0.1c-1,1.5-2.4,2.3-4.3,2.3c-1.8,0-3.2-0.6-4.2-1.9c-1.1-1.2-1.6-3-1.6-5.2
			c0-2.3,0.6-4.2,1.8-5.6s2.7-2.1,4.6-2.1c1.8,0,3.1,0.6,3.8,1.9h0.1v-8.3h4.3V66.2z M468.8,59.4v-1.1c0-0.9-0.3-1.7-0.8-2.3
			s-1.2-0.9-2.1-0.9c-1,0-1.7,0.4-2.2,1.1s-0.8,1.8-0.8,3.1c0,1.2,0.3,2.2,0.8,2.8c0.5,0.7,1.2,1,2.2,1c0.9,0,1.6-0.4,2.1-1.1
			C468.5,61.4,468.8,60.5,468.8,59.4z"/>
		<path class="st0" d="M489.3,60.4h-9.1c0.1,2,1.4,3,3.8,3c1.5,0,2.9-0.4,4.1-1.1v3.1c-1.3,0.7-3,1-5,1c-2.3,0-4-0.6-5.3-1.9
			c-1.2-1.3-1.9-3-1.9-5.2c0-2.3,0.7-4.2,2-5.5c1.3-1.4,3-2,5-2c2,0,3.6,0.6,4.7,1.8c1.1,1.2,1.7,2.9,1.7,4.9V60.4z M485.2,57.7
			c0-2-0.8-3-2.4-3c-0.7,0-1.3,0.3-1.8,0.9s-0.8,1.3-0.9,2.1H485.2z"/>
		<path class="st0" d="M516,64.9c-1.9,1.1-4.3,1.7-7.1,1.7c-3.2,0-5.6-0.9-7.5-2.6c-1.8-1.7-2.7-4.1-2.7-7.2c0-3.1,1-5.6,3-7.5
			s4.6-2.9,7.9-2.9c2.1,0,3.9,0.3,5.5,0.9v4.1c-1.5-0.9-3.4-1.3-5.6-1.3c-1.8,0-3.3,0.6-4.5,1.8s-1.7,2.8-1.7,4.8
			c0,2,0.5,3.6,1.6,4.7c1,1.1,2.4,1.7,4.2,1.7c1.1,0,1.9-0.2,2.5-0.5v-3.8h-3.9V55h8.3V64.9z"/>
		<path class="st0" d="M532,60.4h-9.1c0.1,2,1.4,3,3.8,3c1.5,0,2.9-0.4,4.1-1.1v3.1c-1.3,0.7-3,1-5,1c-2.3,0-4-0.6-5.3-1.9
			c-1.2-1.3-1.9-3-1.9-5.2c0-2.3,0.7-4.2,2-5.5c1.3-1.4,3-2,5-2c2,0,3.6,0.6,4.7,1.8c1.1,1.2,1.7,2.9,1.7,4.9V60.4z M528,57.7
			c0-2-0.8-3-2.4-3c-0.7,0-1.3,0.3-1.8,0.9s-0.8,1.3-0.9,2.1H528z"/>
		<path class="st0" d="M533.6,65.8v-3.5c0.7,0.4,1.4,0.7,2.1,1c0.7,0.2,1.4,0.3,2,0.3c0.8,0,1.4-0.1,1.8-0.3c0.4-0.2,0.7-0.5,0.7-1
			c0-0.3-0.1-0.5-0.3-0.7c-0.2-0.2-0.5-0.3-0.8-0.5s-0.7-0.3-1-0.4s-0.7-0.2-1.1-0.4c-0.6-0.2-1-0.4-1.5-0.7
			c-0.4-0.2-0.8-0.5-1.1-0.8c-0.3-0.3-0.5-0.7-0.7-1.1c-0.2-0.4-0.2-0.9-0.2-1.5c0-0.8,0.2-1.5,0.5-2c0.3-0.6,0.8-1,1.4-1.4
			c0.6-0.4,1.2-0.6,2-0.8c0.7-0.2,1.5-0.3,2.3-0.3c0.6,0,1.2,0,1.9,0.1s1.3,0.2,1.9,0.4v3.3c-0.5-0.3-1.1-0.6-1.8-0.7
			c-0.6-0.2-1.2-0.2-1.8-0.2c-0.3,0-0.5,0-0.8,0.1c-0.3,0.1-0.5,0.1-0.7,0.2s-0.3,0.2-0.5,0.4s-0.2,0.3-0.2,0.5
			c0,0.3,0.1,0.5,0.2,0.7c0.2,0.2,0.4,0.3,0.6,0.5c0.3,0.1,0.6,0.3,0.9,0.4c0.3,0.1,0.6,0.2,1,0.3c0.6,0.2,1.1,0.4,1.6,0.7
			c0.5,0.2,0.9,0.5,1.2,0.8c0.3,0.3,0.6,0.7,0.8,1.1c0.2,0.4,0.3,0.9,0.3,1.5c0,0.8-0.2,1.5-0.5,2.1s-0.8,1.1-1.4,1.4
			s-1.3,0.6-2.1,0.8s-1.6,0.3-2.4,0.3C536.4,66.5,534.9,66.3,533.6,65.8z"/>
		<path class="st0" d="M555.3,66c-0.6,0.3-1.6,0.5-2.9,0.5c-3,0-4.6-1.6-4.6-4.7v-6.4h-2.3v-3.2h2.3v-3l4.3-1.2v4.3h3.1v3.2h-3.1V61
			c0,1.5,0.6,2.2,1.7,2.2c0.5,0,0.9-0.1,1.4-0.4V66z"/>
		<path class="st0" d="M560,50c-0.7,0-1.3-0.2-1.8-0.6c-0.5-0.4-0.7-1-0.7-1.6c0-0.6,0.2-1.2,0.7-1.6s1.1-0.6,1.8-0.6
			c0.7,0,1.3,0.2,1.8,0.6s0.7,0.9,0.7,1.6c0,0.7-0.2,1.2-0.7,1.6C561.3,49.7,560.7,50,560,50z M562.1,66.2h-4.3v-14h4.3V66.2z"/>
		<path class="st0" d="M572.4,66.5c-2.3,0-4.2-0.7-5.5-2c-1.3-1.3-2-3.1-2-5.3c0-2.3,0.7-4.1,2.1-5.4c1.4-1.3,3.3-2,5.6-2
			c2.3,0,4.1,0.7,5.5,2c1.3,1.3,2,3,2,5.2c0,2.3-0.7,4.2-2,5.5C576.6,65.8,574.8,66.5,572.4,66.5z M572.5,55.1c-1,0-1.8,0.4-2.4,1.1
			c-0.6,0.7-0.8,1.7-0.8,3c0,2.7,1.1,4,3.3,4c2.1,0,3.1-1.4,3.1-4.1C575.6,56.4,574.6,55.1,572.5,55.1z M577.1,45.5l-4.3,4.4h-3.1
			l3.6-4.4H577.1z"/>
		<path class="st0" d="M596.4,66.2h-4.3v-7.8c0-2.2-0.8-3.3-2.3-3.3c-0.7,0-1.4,0.3-1.8,0.9s-0.7,1.3-0.7,2.2v8h-4.3v-14h4.3v2.2
			h0.1c1-1.7,2.5-2.6,4.5-2.6c3.1,0,4.6,1.9,4.6,5.8V66.2z"/>
	</g>
	<g>
		<path class="st0" d="M81.4,54.1v-1.4c0.2,0.1,0.3,0.3,0.6,0.4c0.2,0.1,0.4,0.2,0.7,0.3c0.2,0.1,0.5,0.1,0.7,0.2s0.5,0.1,0.7,0.1
			c0.7,0,1.2-0.1,1.6-0.4c0.3-0.3,0.5-0.6,0.5-1.1c0-0.3-0.1-0.5-0.2-0.7c-0.1-0.2-0.3-0.4-0.5-0.5s-0.4-0.3-0.7-0.5
			c-0.3-0.1-0.6-0.3-0.9-0.5c-0.3-0.2-0.7-0.3-1-0.5s-0.6-0.4-0.8-0.6s-0.4-0.5-0.5-0.7c-0.1-0.3-0.2-0.6-0.2-1
			c0-0.4,0.1-0.8,0.3-1.2s0.5-0.6,0.8-0.8s0.7-0.4,1.1-0.5c0.4-0.1,0.8-0.2,1.2-0.2c1,0,1.7,0.1,2.1,0.3v1.3
			c-0.6-0.4-1.3-0.6-2.2-0.6c-0.3,0-0.5,0-0.8,0.1s-0.5,0.1-0.7,0.3s-0.4,0.3-0.5,0.5s-0.2,0.4-0.2,0.7c0,0.3,0,0.5,0.1,0.6
			c0.1,0.2,0.2,0.3,0.4,0.5s0.4,0.3,0.7,0.4c0.3,0.1,0.6,0.3,0.9,0.5c0.4,0.2,0.7,0.4,1,0.5s0.6,0.4,0.8,0.6s0.4,0.5,0.6,0.8
			c0.1,0.3,0.2,0.6,0.2,1c0,0.5-0.1,0.9-0.3,1.2c-0.2,0.3-0.4,0.6-0.8,0.8c-0.3,0.2-0.7,0.4-1.1,0.5s-0.9,0.1-1.3,0.1
			c-0.2,0-0.3,0-0.6,0s-0.5-0.1-0.7-0.1s-0.5-0.1-0.7-0.2C81.7,54.3,81.5,54.2,81.4,54.1z"/>
		<path class="st0" d="M89.7,45.8c-0.2,0-0.4-0.1-0.5-0.2S89,45.3,89,45s0.1-0.4,0.2-0.5s0.3-0.2,0.5-0.2c0.2,0,0.4,0.1,0.5,0.2
			c0.1,0.1,0.2,0.3,0.2,0.5c0,0.2-0.1,0.4-0.2,0.5C90.1,45.7,89.9,45.8,89.7,45.8z M90.2,54.5h-1.1v-7h1.1V54.5z"/>
		<path class="st0" d="M92.1,54.3v-1.2c0.6,0.5,1.3,0.7,2,0.7c1,0,1.5-0.3,1.5-1c0-0.2,0-0.3-0.1-0.5c-0.1-0.1-0.2-0.2-0.3-0.3
			c-0.1-0.1-0.3-0.2-0.5-0.3c-0.2-0.1-0.4-0.2-0.6-0.2c-0.3-0.1-0.6-0.2-0.8-0.4c-0.2-0.1-0.4-0.3-0.6-0.4c-0.2-0.2-0.3-0.3-0.4-0.5
			c-0.1-0.2-0.1-0.4-0.1-0.7c0-0.3,0.1-0.6,0.2-0.9s0.4-0.5,0.6-0.6s0.5-0.3,0.9-0.4c0.3-0.1,0.7-0.1,1-0.1c0.6,0,1.1,0.1,1.6,0.3
			v1.1c-0.5-0.3-1.1-0.5-1.8-0.5c-0.2,0-0.4,0-0.6,0.1s-0.3,0.1-0.4,0.2c-0.1,0.1-0.2,0.2-0.3,0.3c-0.1,0.1-0.1,0.3-0.1,0.4
			c0,0.2,0,0.3,0.1,0.5c0.1,0.1,0.2,0.2,0.3,0.3s0.3,0.2,0.5,0.3s0.4,0.2,0.6,0.3c0.3,0.1,0.6,0.2,0.8,0.4s0.5,0.3,0.6,0.4
			s0.3,0.3,0.4,0.5c0.1,0.2,0.1,0.4,0.1,0.7c0,0.3-0.1,0.6-0.2,0.9c-0.2,0.3-0.4,0.5-0.6,0.6s-0.5,0.3-0.9,0.4s-0.7,0.1-1,0.1
			C93.2,54.7,92.6,54.6,92.1,54.3z"/>
		<path class="st0" d="M101.7,54.5c-0.3,0.1-0.6,0.2-1,0.2c-1.2,0-1.8-0.7-1.8-2.1v-4.1h-1.2v-1h1.2v-1.7l1.1-0.4v2.1h1.8v1h-1.8
			v3.9c0,0.5,0.1,0.8,0.2,1s0.4,0.3,0.8,0.3c0.3,0,0.5-0.1,0.7-0.2V54.5z"/>
		<path class="st0" d="M108.7,51.3h-4.9c0,0.8,0.2,1.4,0.6,1.8s1,0.6,1.7,0.6c0.8,0,1.5-0.3,2.2-0.8V54c-0.6,0.4-1.4,0.7-2.4,0.7
			c-1,0-1.8-0.3-2.3-1s-0.8-1.5-0.8-2.7c0-1.1,0.3-2,0.9-2.7c0.6-0.7,1.4-1,2.3-1s1.6,0.3,2.1,0.9s0.8,1.4,0.8,2.5V51.3z
			 M107.6,50.4c0-0.6-0.2-1.2-0.5-1.5c-0.3-0.4-0.7-0.5-1.3-0.5c-0.5,0-1,0.2-1.3,0.6s-0.6,0.9-0.7,1.5H107.6z"/>
		<path class="st0" d="M120.3,54.5h-1.1v-4c0-0.8-0.1-1.3-0.4-1.7c-0.2-0.3-0.6-0.5-1.2-0.5c-0.5,0-0.9,0.2-1.2,0.7
			c-0.3,0.4-0.5,1-0.5,1.6v4h-1.1v-4.2c0-1.4-0.5-2.1-1.6-2.1c-0.5,0-0.9,0.2-1.2,0.6s-0.5,0.9-0.5,1.6v4h-1.1v-7h1.1v1.1h0
			c0.5-0.8,1.2-1.3,2.2-1.3c0.5,0,0.9,0.1,1.3,0.4s0.6,0.6,0.7,1c0.5-1,1.3-1.4,2.3-1.4c1.5,0,2.3,1,2.3,2.9V54.5z"/>
		<path class="st0" d="M127.5,54.5h-1.1v-1.1h0c-0.5,0.8-1.2,1.3-2.2,1.3c-0.7,0-1.2-0.2-1.6-0.6c-0.4-0.4-0.6-0.9-0.6-1.5
			c0-1.3,0.8-2.1,2.3-2.3l2.1-0.3c0-1.2-0.5-1.8-1.4-1.8c-0.8,0-1.6,0.3-2.3,0.9V48c0.7-0.4,1.5-0.7,2.4-0.7c1.6,0,2.5,0.9,2.5,2.6
			V54.5z M126.3,51l-1.7,0.2c-0.5,0.1-0.9,0.2-1.2,0.4s-0.4,0.5-0.4,1c0,0.3,0.1,0.6,0.4,0.8c0.2,0.2,0.6,0.3,1,0.3
			c0.6,0,1-0.2,1.4-0.6c0.4-0.4,0.5-0.9,0.5-1.5V51z"/>
		<path class="st0" d="M129.2,54.3v-1.2c0.6,0.5,1.3,0.7,2,0.7c1,0,1.5-0.3,1.5-1c0-0.2,0-0.3-0.1-0.5c-0.1-0.1-0.2-0.2-0.3-0.3
			c-0.1-0.1-0.3-0.2-0.5-0.3c-0.2-0.1-0.4-0.2-0.6-0.2c-0.3-0.1-0.6-0.2-0.8-0.4c-0.2-0.1-0.4-0.3-0.6-0.4c-0.2-0.2-0.3-0.3-0.4-0.5
			c-0.1-0.2-0.1-0.4-0.1-0.7c0-0.3,0.1-0.6,0.2-0.9s0.4-0.5,0.6-0.6s0.5-0.3,0.9-0.4c0.3-0.1,0.7-0.1,1-0.1c0.6,0,1.1,0.1,1.6,0.3
			v1.1c-0.5-0.3-1.1-0.5-1.8-0.5c-0.2,0-0.4,0-0.6,0.1s-0.3,0.1-0.4,0.2c-0.1,0.1-0.2,0.2-0.3,0.3c-0.1,0.1-0.1,0.3-0.1,0.4
			c0,0.2,0,0.3,0.1,0.5c0.1,0.1,0.2,0.2,0.3,0.3s0.3,0.2,0.5,0.3s0.4,0.2,0.6,0.3c0.3,0.1,0.6,0.2,0.8,0.4s0.5,0.3,0.6,0.4
			s0.3,0.3,0.4,0.5c0.1,0.2,0.1,0.4,0.1,0.7c0,0.3-0.1,0.6-0.2,0.9c-0.2,0.3-0.4,0.5-0.6,0.6s-0.5,0.3-0.9,0.4s-0.7,0.1-1,0.1
			C130.3,54.7,129.7,54.6,129.2,54.3z"/>
		<path class="st0" d="M81.3,66.5h-1.1v-1.2h0c-0.5,0.9-1.3,1.4-2.4,1.4c-0.9,0-1.6-0.3-2.1-0.9c-0.5-0.6-0.8-1.5-0.8-2.6
			c0-1.2,0.3-2.1,0.9-2.8s1.4-1,2.3-1c1,0,1.7,0.4,2.1,1.1h0v-4.3h1.1V66.5z M80.2,63.4v-1c0-0.6-0.2-1-0.6-1.4s-0.8-0.6-1.4-0.6
			c-0.7,0-1.2,0.3-1.6,0.8S76,62.3,76,63.2c0,0.8,0.2,1.4,0.6,1.9c0.4,0.5,0.9,0.7,1.5,0.7c0.6,0,1.1-0.2,1.5-0.7
			C80,64.6,80.2,64.1,80.2,63.4z"/>
		<path class="st0" d="M89.2,63.3h-4.9c0,0.8,0.2,1.4,0.6,1.8s1,0.6,1.7,0.6c0.8,0,1.5-0.3,2.2-0.8V66c-0.6,0.4-1.4,0.7-2.4,0.7
			c-1,0-1.8-0.3-2.3-1s-0.8-1.5-0.8-2.7c0-1.1,0.3-2,0.9-2.7c0.6-0.7,1.4-1,2.3-1s1.6,0.3,2.1,0.9s0.8,1.4,0.8,2.5V63.3z M88.1,62.4
			c0-0.6-0.2-1.2-0.5-1.5c-0.3-0.4-0.7-0.5-1.3-0.5c-0.5,0-1,0.2-1.3,0.6s-0.6,0.9-0.7,1.5H88.1z"/>
		<path class="st0" d="M102.2,65.9c-1,0.6-2.1,0.8-3.3,0.8c-1.4,0-2.5-0.5-3.4-1.4c-0.9-0.9-1.3-2.1-1.3-3.6c0-1.5,0.5-2.8,1.4-3.7
			c1-1,2.2-1.5,3.6-1.5c1.1,0,2,0.2,2.7,0.5v1.3c-0.8-0.5-1.7-0.8-2.8-0.8c-1.1,0-2,0.4-2.7,1.1s-1.1,1.7-1.1,2.9
			c0,1.2,0.3,2.2,1,2.9s1.5,1.1,2.7,1.1c0.8,0,1.4-0.2,2-0.5v-2.7h-2.1v-1h3.3V65.9z"/>
		<path class="st0" d="M110,63.3H105c0,0.8,0.2,1.4,0.6,1.8s1,0.6,1.7,0.6c0.8,0,1.5-0.3,2.2-0.8V66c-0.6,0.4-1.4,0.7-2.4,0.7
			c-1,0-1.8-0.3-2.3-1s-0.8-1.5-0.8-2.7c0-1.1,0.3-2,0.9-2.7c0.6-0.7,1.4-1,2.3-1s1.6,0.3,2.1,0.9s0.8,1.4,0.8,2.5V63.3z
			 M108.8,62.4c0-0.6-0.2-1.2-0.5-1.5c-0.3-0.4-0.7-0.5-1.3-0.5c-0.5,0-1,0.2-1.3,0.6s-0.6,0.9-0.7,1.5H108.8z"/>
		<path class="st0" d="M111.2,66.3v-1.2c0.6,0.5,1.3,0.7,2,0.7c1,0,1.5-0.3,1.5-1c0-0.2,0-0.3-0.1-0.5c-0.1-0.1-0.2-0.2-0.3-0.3
			c-0.1-0.1-0.3-0.2-0.5-0.3c-0.2-0.1-0.4-0.2-0.6-0.2c-0.3-0.1-0.6-0.2-0.8-0.4c-0.2-0.1-0.4-0.3-0.6-0.4c-0.2-0.2-0.3-0.3-0.4-0.5
			c-0.1-0.2-0.1-0.4-0.1-0.7c0-0.3,0.1-0.6,0.2-0.9s0.4-0.5,0.6-0.6s0.5-0.3,0.9-0.4c0.3-0.1,0.7-0.1,1-0.1c0.6,0,1.1,0.1,1.6,0.3
			v1.1c-0.5-0.3-1.1-0.5-1.8-0.5c-0.2,0-0.4,0-0.6,0.1s-0.3,0.1-0.4,0.2c-0.1,0.1-0.2,0.2-0.3,0.3c-0.1,0.1-0.1,0.3-0.1,0.4
			c0,0.2,0,0.3,0.1,0.5c0.1,0.1,0.2,0.2,0.3,0.3s0.3,0.2,0.5,0.3s0.4,0.2,0.6,0.3c0.3,0.1,0.6,0.2,0.8,0.4s0.5,0.3,0.6,0.4
			s0.3,0.3,0.4,0.5c0.1,0.2,0.1,0.4,0.1,0.7c0,0.3-0.1,0.6-0.2,0.9c-0.2,0.3-0.4,0.5-0.6,0.6s-0.5,0.3-0.9,0.4s-0.7,0.1-1,0.1
			C112.4,66.7,111.8,66.6,111.2,66.3z"/>
		<path class="st0" d="M120.8,66.5c-0.3,0.1-0.6,0.2-1,0.2c-1.2,0-1.8-0.7-1.8-2.1v-4.1h-1.2v-1h1.2v-1.7l1.1-0.4v2.1h1.8v1h-1.8
			v3.9c0,0.5,0.1,0.8,0.2,1s0.4,0.3,0.8,0.3c0.3,0,0.5-0.1,0.7-0.2V66.5z"/>
		<path class="st0" d="M122.9,57.8c-0.2,0-0.4-0.1-0.5-0.2s-0.2-0.3-0.2-0.5s0.1-0.4,0.2-0.5s0.3-0.2,0.5-0.2c0.2,0,0.4,0.1,0.5,0.2
			c0.1,0.1,0.2,0.3,0.2,0.5c0,0.2-0.1,0.4-0.2,0.5C123.3,57.7,123.1,57.8,122.9,57.8z M123.5,66.5h-1.1v-7h1.1V66.5z"/>
		<path class="st0" d="M128.7,66.7c-1,0-1.9-0.3-2.5-1c-0.6-0.7-0.9-1.5-0.9-2.6c0-1.2,0.3-2.1,1-2.8s1.5-1,2.6-1c1,0,1.9,0.3,2.4,1
			c0.6,0.6,0.9,1.5,0.9,2.7c0,1.1-0.3,2-0.9,2.7C130.6,66.4,129.7,66.7,128.7,66.7z M128.7,60.3c-0.7,0-1.3,0.2-1.7,0.7
			s-0.6,1.2-0.6,2c0,0.8,0.2,1.5,0.6,2s1,0.7,1.7,0.7c0.7,0,1.3-0.2,1.7-0.7c0.4-0.5,0.6-1.1,0.6-2c0-0.9-0.2-1.5-0.6-2
			C130,60.6,129.5,60.3,128.7,60.3z M130.4,56l-1.8,2.2h-0.9l1.5-2.2H130.4z"/>
		<path class="st0" d="M139.7,66.5h-1.1v-4c0-1.5-0.5-2.2-1.6-2.2c-0.6,0-1,0.2-1.4,0.6c-0.4,0.4-0.6,1-0.6,1.6v4h-1.1v-7h1.1v1.2h0
			c0.5-0.9,1.3-1.3,2.3-1.3c0.8,0,1.4,0.2,1.8,0.7s0.6,1.2,0.6,2.1V66.5z"/>
	</g>
	<g>
		<path class="st0" d="M54.2,87h-1.8V71.6h1.8V87z"/>
		<path class="st0" d="M57.5,86.4v-2.1c0.2,0.2,0.5,0.4,0.9,0.6c0.3,0.2,0.7,0.3,1.1,0.4c0.4,0.1,0.8,0.2,1.1,0.3s0.7,0.1,1.1,0.1
			c1.1,0,1.9-0.2,2.5-0.6c0.5-0.4,0.8-1,0.8-1.8c0-0.4-0.1-0.8-0.3-1.1c-0.2-0.3-0.4-0.6-0.8-0.8c-0.3-0.3-0.7-0.5-1.1-0.7
			c-0.4-0.2-0.9-0.5-1.4-0.7c-0.5-0.3-1-0.5-1.5-0.8s-0.9-0.6-1.2-0.9c-0.3-0.3-0.6-0.7-0.8-1.1c-0.2-0.4-0.3-0.9-0.3-1.5
			c0-0.7,0.2-1.3,0.5-1.8c0.3-0.5,0.7-0.9,1.2-1.3c0.5-0.3,1.1-0.6,1.7-0.8c0.6-0.2,1.3-0.2,2-0.2c1.5,0,2.6,0.2,3.3,0.5v2
			c-0.9-0.6-2.1-0.9-3.5-0.9c-0.4,0-0.8,0-1.2,0.1c-0.4,0.1-0.7,0.2-1.1,0.4c-0.3,0.2-0.6,0.4-0.8,0.7c-0.2,0.3-0.3,0.7-0.3,1.1
			c0,0.4,0.1,0.7,0.2,1c0.1,0.3,0.4,0.5,0.7,0.8s0.6,0.5,1,0.7c0.4,0.2,0.9,0.5,1.4,0.7c0.6,0.3,1.1,0.6,1.6,0.9
			c0.5,0.3,0.9,0.6,1.3,1s0.7,0.8,0.9,1.2c0.2,0.4,0.3,1,0.3,1.5c0,0.8-0.1,1.4-0.4,1.9c-0.3,0.5-0.7,1-1.2,1.3
			c-0.5,0.3-1.1,0.6-1.7,0.7c-0.7,0.1-1.4,0.2-2.1,0.2c-0.2,0-0.5,0-0.9-0.1c-0.4,0-0.7-0.1-1.1-0.2s-0.7-0.2-1.1-0.3
			C58,86.7,57.7,86.5,57.5,86.4z"/>
		<path class="st0" d="M76.1,87.3c-2.2,0-3.9-0.7-5.2-2.2c-1.3-1.4-2-3.3-2-5.6c0-2.5,0.7-4.5,2-5.9c1.3-1.5,3.2-2.2,5.5-2.2
			c2.1,0,3.8,0.7,5.1,2.1c1.3,1.4,1.9,3.3,1.9,5.6c0,2.5-0.7,4.5-2,6S78.4,87.3,76.1,87.3z M76.3,73c-1.6,0-2.9,0.6-3.9,1.8
			c-1,1.2-1.5,2.7-1.5,4.6c0,1.9,0.5,3.4,1.5,4.6c1,1.2,2.3,1.7,3.9,1.7c1.7,0,3-0.6,4-1.7c1-1.1,1.5-2.6,1.5-4.6
			c0-2-0.5-3.6-1.4-4.7C79.2,73.6,77.9,73,76.3,73z"/>
		<path class="st0" d="M54.2,106h-1.8V90.6h1.8V106z"/>
		<path class="st0" d="M57.5,105.4v-2.1c0.2,0.2,0.5,0.4,0.9,0.6c0.3,0.2,0.7,0.3,1.1,0.4c0.4,0.1,0.8,0.2,1.1,0.3s0.7,0.1,1.1,0.1
			c1.1,0,1.9-0.2,2.5-0.6c0.5-0.4,0.8-1,0.8-1.8c0-0.4-0.1-0.8-0.3-1.1c-0.2-0.3-0.4-0.6-0.8-0.8c-0.3-0.3-0.7-0.5-1.1-0.7
			c-0.4-0.2-0.9-0.5-1.4-0.7c-0.5-0.3-1-0.5-1.5-0.8s-0.9-0.6-1.2-0.9c-0.3-0.3-0.6-0.7-0.8-1.1c-0.2-0.4-0.3-0.9-0.3-1.5
			c0-0.7,0.2-1.3,0.5-1.8c0.3-0.5,0.7-0.9,1.2-1.3c0.5-0.3,1.1-0.6,1.7-0.8c0.6-0.2,1.3-0.2,2-0.2c1.5,0,2.6,0.2,3.3,0.5v2
			c-0.9-0.6-2.1-0.9-3.5-0.9c-0.4,0-0.8,0-1.2,0.1c-0.4,0.1-0.7,0.2-1.1,0.4c-0.3,0.2-0.6,0.4-0.8,0.7c-0.2,0.3-0.3,0.7-0.3,1.1
			c0,0.4,0.1,0.7,0.2,1c0.1,0.3,0.4,0.5,0.7,0.8s0.6,0.5,1,0.7c0.4,0.2,0.9,0.5,1.4,0.7c0.6,0.3,1.1,0.6,1.6,0.9
			c0.5,0.3,0.9,0.6,1.3,1s0.7,0.8,0.9,1.2c0.2,0.4,0.3,1,0.3,1.5c0,0.8-0.1,1.4-0.4,1.9c-0.3,0.5-0.7,1-1.2,1.3
			c-0.5,0.3-1.1,0.6-1.7,0.7c-0.7,0.1-1.4,0.2-2.1,0.2c-0.2,0-0.5,0-0.9-0.1c-0.4,0-0.7-0.1-1.1-0.2s-0.7-0.2-1.1-0.3
			C58,105.7,57.7,105.5,57.5,105.4z"/>
		<path class="st0" d="M76.1,106.3c-2.2,0-3.9-0.7-5.2-2.2c-1.3-1.4-2-3.3-2-5.6c0-2.5,0.7-4.5,2-5.9c1.3-1.5,3.2-2.2,5.5-2.2
			c2.1,0,3.8,0.7,5.1,2.1c1.3,1.4,1.9,3.3,1.9,5.6c0,2.5-0.7,4.5-2,6S78.4,106.3,76.1,106.3z M76.3,92c-1.6,0-2.9,0.6-3.9,1.8
			c-1,1.2-1.5,2.7-1.5,4.6c0,1.9,0.5,3.4,1.5,4.6c1,1.2,2.3,1.7,3.9,1.7c1.7,0,3-0.6,4-1.7c1-1.1,1.5-2.6,1.5-4.6
			c0-2-0.5-3.6-1.4-4.7C79.2,92.6,77.9,92,76.3,92z"/>
		<path class="st0" d="M54.2,125h-1.8v-15.4h1.8V125z"/>
		<path class="st0" d="M57.5,124.4v-2.1c0.2,0.2,0.5,0.4,0.9,0.6c0.3,0.2,0.7,0.3,1.1,0.4c0.4,0.1,0.8,0.2,1.1,0.3s0.7,0.1,1.1,0.1
			c1.1,0,1.9-0.2,2.5-0.6c0.5-0.4,0.8-1,0.8-1.8c0-0.4-0.1-0.8-0.3-1.1c-0.2-0.3-0.4-0.6-0.8-0.8c-0.3-0.3-0.7-0.5-1.1-0.7
			c-0.4-0.2-0.9-0.5-1.4-0.7c-0.5-0.3-1-0.5-1.5-0.8s-0.9-0.6-1.2-0.9c-0.3-0.3-0.6-0.7-0.8-1.1c-0.2-0.4-0.3-0.9-0.3-1.5
			c0-0.7,0.2-1.3,0.5-1.8c0.3-0.5,0.7-0.9,1.2-1.3c0.5-0.3,1.1-0.6,1.7-0.8c0.6-0.2,1.3-0.2,2-0.2c1.5,0,2.6,0.2,3.3,0.5v2
			c-0.9-0.6-2.1-0.9-3.5-0.9c-0.4,0-0.8,0-1.2,0.1c-0.4,0.1-0.7,0.2-1.1,0.4c-0.3,0.2-0.6,0.4-0.8,0.7c-0.2,0.3-0.3,0.7-0.3,1.1
			c0,0.4,0.1,0.7,0.2,1c0.1,0.3,0.4,0.5,0.7,0.8s0.6,0.5,1,0.7c0.4,0.2,0.9,0.5,1.4,0.7c0.6,0.3,1.1,0.6,1.6,0.9
			c0.5,0.3,0.9,0.6,1.3,1s0.7,0.8,0.9,1.2c0.2,0.4,0.3,1,0.3,1.5c0,0.8-0.1,1.4-0.4,1.9c-0.3,0.5-0.7,1-1.2,1.3
			c-0.5,0.3-1.1,0.6-1.7,0.7c-0.7,0.1-1.4,0.2-2.1,0.2c-0.2,0-0.5,0-0.9-0.1c-0.4,0-0.7-0.1-1.1-0.2s-0.7-0.2-1.1-0.3
			C58,124.7,57.7,124.5,57.5,124.4z"/>
		<path class="st0" d="M76.1,125.3c-2.2,0-3.9-0.7-5.2-2.2c-1.3-1.4-2-3.3-2-5.6c0-2.5,0.7-4.5,2-5.9c1.3-1.5,3.2-2.2,5.5-2.2
			c2.1,0,3.8,0.7,5.1,2.1c1.3,1.4,1.9,3.3,1.9,5.6c0,2.5-0.7,4.5-2,6S78.4,125.3,76.1,125.3z M76.3,111c-1.6,0-2.9,0.6-3.9,1.8
			c-1,1.2-1.5,2.7-1.5,4.6c0,1.9,0.5,3.4,1.5,4.6c1,1.2,2.3,1.7,3.9,1.7c1.7,0,3-0.6,4-1.7c1-1.1,1.5-2.6,1.5-4.6
			c0-2-0.5-3.6-1.4-4.7C79.2,111.6,77.9,111,76.3,111z"/>
		<path class="st0" d="M54.2,144h-1.8v-15.4h1.8V144z"/>
		<path class="st0" d="M57.5,143.4v-2.1c0.2,0.2,0.5,0.4,0.9,0.6c0.3,0.2,0.7,0.3,1.1,0.4c0.4,0.1,0.8,0.2,1.1,0.3s0.7,0.1,1.1,0.1
			c1.1,0,1.9-0.2,2.5-0.6c0.5-0.4,0.8-1,0.8-1.8c0-0.4-0.1-0.8-0.3-1.1c-0.2-0.3-0.4-0.6-0.8-0.8c-0.3-0.3-0.7-0.5-1.1-0.7
			c-0.4-0.2-0.9-0.5-1.4-0.7c-0.5-0.3-1-0.5-1.5-0.8s-0.9-0.6-1.2-0.9c-0.3-0.3-0.6-0.7-0.8-1.1c-0.2-0.4-0.3-0.9-0.3-1.5
			c0-0.7,0.2-1.3,0.5-1.8c0.3-0.5,0.7-0.9,1.2-1.3c0.5-0.3,1.1-0.6,1.7-0.8c0.6-0.2,1.3-0.2,2-0.2c1.5,0,2.6,0.2,3.3,0.5v2
			c-0.9-0.6-2.1-0.9-3.5-0.9c-0.4,0-0.8,0-1.2,0.1c-0.4,0.1-0.7,0.2-1.1,0.4c-0.3,0.2-0.6,0.4-0.8,0.7c-0.2,0.3-0.3,0.7-0.3,1.1
			c0,0.4,0.1,0.7,0.2,1c0.1,0.3,0.4,0.5,0.7,0.8s0.6,0.5,1,0.7c0.4,0.2,0.9,0.5,1.4,0.7c0.6,0.3,1.1,0.6,1.6,0.9
			c0.5,0.3,0.9,0.6,1.3,1s0.7,0.8,0.9,1.2c0.2,0.4,0.3,1,0.3,1.5c0,0.8-0.1,1.4-0.4,1.9c-0.3,0.5-0.7,1-1.2,1.3
			c-0.5,0.3-1.1,0.6-1.7,0.7c-0.7,0.1-1.4,0.2-2.1,0.2c-0.2,0-0.5,0-0.9-0.1c-0.4,0-0.7-0.1-1.1-0.2s-0.7-0.2-1.1-0.3
			C58,143.7,57.7,143.5,57.5,143.4z"/>
		<path class="st0" d="M76.1,144.3c-2.2,0-3.9-0.7-5.2-2.2c-1.3-1.4-2-3.3-2-5.6c0-2.5,0.7-4.5,2-5.9c1.3-1.5,3.2-2.2,5.5-2.2
			c2.1,0,3.8,0.7,5.1,2.1c1.3,1.4,1.9,3.3,1.9,5.6c0,2.5-0.7,4.5-2,6S78.4,144.3,76.1,144.3z M76.3,130c-1.6,0-2.9,0.6-3.9,1.8
			c-1,1.2-1.5,2.7-1.5,4.6c0,1.9,0.5,3.4,1.5,4.6c1,1.2,2.3,1.7,3.9,1.7c1.7,0,3-0.6,4-1.7c1-1.1,1.5-2.6,1.5-4.6
			c0-2-0.5-3.6-1.4-4.7C79.2,130.6,77.9,130,76.3,130z"/>
	</g>
	<g>
		<path class="st0" d="M109.6,78.4c0,1.4-0.1,2.7-0.4,3.8c-0.3,1.1-0.7,2-1.2,2.8s-1.2,1.3-2,1.7s-1.7,0.6-2.6,0.6
			c-1,0-1.9-0.2-2.7-0.5v-1.7c0.9,0.5,1.8,0.7,2.7,0.7c0.7,0,1.3-0.1,1.9-0.4c0.5-0.3,1-0.7,1.4-1.3s0.7-1.2,0.9-2
			c0.2-0.8,0.3-1.7,0.3-2.8h0c-0.7,1.3-1.8,2-3.4,2c-0.7,0-1.3-0.1-1.8-0.3c-0.6-0.2-1-0.6-1.4-1c-0.4-0.4-0.7-0.9-0.9-1.5
			c-0.2-0.6-0.3-1.2-0.3-1.9c0-0.8,0.1-1.5,0.4-2.1c0.2-0.6,0.6-1.2,1-1.6c0.4-0.5,1-0.8,1.6-1.1c0.6-0.3,1.3-0.4,2-0.4
			c0.8,0,1.5,0.2,2.1,0.5c0.6,0.3,1.1,0.8,1.5,1.4c0.4,0.6,0.7,1.3,0.9,2.2C109.5,76.3,109.6,77.3,109.6,78.4z M107.7,76.9
			c0-0.6-0.1-1.1-0.2-1.6c-0.2-0.5-0.4-0.9-0.6-1.3c-0.3-0.3-0.6-0.6-1-0.8c-0.4-0.2-0.8-0.3-1.2-0.3c-0.4,0-0.8,0.1-1.2,0.3
			c-0.4,0.2-0.7,0.4-1,0.7c-0.3,0.3-0.5,0.7-0.6,1.1c-0.2,0.4-0.2,0.9-0.2,1.4c0,0.5,0.1,1,0.2,1.5c0.1,0.4,0.4,0.8,0.6,1.1
			c0.3,0.3,0.6,0.5,1,0.7c0.4,0.2,0.8,0.2,1.3,0.2c0.4,0,0.8-0.1,1.2-0.2c0.4-0.2,0.7-0.4,0.9-0.6c0.3-0.3,0.5-0.6,0.6-0.9
			C107.6,77.7,107.7,77.3,107.7,76.9z"/>
		<path class="st0" d="M121.6,79.3c0,1.3-0.1,2.4-0.3,3.4c-0.2,1-0.6,1.8-1,2.5c-0.4,0.7-1,1.2-1.6,1.6c-0.6,0.4-1.4,0.5-2.2,0.5
			c-0.8,0-1.5-0.2-2.1-0.5c-0.6-0.3-1.1-0.8-1.5-1.5c-0.4-0.7-0.7-1.5-0.9-2.4c-0.2-0.9-0.3-2-0.3-3.3c0-1.3,0.1-2.5,0.3-3.6
			c0.2-1,0.6-1.9,1-2.6s1-1.2,1.6-1.6c0.6-0.4,1.4-0.5,2.2-0.5C120,71.4,121.6,74,121.6,79.3z M119.8,79.5c0-4.4-1-6.6-3.1-6.6
			c-2.2,0-3.3,2.2-3.3,6.7c0,4.2,1.1,6.2,3.2,6.2C118.8,85.8,119.8,83.7,119.8,79.5z"/>
		<path class="st0" d="M133.5,79.3c0,1.3-0.1,2.4-0.3,3.4c-0.2,1-0.6,1.8-1,2.5c-0.4,0.7-1,1.2-1.6,1.6c-0.6,0.4-1.4,0.5-2.2,0.5
			c-0.8,0-1.5-0.2-2.1-0.5c-0.6-0.3-1.1-0.8-1.5-1.5c-0.4-0.7-0.7-1.5-0.9-2.4c-0.2-0.9-0.3-2-0.3-3.3c0-1.3,0.1-2.5,0.3-3.6
			c0.2-1,0.6-1.9,1-2.6s1-1.2,1.6-1.6c0.6-0.4,1.4-0.5,2.2-0.5C131.9,71.4,133.5,74,133.5,79.3z M131.7,79.5c0-4.4-1-6.6-3.1-6.6
			c-2.2,0-3.3,2.2-3.3,6.7c0,4.2,1.1,6.2,3.2,6.2C130.6,85.8,131.7,83.7,131.7,79.5z"/>
		<path class="st0" d="M142.2,87.1h-1.8V73.8c-0.1,0.1-0.3,0.3-0.6,0.5c-0.3,0.2-0.6,0.3-0.9,0.5c-0.3,0.2-0.7,0.3-1,0.5
			c-0.4,0.2-0.7,0.3-1.1,0.4v-1.8c0.4-0.1,0.8-0.3,1.2-0.4c0.4-0.2,0.9-0.4,1.3-0.6c0.4-0.2,0.8-0.5,1.2-0.7s0.7-0.5,1-0.7h0.7V87.1
			z"/>
		<path class="st0" d="M107.1,94.7c0-0.5-0.1-0.9-0.2-1.2c-0.1-0.4-0.3-0.6-0.6-0.9c-0.3-0.2-0.6-0.4-0.9-0.5
			c-0.3-0.1-0.7-0.2-1.1-0.2c-0.3,0-0.7,0-1,0.1c-0.3,0.1-0.7,0.2-1,0.4c-0.3,0.2-0.6,0.4-0.9,0.6c-0.3,0.2-0.6,0.5-0.8,0.8v-1.9
			c0.5-0.5,1-0.8,1.7-1.1c0.6-0.3,1.4-0.4,2.2-0.4c0.6,0,1.2,0.1,1.8,0.3s1,0.4,1.4,0.8c0.4,0.4,0.7,0.8,0.9,1.3
			c0.2,0.5,0.3,1.1,0.3,1.8c0,0.6-0.1,1.2-0.2,1.7c-0.1,0.5-0.4,1-0.6,1.4c-0.3,0.4-0.6,0.9-1.1,1.3c-0.4,0.4-0.9,0.8-1.5,1.2
			c-0.7,0.5-1.3,1-1.8,1.3c-0.5,0.4-0.8,0.7-1.1,1c-0.3,0.3-0.5,0.6-0.6,1c-0.1,0.3-0.2,0.7-0.2,1.1h7.7v1.6H100v-0.8
			c0-0.7,0.1-1.2,0.2-1.7c0.1-0.5,0.4-1,0.7-1.4s0.8-0.9,1.3-1.4c0.5-0.5,1.2-1,2-1.5c0.6-0.4,1-0.8,1.4-1.1
			c0.4-0.4,0.7-0.7,0.9-1.1s0.4-0.7,0.5-1.1C107.1,95.5,107.1,95.1,107.1,94.7z"/>
		<path class="st0" d="M121.6,98.3c0,1.3-0.1,2.4-0.3,3.4c-0.2,1-0.6,1.8-1,2.5c-0.4,0.7-1,1.2-1.6,1.6c-0.6,0.4-1.4,0.5-2.2,0.5
			c-0.8,0-1.5-0.2-2.1-0.5c-0.6-0.3-1.1-0.8-1.5-1.5c-0.4-0.7-0.7-1.5-0.9-2.4c-0.2-0.9-0.3-2-0.3-3.3c0-1.3,0.1-2.5,0.3-3.6
			c0.2-1,0.6-1.9,1-2.6s1-1.2,1.6-1.6c0.6-0.4,1.4-0.5,2.2-0.5C120,90.4,121.6,93,121.6,98.3z M119.8,98.5c0-4.4-1-6.6-3.1-6.6
			c-2.2,0-3.3,2.2-3.3,6.7c0,4.2,1.1,6.2,3.2,6.2C118.8,104.8,119.8,102.7,119.8,98.5z"/>
		<path class="st0" d="M133.5,98.3c0,1.3-0.1,2.4-0.3,3.4c-0.2,1-0.6,1.8-1,2.5c-0.4,0.7-1,1.2-1.6,1.6c-0.6,0.4-1.4,0.5-2.2,0.5
			c-0.8,0-1.5-0.2-2.1-0.5c-0.6-0.3-1.1-0.8-1.5-1.5c-0.4-0.7-0.7-1.5-0.9-2.4c-0.2-0.9-0.3-2-0.3-3.3c0-1.3,0.1-2.5,0.3-3.6
			c0.2-1,0.6-1.9,1-2.6s1-1.2,1.6-1.6c0.6-0.4,1.4-0.5,2.2-0.5C131.9,90.4,133.5,93,133.5,98.3z M131.7,98.5c0-4.4-1-6.6-3.1-6.6
			c-2.2,0-3.3,2.2-3.3,6.7c0,4.2,1.1,6.2,3.2,6.2C130.6,104.8,131.7,102.7,131.7,98.5z"/>
		<path class="st0" d="M145.4,98.3c0,1.3-0.1,2.4-0.3,3.4c-0.2,1-0.6,1.8-1,2.5c-0.4,0.7-1,1.2-1.6,1.6c-0.6,0.4-1.4,0.5-2.2,0.5
			c-0.8,0-1.5-0.2-2.1-0.5c-0.6-0.3-1.1-0.8-1.5-1.5c-0.4-0.7-0.7-1.5-0.9-2.4c-0.2-0.9-0.3-2-0.3-3.3c0-1.3,0.1-2.5,0.3-3.6
			c0.2-1,0.6-1.9,1-2.6s1-1.2,1.6-1.6c0.6-0.4,1.4-0.5,2.2-0.5C143.7,90.4,145.4,93,145.4,98.3z M143.6,98.5c0-4.4-1-6.6-3.1-6.6
			c-2.2,0-3.3,2.2-3.3,6.7c0,4.2,1.1,6.2,3.2,6.2C142.5,104.8,143.6,102.7,143.6,98.5z"/>
		<path class="st0" d="M157.2,98.3c0,1.3-0.1,2.4-0.3,3.4c-0.2,1-0.6,1.8-1,2.5c-0.4,0.7-1,1.2-1.6,1.6c-0.6,0.4-1.4,0.5-2.2,0.5
			c-0.8,0-1.5-0.2-2.1-0.5c-0.6-0.3-1.1-0.8-1.5-1.5c-0.4-0.7-0.7-1.5-0.9-2.4c-0.2-0.9-0.3-2-0.3-3.3c0-1.3,0.1-2.5,0.3-3.6
			c0.2-1,0.6-1.9,1-2.6s1-1.2,1.6-1.6c0.6-0.4,1.4-0.5,2.2-0.5C155.6,90.4,157.2,93,157.2,98.3z M155.4,98.5c0-4.4-1-6.6-3.1-6.6
			c-2.2,0-3.3,2.2-3.3,6.7c0,4.2,1.1,6.2,3.2,6.2C154.4,104.8,155.4,102.7,155.4,98.5z"/>
		<path class="st0" d="M164.6,100.6h-5.9v-1.4h5.9V100.6z"/>
		<path class="st0" d="M171.4,106.1h-1.8V92.8c-0.1,0.1-0.3,0.3-0.6,0.5c-0.3,0.2-0.6,0.3-0.9,0.5c-0.3,0.2-0.7,0.3-1,0.5
			c-0.4,0.2-0.7,0.3-1.1,0.4v-1.8c0.4-0.1,0.8-0.3,1.2-0.4c0.4-0.2,0.9-0.4,1.3-0.6c0.4-0.2,0.8-0.5,1.2-0.7s0.7-0.5,1-0.7h0.7
			V106.1z"/>
		<path class="st0" d="M107.1,113.7c0-0.5-0.1-0.9-0.2-1.2c-0.1-0.4-0.3-0.6-0.6-0.9c-0.3-0.2-0.6-0.4-0.9-0.5
			c-0.3-0.1-0.7-0.2-1.1-0.2c-0.3,0-0.7,0-1,0.1c-0.3,0.1-0.7,0.2-1,0.4c-0.3,0.2-0.6,0.4-0.9,0.6c-0.3,0.2-0.6,0.5-0.8,0.8v-1.9
			c0.5-0.5,1-0.8,1.7-1.1c0.6-0.3,1.4-0.4,2.2-0.4c0.6,0,1.2,0.1,1.8,0.3s1,0.4,1.4,0.8c0.4,0.4,0.7,0.8,0.9,1.3
			c0.2,0.5,0.3,1.1,0.3,1.8c0,0.6-0.1,1.2-0.2,1.7c-0.1,0.5-0.4,1-0.6,1.4c-0.3,0.4-0.6,0.9-1.1,1.3c-0.4,0.4-0.9,0.8-1.5,1.2
			c-0.7,0.5-1.3,1-1.8,1.3c-0.5,0.4-0.8,0.7-1.1,1c-0.3,0.3-0.5,0.6-0.6,1c-0.1,0.3-0.2,0.7-0.2,1.1h7.7v1.6H100v-0.8
			c0-0.7,0.1-1.2,0.2-1.7c0.1-0.5,0.4-1,0.7-1.4s0.8-0.9,1.3-1.4c0.5-0.5,1.2-1,2-1.5c0.6-0.4,1-0.8,1.4-1.1
			c0.4-0.4,0.7-0.7,0.9-1.1s0.4-0.7,0.5-1.1C107.1,114.5,107.1,114.1,107.1,113.7z"/>
		<path class="st0" d="M121.5,110.7c-0.2,0.4-0.5,0.9-0.9,1.5c-0.3,0.6-0.7,1.3-1.1,2.1c-0.4,0.8-0.8,1.6-1.1,2.4
			c-0.4,0.9-0.7,1.8-1.1,2.7c-0.3,0.9-0.6,1.9-0.9,2.8c-0.3,1-0.4,1.9-0.6,2.8h-1.9c0.1-0.9,0.3-1.9,0.6-2.8c0.3-1,0.6-1.9,0.9-2.8
			c0.3-0.9,0.7-1.8,1.1-2.7c0.4-0.9,0.7-1.6,1.1-2.4c0.4-0.7,0.7-1.3,1-1.9c0.3-0.5,0.5-1,0.7-1.3h-7.7v-1.6h9.8V110.7z"/>
		<path class="st0" d="M133.5,117.3c0,1.3-0.1,2.4-0.3,3.4c-0.2,1-0.6,1.8-1,2.5c-0.4,0.7-1,1.2-1.6,1.6c-0.6,0.4-1.4,0.5-2.2,0.5
			c-0.8,0-1.5-0.2-2.1-0.5c-0.6-0.3-1.1-0.8-1.5-1.5c-0.4-0.7-0.7-1.5-0.9-2.4c-0.2-0.9-0.3-2-0.3-3.3c0-1.3,0.1-2.5,0.3-3.6
			c0.2-1,0.6-1.9,1-2.6s1-1.2,1.6-1.6c0.6-0.4,1.4-0.5,2.2-0.5C131.9,109.4,133.5,112,133.5,117.3z M131.7,117.5
			c0-4.4-1-6.6-3.1-6.6c-2.2,0-3.3,2.2-3.3,6.7c0,4.2,1.1,6.2,3.2,6.2C130.6,123.8,131.7,121.7,131.7,117.5z"/>
		<path class="st0" d="M145.4,117.3c0,1.3-0.1,2.4-0.3,3.4c-0.2,1-0.6,1.8-1,2.5c-0.4,0.7-1,1.2-1.6,1.6c-0.6,0.4-1.4,0.5-2.2,0.5
			c-0.8,0-1.5-0.2-2.1-0.5c-0.6-0.3-1.1-0.8-1.5-1.5c-0.4-0.7-0.7-1.5-0.9-2.4c-0.2-0.9-0.3-2-0.3-3.3c0-1.3,0.1-2.5,0.3-3.6
			c0.2-1,0.6-1.9,1-2.6s1-1.2,1.6-1.6c0.6-0.4,1.4-0.5,2.2-0.5C143.7,109.4,145.4,112,145.4,117.3z M143.6,117.5
			c0-4.4-1-6.6-3.1-6.6c-2.2,0-3.3,2.2-3.3,6.7c0,4.2,1.1,6.2,3.2,6.2C142.5,123.8,143.6,121.7,143.6,117.5z"/>
		<path class="st0" d="M154,125.1h-1.8v-13.3c-0.1,0.1-0.3,0.3-0.6,0.5c-0.3,0.2-0.6,0.3-0.9,0.5c-0.3,0.2-0.7,0.3-1,0.5
			c-0.4,0.2-0.7,0.3-1.1,0.4v-1.8c0.4-0.1,0.8-0.3,1.2-0.4c0.4-0.2,0.9-0.4,1.3-0.6c0.4-0.2,0.8-0.5,1.2-0.7s0.7-0.5,1-0.7h0.7
			V125.1z"/>
		<path class="st0" d="M109.1,139.7c0,0.7-0.1,1.3-0.4,1.9c-0.3,0.6-0.6,1.1-1.1,1.5c-0.5,0.4-1,0.7-1.7,0.9s-1.4,0.3-2.2,0.3
			c-1.5,0-2.6-0.3-3.5-0.8v-1.9c1,0.8,2.2,1.2,3.6,1.2c0.5,0,1-0.1,1.5-0.2c0.4-0.1,0.8-0.3,1.1-0.6c0.3-0.3,0.6-0.6,0.7-0.9
			c0.2-0.4,0.3-0.8,0.3-1.2c0-2-1.4-3-4.3-3h-1.3v-1.5h1.2c2.5,0,3.8-0.9,3.8-2.8c0-1.7-1-2.6-2.9-2.6c-1.1,0-2.1,0.4-3.1,1.1v-1.7
			c1-0.6,2.1-0.9,3.5-0.9c0.6,0,1.2,0.1,1.8,0.3c0.5,0.2,1,0.4,1.3,0.8s0.7,0.7,0.9,1.2c0.2,0.5,0.3,0.9,0.3,1.5c0,2-1,3.3-3.1,3.9
			v0c0.5,0.1,1,0.2,1.5,0.4c0.4,0.2,0.8,0.5,1.1,0.8c0.3,0.3,0.6,0.7,0.8,1.1C109,138.7,109.1,139.2,109.1,139.7z"/>
		<path class="st0" d="M121.5,129.7c-0.2,0.4-0.5,0.9-0.9,1.5c-0.3,0.6-0.7,1.3-1.1,2.1c-0.4,0.8-0.8,1.6-1.1,2.4
			c-0.4,0.9-0.7,1.8-1.1,2.7c-0.3,0.9-0.6,1.9-0.9,2.8c-0.3,1-0.4,1.9-0.6,2.8h-1.9c0.1-0.9,0.3-1.9,0.6-2.8c0.3-1,0.6-1.9,0.9-2.8
			c0.3-0.9,0.7-1.8,1.1-2.7c0.4-0.9,0.7-1.6,1.1-2.4c0.4-0.7,0.7-1.3,1-1.9c0.3-0.5,0.5-1,0.7-1.3h-7.7v-1.6h9.8V129.7z"/>
		<path class="st0" d="M133.5,136.3c0,1.3-0.1,2.4-0.3,3.4c-0.2,1-0.6,1.8-1,2.5c-0.4,0.7-1,1.2-1.6,1.6c-0.6,0.4-1.4,0.5-2.2,0.5
			c-0.8,0-1.5-0.2-2.1-0.5c-0.6-0.3-1.1-0.8-1.5-1.5c-0.4-0.7-0.7-1.5-0.9-2.4c-0.2-0.9-0.3-2-0.3-3.3c0-1.3,0.1-2.5,0.3-3.6
			c0.2-1,0.6-1.9,1-2.6s1-1.2,1.6-1.6c0.6-0.4,1.4-0.5,2.2-0.5C131.9,128.4,133.5,131,133.5,136.3z M131.7,136.5
			c0-4.4-1-6.6-3.1-6.6c-2.2,0-3.3,2.2-3.3,6.7c0,4.2,1.1,6.2,3.2,6.2C130.6,142.8,131.7,140.7,131.7,136.5z"/>
		<path class="st0" d="M145.4,136.3c0,1.3-0.1,2.4-0.3,3.4c-0.2,1-0.6,1.8-1,2.5c-0.4,0.7-1,1.2-1.6,1.6c-0.6,0.4-1.4,0.5-2.2,0.5
			c-0.8,0-1.5-0.2-2.1-0.5c-0.6-0.3-1.1-0.8-1.5-1.5c-0.4-0.7-0.7-1.5-0.9-2.4c-0.2-0.9-0.3-2-0.3-3.3c0-1.3,0.1-2.5,0.3-3.6
			c0.2-1,0.6-1.9,1-2.6s1-1.2,1.6-1.6c0.6-0.4,1.4-0.5,2.2-0.5C143.7,128.4,145.4,131,145.4,136.3z M143.6,136.5
			c0-4.4-1-6.6-3.1-6.6c-2.2,0-3.3,2.2-3.3,6.7c0,4.2,1.1,6.2,3.2,6.2C142.5,142.8,143.6,140.7,143.6,136.5z"/>
		<path class="st0" d="M154,144.1h-1.8v-13.3c-0.1,0.1-0.3,0.3-0.6,0.5c-0.3,0.2-0.6,0.3-0.9,0.5c-0.3,0.2-0.7,0.3-1,0.5
			c-0.4,0.2-0.7,0.3-1.1,0.4v-1.8c0.4-0.1,0.8-0.3,1.2-0.4c0.4-0.2,0.9-0.4,1.3-0.6c0.4-0.2,0.8-0.5,1.2-0.7s0.7-0.5,1-0.7h0.7
			V144.1z"/>
	</g>
	<g>
		<g>
			<path class="st1" d="M115.2,187.2c-12.8,0-25.8-3-38-9.2c-19.8-10.2-34.4-27.5-41.2-48.7s-4.9-43.8,5.3-63.5
				C51.5,46,68.8,31.4,90,24.6c21.2-6.8,43.7-4.9,63.5,5.3c40.8,21,56.9,71.4,35.9,112.2C174.6,170.7,145.4,187.2,115.2,187.2z
				 M115.5,25.7c-8,0-16,1.2-23.9,3.8c-19.9,6.4-36.1,20.1-45.7,38.6s-11.3,39.7-5,59.6c6.4,19.9,20.1,36.1,38.6,45.7
				c38.3,19.8,85.6,4.6,105.3-33.7c19.8-38.3,4.6-85.6-33.7-105.3C140,28.6,127.8,25.7,115.5,25.7z"/>
		</g>
		<g>
			<path class="st2" d="M107.4,200.4c-12.8,0-25.8-3-38-9.2C49.6,181,35,163.7,28.2,142.5S23.3,98.8,33.5,79
				C43.7,59.2,61,44.6,82.2,37.8c21.2-6.8,43.7-4.9,63.5,5.3c40.8,21,56.9,71.4,35.9,112.2C166.8,184,137.6,200.4,107.4,200.4z
				 M107.6,38.9c-8,0-16,1.2-23.9,3.8c-19.9,6.4-36.1,20.1-45.7,38.6s-11.3,39.7-5,59.6c6.4,19.9,20.1,36.1,38.6,45.7
				c38.3,19.8,85.6,4.6,105.3-33.7c19.8-38.3,4.6-85.6-33.7-105.3C132.1,41.9,119.9,38.9,107.6,38.9z"/>
		</g>
		<g>
			<path class="st3" d="M99.5,186.8c-13.1,0-26.1-3.1-38.1-9.3c-40.8-21-56.9-71.4-35.9-112.2c21-40.8,71.4-56.9,112.2-35.9
				c19.8,10.2,34.4,27.5,41.2,48.7c6.8,21.2,4.9,43.7-5.3,63.5c-10.2,19.8-27.5,34.4-48.7,41.2C116.6,185.5,108,186.8,99.5,186.8z
				 M99.7,25.3c-28.4,0-55.8,15.5-69.6,42.3C10.3,106,25.4,153.2,63.7,173c18.6,9.6,39.7,11.3,59.6,5c19.9-6.4,36.1-20.1,45.7-38.6
				s11.3-39.7,5-59.6c-6.4-19.9-20.1-36.1-38.6-45.7C123.9,28.1,111.7,25.3,99.7,25.3z"/>
		</g>
	</g>
	<g>
		<g>
			<polygon class="st0" points="72.4,151.6 78.6,151.6 79.2,149 69.6,149 66.5,162.8 76.1,162.8 76.7,160.1 70.5,160.1 71.3,156.7 
				77,156.7 77.6,154 71.9,154 			"/>
			<path class="st0" d="M85,152.1c-1.7,0-3.1,0.3-4.1,1c-1,0.7-1.5,1.6-1.5,2.8c0,0.7,0.2,1.3,0.8,1.7c0.5,0.5,1.4,0.9,2.8,1.2
				c0.8,0.2,1.3,0.4,1.6,0.5c0.3,0.1,0.4,0.3,0.4,0.6c0,0.3-0.2,0.6-0.5,0.7c-0.4,0.2-0.9,0.3-1.6,0.3c-0.5,0-0.9-0.1-1.3-0.2
				c-0.4-0.1-0.8-0.2-1.1-0.4c-0.4-0.2-0.7-0.3-0.9-0.4c-0.2-0.1-0.4-0.3-0.5-0.4h-0.3l-0.6,2.7c0.4,0.2,1,0.4,1.8,0.6
				c0.8,0.2,1.6,0.3,2.5,0.3c1.7,0,3.1-0.3,4.1-1c1-0.7,1.5-1.6,1.5-2.8c0-0.8-0.3-1.4-0.8-1.8c-0.6-0.4-1.5-0.8-2.7-1.1
				c-0.7-0.2-1.2-0.3-1.5-0.4c-0.3-0.1-0.5-0.4-0.5-0.6c0-0.4,0.2-0.6,0.5-0.8c0.4-0.2,0.9-0.3,1.6-0.3c0.6,0,1.2,0.1,1.8,0.3
				c0.6,0.2,1.1,0.5,1.5,0.8h0.3l0.6-2.6c-0.3-0.2-0.9-0.3-1.6-0.5C86.5,152.1,85.8,152.1,85,152.1z"/>
			<path class="st0" d="M95.1,160.7c-0.3,0.1-0.5,0.1-0.7,0.1c-0.4,0-0.7-0.1-0.9-0.2c-0.2-0.1-0.3-0.4-0.3-0.8c0-0.2,0-0.4,0.1-0.7
				c0.1-0.3,0.1-0.5,0.2-0.8l0.8-3.8h3l0.5-2.2h-3l0.7-3h-3.2l-0.7,3h-1.3l-0.5,2.2h1.3l-1.1,4.9c0,0.2-0.1,0.5-0.1,0.6
				c0,0.2,0,0.4,0,0.6c0,0.7,0.2,1.3,0.7,1.7c0.5,0.4,1.3,0.6,2.4,0.6c0.6,0,1,0,1.4-0.1c0.4-0.1,0.8-0.1,1.1-0.2l0.5-2.2h-0.3
				C95.6,160.5,95.3,160.6,95.1,160.7z"/>
			<path class="st0" d="M106.7,152.4c-0.1,0-0.2,0-0.4,0c-0.1,0-0.3,0-0.4,0c-0.6,0-1.2,0.1-1.8,0.4c-0.6,0.3-1.2,0.7-1.8,1.1
				l0.3-1.5h-3.2l-2.3,10.4h3.2l1.6-7c0.4-0.1,0.8-0.2,1.2-0.3c0.4-0.1,0.8-0.1,1.2-0.1c0.3,0,0.5,0,0.8,0c0.3,0,0.5,0.1,0.6,0.1
				h0.3L106.7,152.4z"/>
			<path class="st0" d="M115.7,152.7c-0.7-0.4-1.9-0.6-3.4-0.6c-0.8,0-1.6,0.1-2.3,0.2c-0.8,0.1-1.4,0.2-1.7,0.3l-0.5,2.5h0.3
				c0.3-0.1,0.8-0.3,1.4-0.5c0.6-0.2,1.2-0.3,1.7-0.3c0.8,0,1.4,0.1,1.7,0.3c0.4,0.2,0.6,0.5,0.6,0.9c0,0.1,0,0.2,0,0.3
				c0,0.1,0,0.1,0,0.2c-1.1,0.1-2.1,0.2-3.1,0.3c-0.9,0.1-1.8,0.4-2.5,0.7c-0.7,0.3-1.3,0.8-1.7,1.4c-0.4,0.6-0.6,1.3-0.6,2.1
				c0,0.8,0.3,1.4,0.8,1.9c0.5,0.5,1.2,0.7,2,0.7c0.5,0,0.9,0,1.2-0.1c0.3-0.1,0.6-0.2,0.9-0.3c0.2-0.1,0.5-0.3,0.8-0.5
				c0.3-0.2,0.5-0.4,0.7-0.5l-0.2,1.1h3.2l1.6-7.1c0-0.2,0.1-0.3,0.1-0.5c0-0.2,0-0.4,0-0.5C116.8,153.8,116.4,153.1,115.7,152.7z
				 M112.5,160.1c-0.3,0.2-0.7,0.4-1,0.6c-0.4,0.2-0.7,0.2-1,0.2c-0.5,0-0.9-0.1-1.1-0.2c-0.3-0.1-0.4-0.4-0.4-0.8
				c0-0.4,0.1-0.7,0.3-1c0.2-0.2,0.5-0.4,0.8-0.6c0.3-0.1,0.8-0.2,1.3-0.3c0.5-0.1,1-0.1,1.6-0.2L112.5,160.1z"/>
			<path class="st0" d="M122.1,158.3l0.8-3.8h3l0.5-2.2h-3l0.7-3h-3.2l-0.7,3h-1.3l-0.5,2.2h1.3l-1.1,4.9c0,0.2-0.1,0.5-0.1,0.6
				c0,0.2,0,0.4,0,0.6c0,0.7,0.2,1.3,0.7,1.7c0.5,0.4,1.3,0.6,2.4,0.6c0.6,0,1,0,1.4-0.1c0.4-0.1,0.8-0.1,1.1-0.2l0.5-2.2h-0.3
				c-0.2,0.1-0.4,0.2-0.6,0.2c-0.3,0.1-0.5,0.1-0.7,0.1c-0.4,0-0.7-0.1-0.9-0.2c-0.2-0.1-0.3-0.4-0.3-0.8c0-0.2,0-0.4,0.1-0.7
				C122,158.8,122.1,158.6,122.1,158.3z"/>
			<path class="st0" d="M132.6,152c-1,0-1.9,0.2-2.7,0.5c-0.8,0.3-1.5,0.8-2,1.4c-0.6,0.6-1,1.3-1.3,2.1c-0.3,0.8-0.5,1.7-0.5,2.6
				c0,1.4,0.5,2.5,1.4,3.3c0.9,0.8,2.2,1.2,3.9,1.2c0.8,0,1.5-0.1,2.2-0.2c0.7-0.1,1.3-0.4,2-0.6l0.6-2.7h-0.4
				c-0.5,0.3-1,0.6-1.6,0.8c-0.6,0.2-1.3,0.4-2,0.4c-1,0-1.7-0.2-2.2-0.6c-0.5-0.4-0.7-1-0.7-1.7c0,0,0-0.1,0-0.1c0,0,0-0.1,0-0.1
				h7.4c0.1-0.4,0.2-0.8,0.3-1.2c0.1-0.4,0.1-0.8,0.1-1.2c0-1.2-0.4-2.2-1.1-2.8C135.2,152.3,134.1,152,132.6,152z M133.9,155.9
				c0,0.1,0,0.2,0,0.3h-4.3c0.2-0.7,0.6-1.2,1-1.6c0.4-0.4,1-0.6,1.7-0.6c0.5,0,1,0.1,1.3,0.4c0.3,0.3,0.4,0.6,0.4,1.1
				C133.9,155.7,133.9,155.8,133.9,155.9z"/>
			<path class="st0" d="M146.7,152.3c-0.6-0.1-1.2-0.2-1.8-0.2c-1,0-2,0.2-2.8,0.5c-0.9,0.3-1.6,0.8-2.2,1.4
				c-0.6,0.6-1.1,1.3-1.4,2.1c-0.3,0.8-0.5,1.7-0.5,2.6c0,0.7,0.1,1.4,0.4,1.9c0.2,0.6,0.6,1,1,1.4c0.4,0.4,1,0.6,1.6,0.8
				c0.6,0.2,1.2,0.3,1.9,0.3c0.8,0,1.4-0.1,1.9-0.2c0.5-0.1,1-0.3,1.7-0.6l0.7-2.8h-0.5c-0.4,0.3-0.8,0.6-1.3,0.9
				c-0.5,0.3-1.1,0.4-1.7,0.4c-0.8,0-1.4-0.2-1.8-0.6c-0.4-0.4-0.6-1-0.6-1.7c0-1.1,0.3-2,0.9-2.8c0.6-0.7,1.4-1.1,2.4-1.1
				c0.5,0,1,0.1,1.5,0.3c0.4,0.2,0.8,0.5,1.2,1h0.5l0.7-2.8C147.9,152.6,147.3,152.4,146.7,152.3z"/>
		</g>
	</g>
</g>
</svg>
