<?xml version="1.0" encoding="utf-8"?>
<!-- Generator: Adobe Illustrator 24.1.1, SVG Export Plug-In . SVG Version: 6.00 Build 0)  -->
<svg version="1.1" id="Capa_1" xmlns="http://www.w3.org/2000/svg" xmlns:xlink="http://www.w3.org/1999/xlink" x="0px" y="0px"
	 viewBox="0 0 500 500" style="enable-background:new 0 0 500 500;" xml:space="preserve">
<style type="text/css">
	.st0{opacity:0.5;fill:#FFFFFF;enable-background:new    ;}
	.st1{fill:#FFFFFF;}
	.st2{opacity:0.5;}
</style>
<g>
	<path class="st0" d="M293.2,313.3l-1.5-0.3l37.3-38.7c-22,8.7-60.9,29.1-102.4,31.9c-36.9,2.5-62-6.6-73.9-14.4
		c3.1,7.2,14.3,23.9,18.6,28.3c5.4,5.7,24.3,27.8,83.6,25c17.1-0.8,28.8-2.5,37.7-4.7l7.8-7.2c-2.7-0.4-5.4-0.9-8-1.5l-1.5-0.4
		l6.8-6.2c-1.8-0.1-3.5-0.2-5.2-0.5l-1.7-0.2l10.2-10.2L293.2,313.3z"/>
	<path class="st0" d="M138.2,129.2c38.9-28.3,88.4-63.7,162.7-60.2c19.6,0.9,34.5,4.4,45.9,8.9c-13.6-17.4-38.5-35.4-77.7-37.2
		C194.8,33.6,145.3,61.9,110,93.8c-38.9,28.3-84.9,92.1-70.7,166.4c9,37.8,27.1,60,44.2,73.7c-4.9-9.8-9.1-21.3-12.3-34.7
		C53.4,224.8,102.9,157.5,138.2,129.2z"/>
	<g>
		<path class="st1" d="M159,303c0.8,1.3,1.7,2.6,2.6,4C160.7,305.7,159.8,304.4,159,303z"/>
		<path class="st1" d="M156.2,298.5c0.1,0.2,0.2,0.4,0.3,0.6C156.4,298.8,156.3,298.7,156.2,298.5z"/>
		<path class="st1" d="M156.6,299c0.6,1.1,1.3,2.2,2,3.3C157.9,301.2,157.2,300.1,156.6,299z"/>
		<path class="st1" d="M158.6,302.3c0.1,0.2,0.3,0.5,0.4,0.7C158.9,302.8,158.7,302.6,158.6,302.3z"/>
		<path class="st1" d="M83.4,333.9c-1.7-1.4-3.5-2.9-5.3-4.5v65.4h70.7C140.2,389,105.4,378.4,83.4,333.9z"/>
		<path class="st1" d="M150,198.8h0.2c2.3-0.5,45.4-9.9,76.4-27.1c31.1-17.3,36.3-53.4,36.5-55v-0.1c0,0-35.8,0.7-68.3,23.3
			C158.1,165.4,150,198.8,150,198.8z"/>
		<path class="st1" d="M110,93.8c18.5-16.7,40.9-32.3,68.7-42.5H78.1v72.9C88.4,111.8,99.4,101.5,110,93.8z"/>
		<path class="st1" d="M55.6,426.7c1.3-1.7,2.9-3,4.7-3.9c1.8-1,3.9-1.5,6.2-1.5c2.2,0,4.3,0.4,6.2,1.2c1.9,0.8,3.8,2.2,5.9,4.3h1.1
			l2.2-9.5c-2.6-1.4-5.1-2.3-7.5-2.9c-2.4-0.5-5-0.7-7.8-0.7c-7.4,0-13.5,2.5-18.4,7.4c-4.8,4.9-7.2,11.3-7.2,19.1
			c0,5,1.6,8.9,4.7,11.6c3.1,2.7,7.4,4.1,13,4.1c2.8,0,5.5-0.3,8.1-1c2.6-0.6,5.1-1.4,7.4-2.2l4.4-20H60.8l-1.7,7.7h7.8l-1.8,7.9
			c-0.4,0-0.8,0.1-1.3,0.1c-0.5,0-0.9,0-1.3,0c-3.9,0-6.6-0.8-8.3-2.3s-2.6-3.9-2.6-7.2c0-2.3,0.4-4.6,1-6.7
			C53.4,430.1,54.4,428.2,55.6,426.7z"/>
		<path class="st1" d="M108.6,424.4c-0.4,0-0.8,0-1.1,0c-1.8,0-3.6,0.4-5.3,1.3c-1.8,0.8-3.5,2-5.3,3.3l1-4.5h-9.5l-6.8,30.6h9.5
			l4.6-20.5c1.2-0.4,2.4-0.7,3.5-0.9c1.2-0.2,2.3-0.3,3.6-0.3c0.7,0,1.5,0,2.3,0.1s1.4,0.2,1.8,0.3h0.8l2.1-9.3
			C109.4,424.4,109,424.4,108.6,424.4z"/>
		<path class="st1" d="M134,424.5l-4.8,21.7c-1.2,0.7-2.2,1.2-3.2,1.5s-1.9,0.5-2.7,0.5c-1.5,0-2.6-0.3-3.2-0.8s-0.8-1.4-0.8-2.6
			c0-0.6,0.1-1.3,0.2-2.1c0.1-0.8,0.3-1.8,0.6-3l3.4-15.2H114l-4.4,19.9c-0.2,0.7-0.3,1.4-0.3,1.9c-0.1,0.6-0.1,1.2-0.1,1.9
			c0,2.5,0.7,4.4,2.2,5.7c1.5,1.3,3.5,1.9,6.1,1.9c0.8,0,1.6-0.1,2.5-0.2c0.8-0.2,1.8-0.4,2.8-0.9c0.8-0.3,1.7-0.8,2.5-1.3
			c0.9-0.5,1.8-1.2,2.8-1.8l-0.8,3.4h9.5l6.8-30.6H134V424.5z"/>
		<path class="st1" d="M170.1,423.6c-1.8,0-3.5,0.4-5,1.1s-3.1,1.7-4.9,3l0.7-3.2h-9.5l-9.3,41.8h9.5l2.8-12.8
			c1.1,0.7,2.2,1.2,3.6,1.6c1.3,0.4,2.8,0.6,4.3,0.6c2.5,0,4.7-0.6,6.7-1.7s3.8-2.7,5.4-4.7c1.5-1.9,2.7-4.2,3.6-6.8
			c0.9-2.6,1.3-5.4,1.3-8.2c0-3.3-0.8-5.9-2.4-7.8C175.4,424.6,173.1,423.6,170.1,423.6z M168.8,441c-0.4,1.5-1,2.9-1.7,4
			c-0.7,1.2-1.7,2.1-2.9,2.8c-1.2,0.7-2.6,1.1-4.2,1.1c-0.8,0-1.5-0.1-2.3-0.2c-0.7-0.1-1.4-0.3-1.9-0.6l3.4-15.4
			c1-0.5,1.9-1,2.8-1.3c0.9-0.3,1.8-0.5,2.7-0.5c1.8,0,3,0.4,3.7,1.3s1,2.1,1,3.8C169.4,437.8,169.2,439.4,168.8,441z"/>
		<path class="st1" d="M201.5,423.5c-3,0-5.7,0.5-8.1,1.6c-2.4,1.1-4.4,2.5-6.1,4.3c-1.7,1.9-3,4-3.9,6.5s-1.3,5-1.3,7.8
			c0,3.9,1.2,6.9,3.5,9.1s5.7,3.3,10.1,3.3c3.1,0,5.7-0.5,8-1.5s4.3-2.4,6.1-4.3c1.7-1.8,3-4,3.9-6.5s1.4-5.2,1.4-8.1
			c0-3.8-1.2-6.8-3.5-8.9C209.3,424.6,205.9,423.5,201.5,423.5z M204.7,441.5c-0.4,1.5-1,2.9-1.8,4.2c-0.7,1.1-1.6,2-2.7,2.7
			c-1,0.6-2.1,1-3.3,1c-1.5,0-2.8-0.5-3.7-1.3c-0.9-0.9-1.3-2.4-1.3-4.5c0-1.8,0.2-3.5,0.6-5.2c0.4-1.7,1-3.1,1.7-4.2
			c0.8-1.2,1.6-2.2,2.7-2.9c1-0.7,2.2-1,3.5-1c1.7,0,3,0.5,3.7,1.5c0.8,1,1.2,2.5,1.2,4.3C205.3,438.2,205.1,440,204.7,441.5z"/>
		<polygon class="st1" points="252.4,422.2 270.6,422.2 272.3,414.5 244.1,414.5 235.1,455.1 263.3,455.1 264.9,447.4 246.8,447.4 
			249.1,437.2 265.9,437.2 267.6,429.4 250.8,429.4 		"/>
		<path class="st1" d="M289.3,423.6c-5,0-9,1-12,3s-4.4,4.7-4.4,8.2c0,2,0.7,3.7,2.2,5.1s4.2,2.5,8.2,3.5c2.4,0.6,3.9,1,4.7,1.4
			c0.7,0.4,1.1,0.9,1.1,1.7c0,0.9-0.5,1.7-1.6,2.2c-1,0.5-2.6,0.8-4.7,0.8c-1.4,0-2.7-0.1-3.9-0.4c-1.2-0.3-2.3-0.7-3.2-1.1
			c-1.1-0.5-1.9-0.9-2.5-1.3s-1.1-0.8-1.5-1.1h-0.9l-1.8,8.1c1.3,0.7,3,1.2,5.4,1.7s4.8,0.7,7.3,0.7c5.1,0,9.2-1,12.1-3
			c3-2,4.5-4.7,4.5-8.1c0-2.3-0.8-4.1-2.4-5.3c-1.6-1.3-4.3-2.3-8-3.2c-2-0.5-3.4-0.9-4.4-1.3c-0.9-0.4-1.4-1-1.4-1.8
			c0-1,0.5-1.8,1.6-2.3s2.6-0.8,4.6-0.8c1.9,0,3.6,0.3,5.4,0.9s3.2,1.4,4.5,2.4h0.8l1.7-7.7c-1-0.5-2.6-1-4.8-1.5
			C293.7,423.9,291.5,423.6,289.3,423.6z"/>
		<path class="st1" d="M318.9,448.9c-0.8,0.2-1.4,0.3-1.9,0.3c-1.2,0-2.1-0.2-2.7-0.6s-0.9-1.2-0.9-2.3c0-0.5,0.1-1.2,0.2-2
			c0.2-0.8,0.3-1.5,0.5-2.3l2.5-11h8.8l1.4-6.5H318l1.9-8.7h-9.4l-1.9,8.7h-3.9l-1.4,6.5h3.9l-3.2,14.5c-0.1,0.7-0.2,1.4-0.3,1.9
			c-0.1,0.5-0.1,1.1-0.1,1.7c0,2.2,0.7,3.9,2.1,5s3.7,1.7,7,1.7c1.6,0,3-0.1,4.2-0.2c1.2-0.2,2.3-0.4,3.4-0.7l1.5-6.6H321
			C320.3,448.5,319.7,448.7,318.9,448.9z"/>
		<path class="st1" d="M352.9,424.5c-0.3,0-0.7-0.1-1.1-0.1s-0.8,0-1.1,0c-1.8,0-3.6,0.4-5.3,1.3c-1.8,0.8-3.5,2-5.3,3.3l1-4.5h-9.5
			l-6.8,30.6h9.5l4.6-20.5c1.2-0.4,2.4-0.7,3.5-0.9c1.2-0.2,2.3-0.3,3.6-0.3c0.7,0,1.5,0,2.3,0.1s1.4,0.2,1.8,0.3h0.8L352.9,424.5z"
			/>
		<path class="st1" d="M379.4,425.5c-2.2-1.3-5.5-1.9-10.1-1.9c-2.3,0-4.6,0.2-6.9,0.5c-2.3,0.4-4,0.7-5.1,1l-1.4,7.2h0.9
			c0.9-0.4,2.3-0.8,4.2-1.4c1.9-0.5,3.6-0.8,5.1-0.8c2.3,0,4,0.3,5.1,0.8c1.2,0.5,1.7,1.4,1.7,2.7c0,0.3,0,0.6-0.1,0.8
			c-0.1,0.2-0.1,0.4-0.1,0.5c-3.3,0.2-6.3,0.5-9.1,0.9c-2.8,0.4-5.2,1.1-7.2,2c-2.2,1-3.8,2.3-4.9,4s-1.6,3.7-1.6,6.2
			c0,2.3,0.8,4.2,2.3,5.6s3.5,2.1,6,2.1c1.5,0,2.7-0.1,3.6-0.3c0.9-0.2,1.8-0.5,2.7-1c0.7-0.3,1.5-0.8,2.3-1.3
			c0.8-0.6,1.6-1,2.1-1.4l-0.7,3.2h9.4l4.6-20.8c0.1-0.4,0.2-0.9,0.2-1.5c0.1-0.6,0.1-1.1,0.1-1.4
			C382.6,428.7,381.6,426.7,379.4,425.5z M370.1,447.1c-0.9,0.7-1.9,1.3-3,1.7c-1,0.4-2,0.7-3,0.7c-1.4,0-2.5-0.2-3.2-0.6
			s-1.1-1.2-1.1-2.2c0-1.2,0.3-2.2,0.8-2.9c0.6-0.7,1.4-1.3,2.4-1.7c1-0.4,2.3-0.7,3.8-0.9c1.5-0.2,3-0.4,4.7-0.5L370.1,447.1z"/>
		<path class="st1" d="M398.4,442l2.5-11h8.8l1.4-6.5h-8.8l1.9-8.7h-9.4l-1.9,8.7H389l-1.4,6.5h3.9l-3.2,14.5
			c-0.1,0.7-0.2,1.4-0.3,1.9c-0.1,0.5-0.1,1.1-0.1,1.7c0,2.2,0.7,3.9,2.1,5s3.7,1.7,7,1.7c1.6,0,3-0.1,4.2-0.2
			c1.2-0.2,2.3-0.4,3.4-0.7l1.5-6.6H405c-0.5,0.2-1.1,0.5-1.9,0.6c-0.8,0.2-1.4,0.3-1.9,0.3c-1.2,0-2.1-0.2-2.7-0.6
			s-0.9-1.2-0.9-2.3c0-0.5,0.1-1.2,0.2-2C398,443.5,398.2,442.7,398.4,442z"/>
		<path class="st1" d="M429,423.5c-2.9,0-5.5,0.5-7.9,1.5s-4.4,2.4-6,4.1c-1.7,1.8-3,3.8-3.8,6.1c-0.9,2.3-1.3,4.9-1.3,7.7
			c0,4.1,1.4,7.3,4.1,9.6c2.7,2.3,6.6,3.5,11.6,3.5c2.3,0,4.4-0.2,6.4-0.6s3.9-1.1,5.8-1.9l1.8-7.9h-1c-1.4,0.9-3,1.7-4.8,2.4
			c-1.8,0.7-3.8,1.1-5.9,1.1c-2.9,0-5.1-0.6-6.6-1.8c-1.4-1.2-2.1-2.9-2.1-5c0-0.1,0-0.2,0-0.3c0-0.1,0-0.2,0-0.3H441
			c0.4-1.2,0.7-2.3,0.9-3.5c0.2-1.2,0.3-2.4,0.3-3.6c0-3.6-1.1-6.3-3.3-8.2C436.7,424.4,433.4,423.5,429,423.5z M432.9,435
			c0,0.3-0.1,0.6-0.1,0.9h-12.7c0.7-2,1.7-3.5,3-4.6s3-1.6,4.9-1.6c1.6,0,2.8,0.4,3.7,1.1c0.9,0.8,1.3,1.9,1.3,3.3
			C432.9,434.4,432.9,434.7,432.9,435z"/>
		<path class="st1" d="M470.5,424.3c-1.8-0.4-3.5-0.6-5.3-0.6c-3,0-5.7,0.5-8.3,1.5c-2.6,1-4.7,2.4-6.5,4.1
			c-1.8,1.8-3.2,3.8-4.2,6.2c-1,2.4-1.5,4.9-1.5,7.6c0,2.1,0.4,4,1.1,5.6s1.7,3,3,4c1.3,1.1,2.8,1.9,4.6,2.4
			c1.8,0.5,3.6,0.8,5.6,0.8c2.3,0,4.1-0.2,5.5-0.5c1.4-0.4,3.1-1,4.9-1.8l2-8.4H470c-1.1,0.9-2.3,1.8-3.8,2.6
			c-1.5,0.8-3.2,1.2-5,1.2c-2.3,0-4.1-0.6-5.2-1.7s-1.7-2.8-1.7-5.1c0-3.3,0.9-6,2.7-8.2c1.8-2.2,4.2-3.3,7.1-3.3
			c1.6,0,3.1,0.3,4.4,0.9s2.5,1.6,3.5,2.9h1.3l2-8.4C473.9,425.3,472.3,424.7,470.5,424.3z"/>
		<path class="st1" d="M291.7,313l1.5,0.3c7.6,1.3,15.3,1.9,25,1.9l0,0c4.4,0,8.7-0.1,13.1-0.2s8.9-0.2,13.4-0.2
			c11.2,0,20.3,0.8,29.3,2.4c3.5,0.7,8.2,1.9,13.1,3.1c10.5,2.7,23.6,6.1,33.2,6.1c4.7,0,8.2-0.8,10.8-2.6l26-28.7l-0.2,0.2
			c2.4,0.2,4.7,0.4,7.3,0.8L430,333.8c-2.1,1.4-5.5,2.1-10,2.1c-11.4,0-27.6-4.4-38.3-7.3c-3.1-0.8-5.7-1.6-7.6-2
			c-10.8-2.5-21.1-3.7-32.5-3.7c-5.7,0-11.1,0.3-16.5,0.5c-10.4,0.5-21.1,0.8-30.7-0.2l8.8-8.8c-0.7-0.1-1.4-0.1-2.1-0.2l-10.2,10.2
			l1.7,0.2c1.7,0.2,3.4,0.3,5.2,0.5l-6.8,6.2l1.5,0.4c2.6,0.6,5.2,1.1,8,1.5l-7.8,7.2c-0.1,0-0.1,0-0.1,0h0.1L291,342l1.5,0.4
			c2.6,0.6,5.2,1.1,8,1.5l-9.5,8.7l1.5,0.4c1.8,0.5,3.6,0.8,5.5,1.2l-10.8,9.2l1.8,0.2c8.6,1.1,17,1.3,27,1.3h10.4
			c2.1,0,4.3,0,6.5,0c0.4,0,0.7,0,1.1,0c1.9,0,3.8,0.1,5.8,0.2c0.3,0,0.7,0,1,0c2,0.1,4,0.2,6.1,0.4c0.2,0,0.5,0,0.7,0.1
			c2.2,0.2,4.5,0.4,6.8,0.7h0.1c-9.2,5.9-33,20-60.6,28.3h127.3v-17.7c4.3-0.5,7.7-1.4,10-3l36.6-40.3H466c-2.4,0-4.7,0-7.1,0
			l-1.4,1.6c2.2,0,4.3,0,6.6,0l-34,37.5c-2,1.3-5,2.1-9,2.6c-0.7,0.1-1.5,0.1-2.3,0.2c-1.2,0.1-2.4,0.1-3.8,0.1
			c-14.9,0-33.9-4.2-40.8-6.5c-16.4-5.4-32.6-5.9-47.8-5.9H316c-9.2,0-17.1-0.2-24.9-1.1l9-7.8c0.9,0.1,1.9,0.3,2.9,0.4
			c0.4,0,0.8,0.1,1.2,0.1c0.9,0.1,1.9,0.2,2.9,0.3c0.4,0,0.9,0.1,1.3,0.1c0.8,0.1,1.7,0.1,2.6,0.1c0.7,0,1.3,0.1,1.9,0.1
			c1.6,0.1,3.2,0.1,4.9,0.1c4.5,0,8.9-0.2,13.3-0.3c4.3-0.1,8.5-0.3,12.7-0.3c9,0,19.7,0.6,29.9,5c4.7,1.6,29.3,9.5,45.6,9.5
			c0.7,0,1.2-0.1,1.9-0.1l0,0c4.3-0.2,7.7-1,10-2.6l36.5-43.8H466c-2.5,0-4.9,0.1-7.2,0.1l8.9-10.8H466c-2.5,0-4.9,0.1-7.2,0.1
			l8.9-10.8H466c-1.6,0-3.1,0.1-4.7,0.1l6.3-6.9l-1.5-0.2c-2.7-0.4-5.2-0.8-7.6-1l9.1-10l-1.5-0.2c-8.5-1.4-16-1.5-22.2-1.5h-6.3
			c-5,0-10.4-0.2-16.3-0.9V51.3h-108c14.9,7.1,25.9,16.9,33.4,26.6c31.6,12.6,35.5,33.6,35.5,33.6s21.2,42.5-17.7,88.5
			s-100.2,64-109.6,67.3c-7.5,2.6-81.3,21.2-102.5,21.2c-1.5,0,0.6,4.4,3.8,9.9c-1.5-2.5-2.7-4.8-3.5-6.6
			c11.9,7.7,37,16.8,73.9,14.4C268,303.4,307,283,329,274.3L291.7,313z M464.1,324.8l-34.1,41c-1.9,1.3-5,2-9,2.2l0,0
			c-0.6,0-1.2,0.1-1.9,0.1c-16.1,0-40.3-7.9-45-9.4c-10.5-4.5-21.3-5.1-30.5-5.1c-4.2,0-8.5,0.2-12.8,0.3c-4.4,0.2-8.8,0.3-13.2,0.3
			c-9.3,0-16.6-0.7-23.4-2.3l8.2-7.6c4.6,0.6,9.5,0.9,15.3,0.9c4.5,0,8.9-0.2,13.3-0.3c4.3-0.1,8.5-0.3,12.7-0.3
			c9,0,19.7,0.6,29.9,5c4.8,1.6,29.3,9.5,45.6,9.5c0.7,0,1.2-0.1,1.9-0.1l0,0c4.3-0.2,7.7-1,10-2.6l26.1-31.4
			C459.5,324.9,461.8,324.8,464.1,324.8z M464.1,314.2l-34.1,41c-1.9,1.3-5,2-9,2.2l0,0c-0.6,0-1.2,0.1-1.9,0.1
			c-16,0-40.3-7.9-45-9.4c-10.5-4.5-21.3-5.1-30.5-5.1c-4.2,0-8.5,0.2-12.8,0.3c-4.4,0.2-8.8,0.3-13.2,0.3c-9.3,0-16.6-0.7-23.4-2.3
			l8.2-7.6c-0.3,0-0.5-0.1-0.8-0.1c4.8,0.6,10,1,16.1,1l0,0c4.5,0,8.9-0.2,13.3-0.3c4.3-0.2,8.5-0.3,12.7-0.3c9,0,19.7,0.6,29.9,5
			c4.8,1.6,29.3,9.5,45.6,9.5c5.3,0,9.2-0.8,11.9-2.7l27.4-33l-1.3,1.6C459.5,314.3,461.8,314.2,464.1,314.2z M464.1,303.5l-34.1,41
			c-2.2,1.5-5.9,2.2-10.8,2.2c-16,0-40.3-7.8-45-9.4c-10.5-4.5-21.3-5.1-30.5-5.1c-4.2,0-8.5,0.1-12.8,0.3
			c-4.4,0.2-8.8,0.3-13.2,0.3l0,0c-9.3,0-16.6-0.7-23.4-2.3l5.6-5.2c8.2,0.5,16.8,0.2,25.3-0.2c5.4-0.3,10.8-0.5,16.4-0.5
			c11.3,0,21.5,1.1,32.1,3.6c1.9,0.4,4.5,1.1,7.6,2c10.8,2.9,27.1,7.4,38.7,7.4c4.9,0,8.5-0.8,11.1-2.5l29.3-32.2l-0.7,0.7
			C461.2,303.6,462.6,303.6,464.1,303.5z M437.4,283.7h6.3c5.8,0,12.7,0.1,20.5,1.3L430,322.7c-2.1,1.4-5.4,2.1-9.8,2.1
			c-9.4,0-22.4-3.4-32.8-6.1c-5-1.3-9.6-2.5-13.2-3.2c-9.1-1.7-18.3-2.5-29.6-2.5c-4.5,0-9,0.1-13.4,0.2s-8.7,0.2-13.1,0.2l0,0
			c-9,0-16.2-0.5-23.2-1.6l40.1-41.9c34.4,0.3,50.3,4.4,74.7,10.6c2.2,0.6,4.3,1,6.3,1.3c1.7,0.3,3.3,0.5,5,0.7c0,0,0,0,0.1,0l0,0
			C427,283.5,432.4,283.7,437.4,283.7z"/>
	</g>
	<g class="st2">
		<path class="st1" d="M300.9,132.7c-2.8-5.7-14.8-15.9-37.8-16.1c-0.2,1.6-5.3,37.7-36.5,55c-31,17.2-74.1,26.6-76.4,27.1
			c-8.2,22.5-13.3,47.3-8.5,47.3c7.1,0,95.5-17.7,130.8-46C308,175.2,308,143.4,300.9,132.7z"/>
	</g>
</g>
</svg>
