<?xml version="1.0" encoding="utf-8"?>
<!-- Generator: Adobe Illustrator 24.1.1, SVG Export Plug-In . SVG Version: 6.00 Build 0)  -->
<svg version="1.1" id="Capa_1" xmlns="http://www.w3.org/2000/svg" xmlns:xlink="http://www.w3.org/1999/xlink" x="0px" y="0px"
	 viewBox="0 0 830 250" style="enable-background:new 0 0 830 250;" xml:space="preserve">
<style type="text/css">
	.st0{opacity:0.5;fill:#231F20;}
	.st1{fill:#231F20;}
	.st2{opacity:0.5;}
</style>
<g>
	<path class="st0" d="M173.6,183.1l-0.9-0.2l22.3-23.1c-13.1,5.2-36.4,17.4-61.1,19c-22,1.5-37-4-44.1-8.6
		c1.9,4.3,8.6,14.3,11.1,16.9c3.2,3.4,14.5,16.6,49.9,14.9c10.2-0.5,17.2-1.5,22.5-2.8l4.6-4.3c-1.6-0.2-3.2-0.5-4.8-0.9l-0.9-0.2
		l4-3.7c-1-0.1-2.1-0.1-3.1-0.3l-1-0.1l6.1-6.1L173.6,183.1z"/>
	<path class="st0" d="M81.1,73.2c23.2-16.9,52.8-38.1,97.1-35.9c11.7,0.6,20.6,2.6,27.4,5.3c-8.1-10.4-23-21.1-46.4-22.2
		C114.9,16.1,85.3,33,64.2,52C41,69,13.5,107,22,151.4c5.4,22.6,16.2,35.8,26.4,44c-2.9-5.9-5.5-12.7-7.4-20.7
		C30.4,130.3,60,90.1,81.1,73.2z"/>
	<g>
		<path class="st1" d="M93.5,177c0.5,0.8,1,1.6,1.5,2.4C94.5,178.6,94,177.8,93.5,177z"/>
		<path class="st1" d="M91.8,174.3c0.1,0.1,0.1,0.2,0.2,0.3C92,174.5,91.9,174.4,91.8,174.3z"/>
		<path class="st1" d="M92,174.6c0.4,0.6,0.8,1.3,1.2,2C92.8,175.9,92.4,175.3,92,174.6z"/>
		<path class="st1" d="M93.2,176.6c0.1,0.1,0.2,0.3,0.3,0.4C93.4,176.9,93.3,176.7,93.2,176.6z"/>
		<path class="st1" d="M48.3,195.4c-1-0.8-2.1-1.8-3.1-2.7v39.1h42.2C82.2,228.3,61.5,222,48.3,195.4z"/>
		<path class="st1" d="M88.1,114.8c0,0,0.1,0,0.1,0c1.4-0.3,27.1-5.9,45.6-16.2c18.6-10.3,21.7-31.9,21.8-32.9c0,0,0-0.1,0-0.1
			s-21.4,0.4-40.8,13.9C92.9,94.8,88.1,114.8,88.1,114.8z"/>
		<path class="st1" d="M64.2,52c11-10,24.4-19.3,41-25.4h-60v43.5C51.3,62.8,57.9,56.6,64.2,52z"/>
		<g>
			<path class="st1" d="M337.6,79c1.8-2.3,4-4.1,6.6-5.4c2.6-1.4,5.4-2,8.6-2c3.1,0,6,0.6,8.5,1.7c2.6,1.1,5.3,3.1,8.2,6h1.6
				l3.1-13.2c-3.6-1.9-7-3.3-10.3-4c-3.3-0.7-6.9-1-10.8-1c-10.3,0-18.8,3.4-25.4,10.3c-6.7,6.8-10,15.7-10,26.5
				c0,6.9,2.2,12.3,6.5,16.1c4.3,3.8,10.3,5.7,18,5.7c3.9,0,7.6-0.4,11.2-1.3c3.6-0.9,7.1-1.9,10.3-3l6.2-27.8h-24.9L342.4,98h10.7
				l-2.4,11c-0.5,0.1-1.1,0.1-1.7,0.1c-0.6,0-1.2,0-1.7,0c-5.3,0-9.2-1.1-11.6-3.2c-2.4-2.1-3.6-5.4-3.6-10c0-3.2,0.5-6.3,1.5-9.3
				C334.6,83.8,335.9,81.2,337.6,79z"/>
			<path class="st1" d="M411.2,75.8c-0.6,0-1.1,0-1.5,0c-2.5,0-4.9,0.6-7.4,1.8c-2.4,1.2-4.9,2.7-7.4,4.6l1.4-6.2h-13.1l-9.4,42.4
				h13.1l6.3-28.4c1.7-0.6,3.3-1,4.9-1.3c1.6-0.3,3.2-0.4,5-0.4c1,0,2.1,0,3.1,0.1c1.1,0.1,1.9,0.3,2.5,0.5h1.2l2.9-13
				C412.2,75.9,411.7,75.9,411.2,75.8z"/>
			<path class="st1" d="M446.3,76l-6.7,30.1c-1.6,0.9-3.1,1.6-4.5,2.1c-1.4,0.5-2.6,0.7-3.7,0.7c-2.1,0-3.6-0.4-4.4-1.1
				c-0.8-0.7-1.2-1.9-1.2-3.6c0-0.8,0.1-1.8,0.3-3c0.2-1.2,0.5-2.5,0.8-4.2l4.7-21.1h-13.2l-6.1,27.6c-0.2,1-0.4,1.9-0.5,2.7
				c-0.1,0.8-0.2,1.7-0.2,2.7c0,3.5,1,6.1,3.1,7.9c2.1,1.8,4.9,2.7,8.4,2.7c1.1,0,2.3-0.1,3.4-0.3c1.2-0.2,2.4-0.6,3.8-1.2
				c1.1-0.4,2.3-1.1,3.5-1.8c1.2-0.8,2.5-1.6,3.8-2.5l-1,4.7H450l9.4-42.4H446.3z"/>
			<path class="st1" d="M496.4,74.8c-2.5,0-4.8,0.5-6.9,1.5c-2.1,1-4.4,2.4-6.8,4.1l1-4.4h-13.1l-12.8,58h13.1l3.9-17.7
				c1.5,0.9,3.1,1.7,4.9,2.2c1.8,0.5,3.8,0.8,6,0.8c3.4,0,6.5-0.8,9.3-2.3c2.8-1.6,5.2-3.7,7.4-6.5c2.1-2.6,3.8-5.8,5-9.5
				c1.2-3.7,1.8-7.5,1.8-11.4c0-4.6-1.1-8.2-3.3-10.8C503.7,76.1,500.5,74.8,496.4,74.8z M494.6,98.8c-0.6,2.1-1.4,4-2.4,5.6
				c-1,1.6-2.4,2.9-4.1,3.9c-1.7,1-3.6,1.5-5.8,1.5c-1.1,0-2.1-0.1-3.2-0.3c-1-0.2-1.9-0.5-2.7-0.8l4.7-21.3
				c1.4-0.8,2.7-1.4,3.9-1.8c1.2-0.5,2.5-0.7,3.8-0.7c2.5,0,4.2,0.6,5.2,1.8c1,1.2,1.4,3,1.4,5.3C495.4,94.4,495.1,96.7,494.6,98.8z
				"/>
			<path class="st1" d="M540,74.6c-4.2,0-7.9,0.7-11.2,2.2c-3.3,1.5-6.2,3.5-8.5,6c-2.4,2.6-4.1,5.6-5.4,9c-1.2,3.4-1.8,7-1.8,10.8
				c0,5.3,1.6,9.5,4.9,12.6c3.2,3,7.9,4.5,13.9,4.5c4.2,0,8-0.7,11.2-2.1c3.2-1.4,6-3.4,8.4-6c2.3-2.5,4.1-5.5,5.4-9
				c1.3-3.5,1.9-7.2,1.9-11.2c0-5.3-1.6-9.4-4.8-12.4C550.7,76.1,546.1,74.6,540,74.6z M544.4,99.6c-0.6,2.1-1.4,4-2.5,5.8
				c-1,1.6-2.2,2.8-3.7,3.7c-1.4,0.9-3,1.3-4.5,1.3c-2.1,0-3.8-0.6-5.1-1.9c-1.2-1.3-1.9-3.3-1.9-6.2c0-2.5,0.3-4.9,0.9-7.2
				c0.6-2.3,1.3-4.3,2.3-5.9c1.1-1.7,2.3-3,3.7-4c1.4-0.9,3-1.4,4.8-1.4c2.4,0,4.1,0.7,5.2,2.1c1.1,1.4,1.6,3.4,1.6,6
				C545.2,95,544.9,97.5,544.4,99.6z"/>
			<polygon class="st1" points="336,158.5 374.8,158.5 378.4,142 318.2,142 299,228.8 359.2,228.8 362.8,212.3 324.1,212.3 
				328.9,190.5 364.9,190.5 368.6,174 332.6,174 			"/>
			<path class="st1" d="M414.9,161.6c-10.8,0-19.4,2.1-25.7,6.4c-6.3,4.3-9.5,10.1-9.5,17.4c0,4.4,1.6,8,4.7,10.9
				c3.1,2.9,9,5.4,17.5,7.5c5,1.2,8.4,2.2,10,3c1.6,0.8,2.4,2,2.4,3.5c0,2-1.1,3.6-3.4,4.7c-2.2,1.1-5.6,1.6-10.1,1.6
				c-3,0-5.8-0.3-8.4-1c-2.6-0.6-4.9-1.4-6.9-2.3c-2.3-1-4.1-1.9-5.3-2.8c-1.2-0.9-2.3-1.7-3.1-2.4h-1.8l-3.8,17.2
				c2.7,1.4,6.5,2.6,11.5,3.7c5,1.1,10.2,1.6,15.6,1.6c10.9,0,19.6-2.1,26-6.3c6.4-4.2,9.6-10,9.6-17.3c0-4.9-1.7-8.7-5.2-11.4
				c-3.5-2.7-9.2-5-17.1-6.8c-4.3-1-7.4-1.9-9.3-2.8c-2-0.9-3-2.2-3-3.9c0-2.2,1.1-3.9,3.4-4.9c2.3-1.1,5.6-1.6,9.9-1.6
				c4,0,7.8,0.7,11.5,2c3.7,1.3,6.9,3.1,9.6,5.2h1.7l3.7-16.6c-2.2-1.1-5.6-2.2-10.3-3.2C424.3,162.1,419.6,161.6,414.9,161.6z"/>
			<path class="st1" d="M478.1,215.5c-1.7,0.4-3.1,0.6-4.1,0.6c-2.6,0-4.5-0.5-5.8-1.4c-1.3-0.9-1.9-2.5-1.9-4.9
				c0-1.2,0.2-2.6,0.5-4.2c0.3-1.7,0.7-3.3,1.1-4.9l5.2-23.6H492l3.1-13.8h-18.8l4.1-18.7h-20.2l-4.1,18.7h-8.3l-3.1,13.8h8.3
				l-6.9,31c-0.3,1.6-0.5,2.9-0.7,4.1c-0.2,1.2-0.3,2.4-0.3,3.6c0,4.7,1.5,8.2,4.5,10.6c3,2.4,8,3.6,14.9,3.6c3.5,0,6.5-0.2,9-0.5
				c2.5-0.3,4.9-0.8,7.2-1.4l3.1-14h-1.7C481.2,214.7,479.8,215.1,478.1,215.5z"/>
			<path class="st1" d="M550.9,163.4c-0.7-0.1-1.4-0.1-2.3-0.2c-0.9,0-1.7,0-2.4,0c-3.8,0-7.6,0.9-11.4,2.7
				c-3.8,1.8-7.6,4.2-11.3,7.1l2.1-9.6h-20.2l-14.6,65.5h20.2l9.7-43.8c2.6-0.9,5.1-1.6,7.6-2c2.5-0.4,5-0.6,7.6-0.6
				c1.6,0,3.2,0.1,4.9,0.2c1.6,0.2,2.9,0.4,3.8,0.7h1.8L550.9,163.4z"/>
			<path class="st1" d="M607.7,165.5c-4.6-2.7-11.8-4-21.6-4c-4.9,0-9.8,0.4-14.7,1.2c-4.9,0.8-8.5,1.5-10.9,2.1l-3,15.5h1.8
				c2-0.8,5-1.7,9-2.9c4-1.2,7.7-1.7,11-1.7c4.9,0,8.5,0.6,11,1.7c2.5,1.1,3.7,3,3.7,5.8c0,0.7-0.1,1.2-0.2,1.8
				c-0.1,0.5-0.2,0.9-0.2,1.1c-7,0.4-13.4,1.1-19.4,2c-6,0.9-11.1,2.4-15.4,4.4c-4.6,2.1-8.1,5-10.4,8.6c-2.4,3.6-3.5,8-3.5,13.2
				c0,4.9,1.7,8.9,4.9,11.9c3.3,3.1,7.6,4.6,12.8,4.6c3.3,0,5.8-0.2,7.6-0.7c1.8-0.5,3.8-1.1,5.9-2.1c1.5-0.7,3.2-1.7,5-2.9
				c1.8-1.2,3.3-2.2,4.6-3.1l-1.5,6.9h20l9.8-44.5c0.2-0.9,0.4-2,0.5-3.3c0.1-1.2,0.2-2.3,0.2-3
				C614.6,172.4,612.2,168.2,607.7,165.5z M587.8,211.7c-2,1.5-4.1,2.7-6.4,3.6c-2.2,0.9-4.4,1.4-6.4,1.4c-3,0-5.3-0.5-6.9-1.4
				c-1.6-0.9-2.4-2.5-2.4-4.8c0-2.6,0.6-4.6,1.8-6.2c1.2-1.5,2.9-2.7,5.2-3.6c2.2-0.8,4.9-1.4,8-1.9c3.1-0.4,6.5-0.8,10.1-1.1
				L587.8,211.7z"/>
			<path class="st1" d="M648.2,200.8l5.2-23.6h18.8l3.1-13.8h-18.8l4.1-18.7h-20.2l-4.1,18.7H628l-3.1,13.8h8.3l-6.9,31
				c-0.3,1.6-0.5,2.9-0.7,4.1c-0.2,1.2-0.3,2.4-0.3,3.6c0,4.7,1.5,8.2,4.5,10.6c3,2.4,8,3.6,14.9,3.6c3.5,0,6.5-0.2,9-0.5
				c2.5-0.3,4.9-0.8,7.2-1.4l3.1-14h-1.7c-1,0.5-2.4,1-4,1.4c-1.7,0.4-3.1,0.6-4.1,0.6c-2.6,0-4.5-0.5-5.8-1.4
				c-1.3-0.9-1.9-2.5-1.9-4.9c0-1.2,0.2-2.6,0.5-4.2C647.4,204,647.8,202.4,648.2,200.8z"/>
			<path class="st1" d="M713.8,161.3c-6.1,0-11.8,1.1-16.9,3.2c-5.2,2.1-9.4,5-12.9,8.7c-3.6,3.8-6.3,8.1-8.2,13.1
				c-1.9,5-2.8,10.4-2.8,16.4c0,8.7,2.9,15.5,8.7,20.5c5.8,4.9,14.1,7.4,24.8,7.4c4.9,0,9.5-0.5,13.8-1.4c4.3-0.9,8.4-2.3,12.4-4
				l3.7-16.8h-2.2c-2.9,1.9-6.3,3.6-10.3,5.2c-3.9,1.6-8.1,2.3-12.5,2.3c-6.3,0-11-1.3-14.1-3.9c-3-2.6-4.6-6.1-4.6-10.7
				c0-0.2,0-0.4,0-0.7c0-0.2,0-0.4,0-0.7h46.7c0.8-2.5,1.5-5,2-7.5c0.5-2.5,0.7-5.1,0.7-7.8c0-7.7-2.4-13.5-7.1-17.5
				C730.2,163.3,723.2,161.3,713.8,161.3z M722.1,185.8c0,0.6-0.1,1.2-0.2,1.9h-27.2c1.5-4.2,3.6-7.4,6.4-9.8
				c2.8-2.3,6.3-3.5,10.5-3.5c3.4,0,6.1,0.8,7.9,2.5c1.8,1.6,2.7,4,2.7,7.1C722.1,184.6,722.1,185.2,722.1,185.8z"/>
			<path class="st1" d="M802.5,162.9c-3.8-0.9-7.6-1.3-11.4-1.3c-6.4,0-12.3,1.1-17.8,3.2c-5.5,2.2-10.1,5.1-13.9,8.8
				c-3.9,3.8-6.9,8.2-9,13.2c-2.1,5-3.2,10.5-3.2,16.4c0,4.6,0.8,8.6,2.3,12c1.5,3.5,3.6,6.3,6.3,8.6c2.8,2.3,6.1,4.1,9.8,5.2
				c3.7,1.1,7.8,1.7,12,1.7c4.8,0,8.8-0.4,11.8-1.2c3-0.8,6.6-2.1,10.6-3.9l4.3-17.9h-2.9c-2.3,2-5,3.9-8.2,5.5
				c-3.2,1.6-6.7,2.5-10.6,2.5c-5,0-8.7-1.2-11-3.6c-2.4-2.4-3.5-6-3.5-10.9c0-7,1.9-12.8,5.7-17.5c3.8-4.7,8.9-7,15.3-7
				c3.5,0,6.6,0.7,9.3,2c2.8,1.3,5.3,3.4,7.5,6.2h2.8l4.3-17.9C809.8,165.1,806.3,163.8,802.5,162.9z"/>
		</g>
		<path class="st1" d="M172.7,183l0.9,0.2c4.5,0.8,9.1,1.1,14.9,1.1l0,0c2.6,0,5.2-0.1,7.8-0.1c2.6-0.1,5.3-0.1,8-0.1
			c6.7,0,12.1,0.4,17.5,1.5c2.1,0.4,4.9,1.1,7.8,1.9c6.3,1.6,14.1,3.7,19.8,3.7c2.8,0,4.9-0.5,6.5-1.5l15.5-17.1l-0.1,0.1
			c1.4,0.1,2.8,0.2,4.4,0.5l-20.4,22.5c-1.3,0.8-3.3,1.3-6,1.3c-6.8,0-16.5-2.6-22.9-4.4c-1.9-0.5-3.4-0.9-4.6-1.2
			c-6.4-1.5-12.6-2.2-19.4-2.2c-3.4,0-6.6,0.2-9.9,0.3c-6.2,0.3-12.6,0.5-18.3-0.1l5.2-5.3c-0.4,0-0.8-0.1-1.2-0.1l-6.1,6.1l1,0.1
			c1,0.1,2.1,0.2,3.1,0.3l-4,3.7l0.9,0.2c1.5,0.4,3.1,0.7,4.8,0.9l-4.6,4.3c0,0-0.1,0-0.1,0c0,0,0.1,0,0.1,0l-1,0.9l0.9,0.2
			c1.5,0.4,3.1,0.7,4.8,0.9l-5.6,5.2l0.9,0.2c1.1,0.3,2.2,0.5,3.3,0.7l-6.4,5.5l1.1,0.1c5.1,0.6,10.1,0.8,16.1,0.8l6.2,0
			c1.3,0,2.6,0,3.9,0c0.2,0,0.4,0,0.6,0c1.1,0,2.3,0.1,3.4,0.1c0.2,0,0.4,0,0.6,0c1.2,0.1,2.4,0.1,3.6,0.2c0.1,0,0.3,0,0.4,0
			c1.3,0.1,2.7,0.3,4,0.4c0,0,0,0,0.1,0c-5.5,3.5-19.7,12-36.2,16.9h76v-10.6c2.6-0.3,4.6-0.8,6-1.8l21.9-24.1h-1.1
			c-1.5,0-2.8,0-4.2,0l-0.8,1c1.3,0,2.6,0,3.9,0l-20.3,22.4c-1.2,0.8-3,1.3-5.4,1.5c-0.4,0-0.9,0.1-1.4,0.1c-0.7,0-1.4,0.1-2.3,0.1
			c-8.9,0-20.3-2.5-24.4-3.9c-9.8-3.2-19.5-3.5-28.6-3.5l-6.2,0c-5.5,0-10.2-0.1-14.9-0.6l5.4-4.6c0.6,0.1,1.1,0.2,1.7,0.2
			c0.2,0,0.5,0.1,0.7,0.1c0.6,0.1,1.2,0.1,1.7,0.2c0.3,0,0.5,0.1,0.8,0.1c0.5,0,1,0.1,1.6,0.1c0.4,0,0.8,0,1.2,0.1
			c0.9,0,1.9,0,2.9,0c2.7,0,5.3-0.1,7.9-0.2c2.6-0.1,5.1-0.2,7.6-0.2c5.4,0,11.7,0.4,17.9,3c2.8,0.9,17.5,5.7,27.2,5.7
			c0.4,0,0.7,0,1.1,0l0,0c2.6-0.1,4.6-0.6,6-1.6l21.8-26.2h-1c-1.5,0-2.9,0-4.3,0.1l5.3-6.4h-1c-1.5,0-2.9,0-4.3,0.1l5.3-6.4h-1
			c-1,0-1.9,0-2.8,0.1l3.7-4.1l-0.9-0.1c-1.6-0.3-3.1-0.4-4.6-0.6l5.4-6l-0.9-0.1c-5.1-0.9-9.5-0.9-13.3-0.9l-3.8,0
			c-3,0-6.2-0.1-9.7-0.5V26.7h-64.4c8.9,4.3,15.5,10.1,20,15.9c18.9,7.5,21.2,20.1,21.2,20.1s12.7,25.4-10.6,52.9
			c-23.2,27.5-59.9,38.2-65.5,40.2c-4.5,1.6-48.6,12.7-61.2,12.7c-0.9,0,0.3,2.6,2.3,5.9c-0.9-1.5-1.6-2.9-2.1-3.9
			c7.1,4.6,22.1,10.1,44.1,8.6c24.7-1.7,48-13.9,61.1-19L172.7,183z M275.7,190l-20.3,24.5c-1.2,0.8-3,1.2-5.4,1.3l0,0
			c-0.4,0-0.7,0-1.1,0c-9.6,0-24.1-4.7-26.9-5.6c-6.3-2.7-12.7-3.1-18.2-3.1c-2.5,0-5.1,0.1-7.6,0.2c-2.6,0.1-5.2,0.2-7.9,0.2
			c-5.6,0-9.9-0.4-14-1.4l4.9-4.5c2.7,0.3,5.7,0.5,9.1,0.5c2.7,0,5.3-0.1,7.9-0.2c2.6-0.1,5.1-0.2,7.6-0.2c5.4,0,11.7,0.4,17.9,3
			c2.8,0.9,17.5,5.7,27.2,5.7c0.4,0,0.7,0,1.1,0l0,0c2.6-0.1,4.6-0.6,6-1.6l15.6-18.8C272.9,190.1,274.3,190,275.7,190z
			 M275.7,183.7l-20.3,24.5c-1.2,0.8-3,1.2-5.4,1.3l0,0c-0.4,0-0.7,0-1.1,0c-9.6,0-24.1-4.7-26.9-5.6c-6.3-2.7-12.7-3.1-18.2-3.1
			c-2.5,0-5.1,0.1-7.6,0.2c-2.6,0.1-5.2,0.2-7.9,0.2c-5.6,0-9.9-0.4-14-1.4l4.9-4.5c-0.2,0-0.3,0-0.5-0.1c2.9,0.4,6,0.6,9.6,0.6l0,0
			c2.7,0,5.3-0.1,7.9-0.2c2.6-0.1,5.1-0.2,7.6-0.2c5.4,0,11.7,0.4,17.9,3c2.8,0.9,17.5,5.7,27.2,5.7c3.1,0,5.5-0.5,7.1-1.6
			l16.4-19.7l-0.8,1C272.9,183.7,274.3,183.7,275.7,183.7z M275.7,177.3l-20.3,24.5c-1.3,0.9-3.5,1.3-6.5,1.3
			c-9.6,0-24.1-4.7-26.9-5.6c-6.3-2.7-12.7-3.1-18.2-3.1c-2.5,0-5.1,0.1-7.6,0.2c-2.6,0.1-5.2,0.2-7.9,0.2l0,0
			c-5.6,0-9.9-0.4-14-1.4l3.3-3.1c4.9,0.3,10.1,0.1,15.1-0.1c3.2-0.2,6.4-0.3,9.8-0.3c6.7,0,12.8,0.7,19.2,2.2
			c1.1,0.3,2.7,0.7,4.5,1.2c6.4,1.8,16.2,4.4,23.1,4.4c3,0,5.1-0.5,6.6-1.5l17.5-19.3l-0.4,0.4C273.9,177.3,274.8,177.3,275.7,177.3
			z M259.8,165.4l3.8,0c3.5,0,7.6,0.1,12.2,0.8l-20.4,22.5c-1.3,0.9-3.2,1.3-5.8,1.3c-5.6,0-13.4-2-19.6-3.6c-3-0.8-5.8-1.5-7.9-1.9
			c-5.5-1-10.9-1.5-17.7-1.5c-2.7,0-5.4,0.1-8,0.1c-2.6,0.1-5.2,0.1-7.8,0.1l0,0c-5.4,0-9.7-0.3-13.9-1l23.9-25
			c20.6,0.2,30.1,2.6,44.6,6.4c1.3,0.3,2.6,0.6,3.8,0.8c1,0.2,2,0.3,3,0.4c0,0,0,0,0,0l0,0C253.5,165.3,256.7,165.4,259.8,165.4z"/>
	</g>
	<g class="st2">
		<path class="st1" d="M178.2,75.3c-1.7-3.4-8.9-9.5-22.6-9.6c-0.1,1-3.2,22.5-21.8,32.9c-18.5,10.3-44.3,15.9-45.6,16.2
			c-4.9,13.4-7.9,28.2-5,28.2c4.2,0,57-10.6,78.1-27.5C182.4,100.7,182.4,81.7,178.2,75.3z"/>
	</g>
</g>
</svg>
