<?xml version="1.0" encoding="utf-8"?>
<!-- Generator: Adobe Illustrator 24.1.1, SVG Export Plug-In . SVG Version: 6.00 Build 0)  -->
<svg version="1.1" id="Capa_1" xmlns="http://www.w3.org/2000/svg" xmlns:xlink="http://www.w3.org/1999/xlink" x="0px" y="0px"
	 viewBox="0 0 500 500" style="enable-background:new 0 0 500 500;" xml:space="preserve">
<style type="text/css">
	.st0{fill-rule:evenodd;clip-rule:evenodd;fill:#CADDF7;}
	.st1{fill-rule:evenodd;clip-rule:evenodd;fill:#FCC39A;}
	.st2{fill-rule:evenodd;clip-rule:evenodd;fill:#191919;}
	.st3{fill-rule:evenodd;clip-rule:evenodd;fill:#232323;}
	.st4{fill-rule:evenodd;clip-rule:evenodd;fill:#878DA1;}
	.st5{fill-rule:evenodd;clip-rule:evenodd;fill:#2B374A;}
	.st6{fill-rule:evenodd;clip-rule:evenodd;fill:#0026B2;}
	.st7{fill-rule:evenodd;clip-rule:evenodd;fill:#0539CC;}
	.st8{fill-rule:evenodd;clip-rule:evenodd;fill:#EDA070;}
	.st9{fill-rule:evenodd;clip-rule:evenodd;fill:#221F1F;}
	.st10{fill-rule:evenodd;clip-rule:evenodd;fill:#4F2B0C;}
	.st11{fill-rule:evenodd;clip-rule:evenodd;fill:#0043FF;}
	.st12{fill-rule:evenodd;clip-rule:evenodd;fill:#3C3C3B;}
	.st13{fill-rule:evenodd;clip-rule:evenodd;fill:#575756;}
	.st14{fill-rule:evenodd;clip-rule:evenodd;fill:#F9C319;}
	.st15{fill-rule:evenodd;clip-rule:evenodd;fill:#EFA30A;}
	.st16{fill-rule:evenodd;clip-rule:evenodd;fill:#DB8E05;}
	.st17{fill-rule:evenodd;clip-rule:evenodd;fill:#878787;}
	.st18{fill-rule:evenodd;clip-rule:evenodd;fill:#B2CAED;}
</style>
<g>
	<path class="st0" d="M175.2,304.6c37.7,0,68.3,16.2,68.3,36.2c0,20-30.6,36.2-68.3,36.2c-37.7,0-68.3-16.2-68.3-36.2
		C106.9,320.8,137.5,304.6,175.2,304.6z"/>
	<path class="st1" d="M228.2,166.4c-0.2,1.2,0.5,3,1.8,4.6c1.3,1.5,3.1,3.1,3.7,3.6c1.6,1.5,1.7,1.1,3.2,2.6
		c0.9-0.8,1.8-2.3-1.2-4.7c-0.3-0.8,0.1-2.2-2.3-3.8C234.2,163,228.5,164.1,228.2,166.4z"/>
	<path class="st2" d="M154.9,187.9c3.1,8.1,6.7,10.2,9.2,18.5c4.7,22.6,14.2,30.4,12.6,52.2c6.3,4,19.2,9,20.2-0.5
		c3.4-32.6,6.4-65.9-1.1-95.4c0,0-17.3,1.3-32.5,6.1C163.2,171.9,154.5,186.8,154.9,187.9z"/>
	<path class="st3" d="M135.6,283.5c-4.4,16.7,14.1,16.7,23,4.2c4.2-5.9,7.6-16.8,10.3-24.2c9.3-25.4,10.6-40.1,12.6-64.7
		c6.5-3.3,3.7-13.1,4-20c-21.3,14.2-37.1,3.2-42.4-0.9c-2.5,12.6-2.3,50.4-2,62.3C141.5,257.7,138.4,271.6,135.6,283.5z"/>
	<path class="st4" d="M181.5,298c0,0,2.8,11.2-2.7,8.8c-2.3-1-2.1,4.2-1.8,5.9c0.4,2.3,3.6,4.2,6.9,5.7c3.8,1.4,8.3,5.7,9.7,6.8
		c3.8,2.8,12.2,2.6,16.2,1.2c2.3-0.8,3.8-2.2,3.3-4c-0.3-0.6-0.1-0.9-1-1.5c-0.9-0.7-7-5.3-9.5-6.7c-6.5-3.5-9.1-10.5-9.7-12.2
		c-0.6-1.6-2.4-6.5-2.4-6.5S187.6,294.3,181.5,298z"/>
	<path class="st5" d="M180.2,296.6c0.6,5.2-3.9,4.3-2.7,13.5c0.4,3.4,6.9,5.3,9.4,6.8c3.6,2,4.3,3.6,5.9,5.5
		c1.5,1.7,3.6,2.5,6.4,2.9c6.5,0.9,14.2-0.1,13.4-5.7c-0.3-2.2-8.8-5.9-11.7-7.6c-6.9-3.8-6.9-12.8-7.5-14.4
		c-0.6-1.6-2.9-2.3-2.9-2.3S186.3,292.9,180.2,296.6z"/>
	<path class="st4" d="M122.6,329.6c0,0,1.4,11.5-3.7,8.4c-2.2-1.3-2.6,3.9-2.5,5.6c0.1,2.3,3.1,4.6,6.2,6.5c3.6,1.8,7.5,6.7,8.8,7.9
		c3.5,3.2,11.8,4,15.9,3.1c2.4-0.5,4-1.8,3.8-3.6c-0.2-0.7,0-0.9-0.8-1.7c-0.8-0.8-6.3-6.2-8.6-7.8c-6-4.3-7.8-11.6-8.1-13.2
		c-0.4-1.7-1.6-6.7-1.6-6.7S129,326.6,122.6,329.6z"/>
	<path class="st5" d="M121.4,328c0,5.3-4.4,3.8-4.4,13.1c0,3.4,6.2,6.1,8.5,7.9c3.3,2.5,3.8,4.1,5.2,6.1c1.2,1.9,3.3,3,6,3.7
		c6.4,1.7,14.1,1.7,14-4c-0.1-2.2-8-6.9-10.7-9c-7.1-4.7-4.6-13.7-4.9-15.4c-0.4-1.7-3.4-2.4-3.4-2.4S127.9,325,121.4,328z"/>
	<path class="st2" d="M178,248.7c7.9-19.9,15.1-10.7,20.1-1.2c-2.2,15.1-3.1,50.9-2.1,58.2c-4.5,6.7-18.7,6.3-18.8,3.6
		C177.1,281.7,171.4,274.2,178,248.7z"/>
	<path class="st3" d="M145.3,273.6c14.8-14.6,12.6,3,13.3,14.1c-7.9,12.9-21.6,40.9-23,51c-6.3,5.2-20.2,0.3-17.8-3.7
		C124.9,314,123.9,293.3,145.3,273.6z"/>
	<path class="st6" d="M178.8,110.2c2.5,18.4,13.9,36.8,18,43.2c7.3,7.8,14.7-4.1,15.1-10.6c-2.6-7.8-3.2-14.8-7.6-36.9
		c-5.4-26.4-15.7-26.2-21.7-24.4C176.5,83.4,173.6,93.1,178.8,110.2z"/>
	<path class="st7" d="M198.1,154.6c9,6.3,23.6,11.2,28.9,11.8c3-0.7,6.2-4.4,4.7-7.9c-5.9-3.4-7.8-6.9-18.9-15.3
		C204.2,136.9,191.5,150,198.1,154.6z"/>
	<path class="st7" d="M162.6,85.5c-6.9,3.9-17.2,9.7-23,17.3c-4.2,5.6,0.5,20.4,0.7,22c4.7,38.6-0.1,40,3,49.4
		c4,11.8,39.9,10.5,54.1-4c6.6-3.5-4.7-13.6,1.3-42c1.2-5.9,4.1-30-3.8-40.8c-1.8-2.5-5.6-5.4-9.7-5.1
		C175.3,83,168.5,81.7,162.6,85.5z"/>
	<g>
		<path class="st8" d="M163,73.6c-0.1,4.5,0.3,9.7-2,13.6c2.3,8.9,12.7,11.2,18.2,9.2c2.6-1,3.7-3.6,2.9-5.9c-0.3-2-3.1-3.9-3.8-5.9
			C177.4,81.9,165.5,75.2,163,73.6z"/>
		<path class="st1" d="M189.7,55.2c0,2.7,0.9,5.1,1.5,7.7c0.8,2.1-0.8,3.2-0.8,5.1c0,0.8,0.9,1.8,1.1,2.8c0.6,3.6-1.4,8.7-1.8,11.8
			c-0.5,3-0.4,5.7-3.4,7c-5.1,2.4-10.4-1.9-15.7-3.6c-5.2-1.7-3-8.2-4.7-12.4C157.9,53.6,184.3,41.7,189.7,55.2z"/>
		<path class="st9" d="M158,69.8l0.2,0.4C158.1,70.1,158,69.9,158,69.8z"/>
		<path class="st10" d="M172.7,67.2c-1.6,0.8-3.2,5.2-0.4,10.7c0,0.5-11-11.5-9.4-3.2c0.6,4.7,0.2,5-0.5,7.1
			c-1.7-0.7-3.5-7-5.1-11.4c-2-6.9-0.3-15,2.8-17.8c9.5,0.5,11.5,0.4,15.3,5.6C176.3,60.9,174.6,66.2,172.7,67.2z"/>
		<path class="st1" d="M162.4,73.4c0.8,2.9,2.4,4.9,3.7,4.6c1.3-0.3,1.3-3,1.5-5.5c0.6-3.6-2.6-5.4-4.3-4.9
			C162.1,67.9,161.7,70.5,162.4,73.4z"/>
		<path class="st10" d="M160.3,52.6c1.8-12.9,47.3,0.7,27.1,7.2c-3.6-2.5-8.4,0.2-13.2-2.1C170.1,56,164.4,54.1,160.3,52.6z"/>
		<path class="st11" d="M193.3,59.8c3,1.7,8.6,5.8,11,8.1c-7-1.7-11.9,3-15.5,4.9c-4.3,2.3-11.3-4.7-15.8-6.6
			C185.9,66,191.2,62.6,193.3,59.8z"/>
		<path class="st0" d="M194.1,61.2c-5.9,5.8-25.6,6.4-37.6,2.5c-2.9-16.3,8.4-20.4,19.3-20.4C187.8,43.3,193.9,50.6,194.1,61.2z"/>
	</g>
	<path class="st6" d="M198.4,176.2c-27.6,16.2-53.4,17.7-55.5,3.5c0.3-1.6,0.1-3.9,0.5-5.5c5.8,11.6,35.9,8.4,54.1-4
		C197.5,171.7,198.3,174.7,198.4,176.2z"/>
	<path class="st1" d="M226.7,163.9c2.9,2.3,0.3,3.5,3.2,6.9c0.9,0.6,2-3,8.8,1.8c1.5,0.4,6.7-6.7,5.8-8c-2.2-2-9-2.8-13.9-5.4
		C228.8,158.7,226.8,159.9,226.7,163.9z"/>
	<path class="st1" d="M238.3,172.1c1.4,1.9,2.1,4.1,2.7,6.6c0.4,1.8,2.6,1,2.2-0.8c-0.5-2.5-1.1-4.8-2.3-6.7
		C240.3,169.4,237.6,170.5,238.3,172.1z"/>
	<path class="st1" d="M240.5,170.9c1.4,1.9,2.1,4.1,2.7,6.7c0.4,1.8,2.6,1,2.2-0.8c-0.5-2.5-1.1-4.8-2.3-6.7
		C242.5,168.2,239.8,169.2,240.5,170.9z"/>
	<path class="st1" d="M242,168.4c1.4,1.9,2.1,4.1,2.7,6.7c0.4,1.8,2.6,1,2.2-0.8c-0.5-2.5-1.1-4.8-2.3-6.7
		C244,165.7,241.3,166.7,242,168.4z"/>
	<path class="st1" d="M242.2,165.9c1.4,1.9,2.9,4.9,3.5,7.5c0.4,1.8,2.6,1,2.2-0.8c-0.5-2.5-1.7-5.4-2.9-7.3
		C244.3,163.5,241.5,164.3,242.2,165.9z"/>
	<g>
		<polygon class="st12" points="148.9,287.3 149.3,266.5 92.7,234.1 96.1,257.1 		"/>
		<polygon class="st13" points="172.9,253.1 149.3,266.5 148.9,287.3 169.3,275.8 		"/>
		<polygon class="st14" points="170.7,241.4 149.3,253.4 94.7,222.2 115.9,210.1 		"/>
		<polygon class="st15" points="149.3,266.5 172.9,253.1 170.7,241.4 149.3,253.4 		"/>
		<polygon class="st16" points="149.3,266.5 92.7,234.1 94.7,222.1 149.3,253.4 		"/>
		<polygon class="st12" points="151.4,240.2 148.9,237.2 148.9,232 121.8,218.7 121.8,225.9 119.8,227 118.3,214.3 151.4,232.3 		
			"/>
		<polygon class="st17" points="151.4,232.3 148.8,233.8 116,215.1 118.5,213.6 		"/>
		<polygon class="st13" points="151.2,244.9 153.9,243.4 151.4,232.3 148.8,233.8 		"/>
		<polygon class="st12" points="151.2,244.9 144.9,241.4 145,234.2 119.8,219.8 119.8,227 114.1,223.9 116,215 148.8,233.8 		"/>
		<g>
			<polygon class="st14" points="141.8,259.8 139.3,261.2 132.8,257.6 135.2,256.1 			"/>
			<polygon class="st15" points="140.5,271.3 141.8,270.6 141.8,259.8 139.3,261.2 			"/>
			<polygon class="st16" points="140.5,271.3 134.1,267.6 132.8,257.5 139.3,261.2 			"/>
		</g>
		<g>
			<polygon class="st14" points="107.4,240 104.9,241.4 98.4,237.8 100.8,236.4 			"/>
			<polygon class="st15" points="106.1,251.5 107.4,250.8 107.4,240 104.9,241.4 			"/>
			<polygon class="st16" points="106.1,251.5 99.7,247.8 98.4,237.8 104.9,241.4 			"/>
		</g>
	</g>
	<g>
		<path class="st1" d="M133.4,217.1c1.2,0,3.4,0.9,4.2,2.5c1.3,3,2.1,3.9,2.6,4.6c1.2,1.8,1.2,1.4,2.4,3.2c-2.6,2-6.1-2.3-7-4.3
			C129.9,223,131.1,217.1,133.4,217.1z"/>
		<g>
			<path class="st1" d="M134.2,212.2c0.5,3.7,2,3.2,3.4,7.5c0.1,1.1-2.4,0.8-1.8,9c-0.3,1.2-1.4,1.7-3.3,0.5c-0.9-0.6-0.8,1-3.5-1.2
				c-0.6-0.5-1,0.1-1.9-0.8c-0.6-0.6-1.2-0.7-1.3-1c-0.6-2.9,0.8-7.5,2.4-13.3C128.6,211.4,130.7,210.2,134.2,212.2z"/>
			<path class="st1" d="M135.2,226.4c0.9,2.2,2.1,3.2,4,5.1c1.3,1.3-0.3,1.9-1.8,0.8c-3.1-2.4-3.3-2.1-4.4-4.2
				C131.9,226.7,134.2,224.9,135.2,226.4z"/>
		</g>
	</g>
	<path class="st11" d="M138.3,166.4c0.3,2.4-17.8,3.8-17-1.8c-0.4-13.8,2.8-23.6,5.9-35.2c4.3-16,7.3-27.8,14.1-29.8
		c6.2-1.8,15.2,0.8,16.9,10.6C158,129,141.7,151,138.3,166.4z"/>
	<path class="st11" d="M121.7,158.7c-3.9,11.5,0.4,44.2,5.5,56.6c1.2,2.9,10,2.2,9-3.6c-1.1-11.1,1.4-36.3,2-45.2
		C138.7,160.8,125.1,148.8,121.7,158.7z"/>
	<g>
		<polygon class="st0" points="242.9,169.1 243.1,210.4 220.6,223.6 220.5,182.3 		"/>
		<g>
			<polygon class="st18" points="240.3,175.7 240.4,177.6 223.2,187.6 223.2,185.6 			"/>
			<polygon class="st18" points="240.3,178.8 240.4,180.8 223.2,190.8 223.2,188.8 			"/>
			<polygon class="st18" points="240.3,182 240.4,183.9 223.2,193.9 223.2,192 			"/>
			<polygon class="st18" points="240.3,185.2 240.4,187.1 223.2,197.1 223.2,195.2 			"/>
			<polygon class="st18" points="240.3,188.4 240.4,190.3 223.2,200.3 223.2,198.3 			"/>
			<polygon class="st18" points="240.3,191.5 240.4,193.5 223.2,203.5 223.2,201.5 			"/>
			<polygon class="st18" points="240.3,194.7 240.4,196.6 223.2,206.6 223.2,204.7 			"/>
			<polygon class="st18" points="240.3,197.9 240.4,199.8 223.2,209.8 223.2,207.9 			"/>
			<polygon class="st18" points="240.3,201.1 240.4,203 223.2,213 223.2,211 			"/>
		</g>
	</g>
</g>
<g>
	<path class="st0" d="M347.2,304.6c37.7,0,68.3,16.2,68.3,36.2c0,20-30.6,36.2-68.3,36.2c-37.7,0-68.3-16.2-68.3-36.2
		C278.9,320.8,309.5,304.6,347.2,304.6z"/>
	<path class="st1" d="M400.2,166.4c-0.2,1.2,0.5,3,1.8,4.6c1.3,1.5,3.1,3.1,3.7,3.6c1.6,1.5,1.7,1.1,3.2,2.6
		c0.9-0.8,1.8-2.3-1.2-4.7c-0.3-0.8,0.1-2.2-2.3-3.8C406.2,163,400.5,164.1,400.2,166.4z"/>
	<path class="st2" d="M326.9,187.9c3.1,8.1,6.7,10.2,9.2,18.5c4.7,22.6,14.2,30.4,12.6,52.2c6.3,4,19.2,9,20.2-0.5
		c3.4-32.6,6.4-65.9-1.1-95.4c0,0-17.3,1.3-32.5,6.1C335.2,171.9,326.5,186.8,326.9,187.9z"/>
	<path class="st3" d="M307.6,283.5c-4.4,16.7,14.1,16.7,23,4.2c4.2-5.9,7.6-16.8,10.3-24.2c9.3-25.4,10.6-40.1,12.6-64.7
		c6.5-3.3,3.7-13.1,4-20c-21.3,14.2-37.1,3.2-42.4-0.9c-2.5,12.6-2.3,50.4-2,62.3C313.6,257.7,310.4,271.6,307.6,283.5z"/>
	<path class="st4" d="M353.5,298c0,0,2.8,11.2-2.7,8.8c-2.3-1-2.1,4.2-1.8,5.9c0.4,2.3,3.6,4.2,6.9,5.7c3.8,1.4,8.3,5.7,9.7,6.8
		c3.8,2.8,12.2,2.6,16.2,1.2c2.3-0.8,3.8-2.2,3.3-4c-0.3-0.6-0.1-0.9-1-1.5c-0.9-0.7-7-5.3-9.5-6.7c-6.5-3.5-9.1-10.5-9.7-12.2
		c-0.6-1.6-2.4-6.5-2.4-6.5S359.6,294.3,353.5,298z"/>
	<path class="st5" d="M352.2,296.6c0.6,5.2-3.9,4.3-2.7,13.5c0.4,3.4,6.9,5.3,9.4,6.8c3.6,2,4.3,3.6,5.9,5.5
		c1.5,1.7,3.6,2.5,6.4,2.9c6.5,0.9,14.2-0.1,13.4-5.7c-0.3-2.2-8.8-5.9-11.7-7.6c-6.9-3.8-6.9-12.8-7.5-14.4
		c-0.6-1.6-2.9-2.3-2.9-2.3S358.3,292.9,352.2,296.6z"/>
	<path class="st4" d="M294.6,329.6c0,0,1.4,11.5-3.7,8.4c-2.2-1.3-2.6,3.9-2.5,5.6c0.1,2.3,3.1,4.6,6.2,6.5c3.6,1.8,7.5,6.7,8.8,7.9
		c3.5,3.2,11.8,4,15.9,3.1c2.4-0.5,4-1.8,3.8-3.6c-0.2-0.7,0-0.9-0.8-1.7c-0.8-0.8-6.3-6.2-8.6-7.8c-6-4.3-7.8-11.6-8.1-13.2
		c-0.4-1.7-1.6-6.7-1.6-6.7S301,326.6,294.6,329.6z"/>
	<path class="st5" d="M293.5,328c0,5.3-4.4,3.8-4.4,13.1c0,3.4,6.2,6.1,8.5,7.9c3.3,2.5,3.8,4.1,5.2,6.1c1.2,1.9,3.3,3,6,3.7
		c6.4,1.7,14.1,1.7,14-4c-0.1-2.2-8-6.9-10.7-9c-7.1-4.7-4.6-13.7-4.9-15.4c-0.4-1.7-3.4-2.4-3.4-2.4S299.9,325,293.5,328z"/>
	<path class="st2" d="M350,248.7c7.9-19.9,15.1-10.7,20.1-1.2c-2.2,15.1-3.1,50.9-2.1,58.2c-4.5,6.7-18.7,6.3-18.8,3.6
		C349.1,281.7,343.4,274.2,350,248.7z"/>
	<path class="st3" d="M317.3,273.6c14.8-14.6,12.6,3,13.3,14.1c-7.9,12.9-21.6,40.9-23,51c-6.3,5.2-20.2,0.3-17.8-3.7
		C296.9,314,295.9,293.3,317.3,273.6z"/>
	<path class="st6" d="M350.9,110.2c2.5,18.4,13.9,36.8,18,43.2c7.3,7.8,14.7-4.1,15.1-10.6c-2.6-7.8-3.2-14.8-7.6-36.9
		c-5.4-26.4-15.7-26.2-21.7-24.4C348.5,83.4,345.6,93.1,350.9,110.2z"/>
	<path class="st7" d="M370.1,154.6c9,6.3,23.6,11.2,28.9,11.8c3-0.7,6.2-4.4,4.7-7.9c-5.9-3.4-7.8-6.9-18.9-15.3
		C376.3,136.9,363.5,150,370.1,154.6z"/>
	<path class="st7" d="M334.6,85.5c-6.9,3.9-17.2,9.7-23,17.3c-4.2,5.6,0.5,20.4,0.7,22c4.7,38.6-0.1,40,3,49.4
		c4,11.8,39.9,10.5,54.1-4c6.6-3.5-4.7-13.6,1.3-42c1.2-5.9,4.1-30-3.8-40.8c-1.8-2.5-5.6-5.4-9.7-5.1
		C347.3,83,340.5,81.7,334.6,85.5z"/>
	<g>
		<path class="st8" d="M335,73.6c-0.1,4.5,0.3,9.7-2,13.6c2.3,8.9,12.7,11.2,18.2,9.2c2.6-1,3.7-3.6,2.9-5.9c-0.3-2-3.1-3.9-3.8-5.9
			C349.4,81.9,337.5,75.2,335,73.6z"/>
		<path class="st1" d="M361.7,55.2c0,2.7,0.9,5.1,1.5,7.7c0.8,2.1-0.8,3.2-0.8,5.1c0,0.8,0.9,1.8,1.1,2.8c0.6,3.6-1.4,8.7-1.8,11.8
			c-0.5,3-0.4,5.7-3.4,7c-5.1,2.4-10.4-1.9-15.7-3.6c-5.2-1.7-3-8.2-4.7-12.4C329.9,53.6,356.3,41.7,361.7,55.2z"/>
		<path class="st9" d="M330,69.8l0.2,0.4C330.1,70.1,330,69.9,330,69.8z"/>
		<path class="st10" d="M344.7,67.2c-1.6,0.8-3.2,5.2-0.4,10.7c0,0.5-11-11.5-9.4-3.2c0.6,4.7,0.2,5-0.5,7.1
			c-1.7-0.7-3.5-7-5.1-11.4c-2-6.9-0.3-15,2.8-17.8c9.5,0.5,11.5,0.4,15.3,5.6C348.3,60.9,346.6,66.2,344.7,67.2z"/>
		<path class="st1" d="M334.5,73.4c0.8,2.9,2.4,4.9,3.7,4.6c1.3-0.3,1.3-3,1.5-5.5c0.6-3.6-2.6-5.4-4.3-4.9
			C334.1,67.9,333.7,70.5,334.5,73.4z"/>
		<path class="st10" d="M332.3,52.6c1.8-12.9,47.3,0.7,27.1,7.2c-3.6-2.5-8.4,0.2-13.2-2.1C342.1,56,336.4,54.1,332.3,52.6z"/>
		<path class="st11" d="M365.4,59.8c3,1.7,8.6,5.8,11,8.1c-7-1.7-11.9,3-15.5,4.9c-4.3,2.3-11.3-4.7-15.8-6.6
			C357.9,66,363.2,62.6,365.4,59.8z"/>
		<path class="st0" d="M366.1,61.2c-5.9,5.8-25.6,6.4-37.6,2.5c-2.9-16.3,8.4-20.4,19.3-20.4C359.8,43.3,365.9,50.6,366.1,61.2z"/>
	</g>
	<path class="st6" d="M370.4,176.2c-27.6,16.2-53.4,17.7-55.5,3.5c0.3-1.6,0.1-3.9,0.5-5.5c5.8,11.6,35.9,8.4,54.1-4
		C369.5,171.7,370.3,174.7,370.4,176.2z"/>
	<path class="st1" d="M398.7,163.9c2.9,2.3,0.3,3.5,3.2,6.9c0.9,0.6,2-3,8.8,1.8c1.5,0.4,6.7-6.7,5.8-8c-2.2-2-9-2.8-13.9-5.4
		C400.9,158.7,398.8,159.9,398.7,163.9z"/>
	<path class="st1" d="M410.3,172.1c1.4,1.9,2.1,4.1,2.7,6.6c0.4,1.8,2.6,1,2.2-0.8c-0.5-2.5-1.1-4.8-2.3-6.7
		C412.3,169.4,409.6,170.5,410.3,172.1z"/>
	<path class="st1" d="M412.5,170.9c1.4,1.9,2.1,4.1,2.7,6.7c0.4,1.8,2.6,1,2.2-0.8c-0.5-2.5-1.1-4.8-2.3-6.7
		C414.5,168.2,411.9,169.2,412.5,170.9z"/>
	<path class="st1" d="M414,168.4c1.4,1.9,2.1,4.1,2.7,6.7c0.4,1.8,2.6,1,2.2-0.8c-0.5-2.5-1.1-4.8-2.3-6.7
		C416,165.7,413.3,166.7,414,168.4z"/>
	<path class="st1" d="M414.2,165.9c1.4,1.9,2.9,4.9,3.5,7.5c0.4,1.8,2.6,1,2.2-0.8c-0.5-2.5-1.7-5.4-2.9-7.3
		C416.4,163.5,413.5,164.3,414.2,165.9z"/>
	<g>
		<polygon class="st12" points="320.9,287.3 321.3,266.5 264.7,234.1 268.1,257.1 		"/>
		<polygon class="st13" points="345,253.1 321.3,266.5 320.9,287.3 341.4,275.8 		"/>
		<polygon class="st14" points="342.7,241.4 321.3,253.4 266.7,222.2 287.9,210.1 		"/>
		<polygon class="st15" points="321.3,266.5 345,253.1 342.7,241.4 321.3,253.4 		"/>
		<polygon class="st16" points="321.3,266.5 264.7,234.1 266.7,222.1 321.3,253.4 		"/>
		<polygon class="st12" points="323.4,240.2 320.9,237.2 320.9,232 293.8,218.7 293.8,225.9 291.8,227 290.3,214.3 323.4,232.3 		
			"/>
		<polygon class="st17" points="323.4,232.3 320.8,233.8 288,215.1 290.5,213.6 		"/>
		<polygon class="st13" points="323.2,244.9 325.9,243.4 323.4,232.3 320.8,233.8 		"/>
		<polygon class="st12" points="323.2,244.9 316.9,241.4 317,234.2 291.8,219.8 291.8,227 286.1,223.9 288,215 320.8,233.8 		"/>
		<g>
			<polygon class="st14" points="313.8,259.8 311.3,261.2 304.8,257.6 307.2,256.1 			"/>
			<polygon class="st15" points="312.5,271.3 313.8,270.6 313.8,259.8 311.3,261.2 			"/>
			<polygon class="st16" points="312.5,271.3 306.1,267.6 304.8,257.5 311.3,261.2 			"/>
		</g>
		<g>
			<polygon class="st14" points="279.4,240 276.9,241.4 270.4,237.8 272.8,236.4 			"/>
			<polygon class="st15" points="278.1,251.5 279.4,250.8 279.4,240 276.9,241.4 			"/>
			<polygon class="st16" points="278.1,251.5 271.7,247.8 270.4,237.8 276.9,241.4 			"/>
		</g>
	</g>
	<g>
		<path class="st1" d="M305.4,217.1c1.2,0,3.4,0.9,4.2,2.5c1.3,3,2.1,3.9,2.6,4.6c1.2,1.8,1.2,1.4,2.4,3.2c-2.6,2-6.1-2.3-7-4.3
			C301.9,223,303.1,217.1,305.4,217.1z"/>
		<g>
			<path class="st1" d="M306.2,212.2c0.5,3.7,2,3.2,3.4,7.5c0.1,1.1-2.4,0.8-1.8,9c-0.3,1.2-1.4,1.7-3.3,0.5c-0.9-0.6-0.8,1-3.5-1.2
				c-0.6-0.5-1,0.1-1.9-0.8c-0.6-0.6-1.2-0.7-1.3-1c-0.6-2.9,0.8-7.5,2.4-13.3C300.6,211.4,302.7,210.2,306.2,212.2z"/>
			<path class="st1" d="M307.2,226.4c0.9,2.2,2.1,3.2,4,5.1c1.3,1.3-0.3,1.9-1.8,0.8c-3.1-2.4-3.3-2.1-4.4-4.2
				C303.9,226.7,306.2,224.9,307.2,226.4z"/>
		</g>
	</g>
	<path class="st11" d="M310.3,166.4c0.3,2.4-17.8,3.8-17-1.8c-0.4-13.8,2.8-23.6,5.9-35.2c4.3-16,7.3-27.8,14.1-29.8
		c6.2-1.8,15.2,0.8,16.9,10.6C330,129,313.7,151,310.3,166.4z"/>
	<path class="st11" d="M293.7,158.7c-3.9,11.5,0.4,44.2,5.5,56.6c1.2,2.9,10,2.2,9-3.6c-1.1-11.1,1.4-36.3,2-45.2
		C310.7,160.8,297.1,148.8,293.7,158.7z"/>
	<g>
		<polygon class="st0" points="415,169.1 415.1,210.4 392.6,223.6 392.5,182.3 		"/>
		<g>
			<polygon class="st18" points="412.3,175.7 412.4,177.6 395.3,187.6 395.2,185.6 			"/>
			<polygon class="st18" points="412.3,178.8 412.4,180.8 395.3,190.8 395.2,188.8 			"/>
			<polygon class="st18" points="412.3,182 412.4,183.9 395.3,193.9 395.2,192 			"/>
			<polygon class="st18" points="412.3,185.2 412.4,187.1 395.3,197.1 395.2,195.2 			"/>
			<polygon class="st18" points="412.3,188.4 412.4,190.3 395.3,200.3 395.2,198.3 			"/>
			<polygon class="st18" points="412.3,191.5 412.4,193.5 395.3,203.5 395.2,201.5 			"/>
			<polygon class="st18" points="412.3,194.7 412.4,196.6 395.3,206.6 395.2,204.7 			"/>
			<polygon class="st18" points="412.3,197.9 412.4,199.8 395.3,209.8 395.2,207.9 			"/>
			<polygon class="st18" points="412.3,201.1 412.4,203 395.3,213 395.2,211 			"/>
		</g>
	</g>
</g>
<g>
	<path class="st0" d="M261.2,387c37.7,0,68.3,16.2,68.3,36.2c0,20-30.6,36.2-68.3,36.2c-37.7,0-68.3-16.2-68.3-36.2
		C192.9,403.2,223.5,387,261.2,387z"/>
	<path class="st1" d="M314.2,248.7c-0.2,1.2,0.5,3,1.8,4.6c1.3,1.5,3.1,3.1,3.7,3.6c1.6,1.5,1.7,1.1,3.2,2.6
		c0.9-0.8,1.8-2.3-1.2-4.7c-0.3-0.8,0.1-2.2-2.3-3.8C320.2,245.4,314.5,246.4,314.2,248.7z"/>
	<path class="st2" d="M240.9,270.3c3.1,8.1,6.7,10.2,9.2,18.5c4.7,22.6,14.2,30.4,12.6,52.2c6.3,4,19.2,9,20.2-0.5
		c3.4-32.6,6.4-65.9-1.1-95.4c0,0-17.3,1.3-32.5,6.1C249.2,254.3,240.5,269.2,240.9,270.3z"/>
	<path class="st3" d="M221.6,365.9c-4.4,16.7,14.1,16.7,23,4.2c4.2-5.9,7.6-16.8,10.3-24.2c9.3-25.4,10.6-40.1,12.6-64.7
		c6.5-3.3,3.7-13.1,4-20c-21.3,14.2-37.1,3.2-42.4-0.9c-2.5,12.6-2.3,50.4-2,62.3C227.5,340.1,224.4,354,221.6,365.9z"/>
	<path class="st4" d="M267.5,380.4c0,0,2.8,11.2-2.7,8.8c-2.3-1-2.1,4.2-1.8,5.9c0.4,2.3,3.6,4.2,6.9,5.7c3.8,1.4,8.3,5.7,9.7,6.8
		c3.8,2.8,12.2,2.6,16.2,1.2c2.3-0.8,3.8-2.2,3.3-4c-0.3-0.6-0.1-0.9-1-1.5c-0.9-0.7-7-5.3-9.5-6.7c-6.5-3.5-9.1-10.5-9.7-12.2
		c-0.6-1.6-2.4-6.5-2.4-6.5S273.6,376.7,267.5,380.4z"/>
	<path class="st5" d="M266.2,379c0.6,5.2-3.9,4.3-2.7,13.5c0.4,3.4,6.9,5.3,9.4,6.8c3.6,2,4.3,3.6,5.9,5.5c1.5,1.7,3.6,2.5,6.4,2.9
		c6.5,0.9,14.2-0.1,13.4-5.7c-0.3-2.2-8.8-5.9-11.7-7.6c-6.9-3.8-6.9-12.8-7.5-14.4c-0.6-1.6-2.9-2.3-2.9-2.3S272.3,375.2,266.2,379
		z"/>
	<path class="st4" d="M208.6,411.9c0,0,1.4,11.5-3.7,8.4c-2.2-1.3-2.6,3.9-2.5,5.6c0.1,2.3,3.1,4.6,6.2,6.5c3.6,1.8,7.5,6.7,8.8,7.9
		c3.5,3.2,11.8,4,15.9,3.1c2.4-0.5,4-1.8,3.8-3.6c-0.2-0.7,0-0.9-0.8-1.7c-0.8-0.8-6.3-6.2-8.6-7.8c-6-4.3-7.8-11.6-8.1-13.2
		c-0.4-1.7-1.6-6.7-1.6-6.7S215,409,208.6,411.9z"/>
	<path class="st5" d="M207.4,410.3c0,5.3-4.4,3.8-4.4,13.1c0,3.4,6.2,6.1,8.5,7.9c3.3,2.5,3.8,4.1,5.2,6.1c1.2,1.9,3.3,3,6,3.7
		c6.4,1.7,14.1,1.7,14-4c-0.1-2.2-8-6.9-10.7-9c-7.1-4.7-4.6-13.7-4.9-15.4c-0.4-1.7-3.4-2.4-3.4-2.4S213.9,407.4,207.4,410.3z"/>
	<path class="st2" d="M264,331.1c7.9-19.9,15.1-10.7,20.1-1.2c-2.2,15.1-3.1,50.9-2.1,58.2c-4.5,6.7-18.7,6.3-18.8,3.6
		C263.1,364,257.4,356.6,264,331.1z"/>
	<path class="st3" d="M231.3,356c14.8-14.6,12.6,3,13.2,14.1c-7.9,12.9-21.6,40.9-23,51c-6.3,5.2-20.2,0.3-17.8-3.7
		C210.9,396.4,209.9,375.7,231.3,356z"/>
	<path class="st6" d="M264.8,192.6c2.5,18.4,13.9,36.8,18,43.2c7.3,7.8,14.7-4.1,15.1-10.6c-2.6-7.8-3.2-14.8-7.6-36.9
		c-5.4-26.4-15.7-26.2-21.7-24.4C262.5,165.8,259.6,175.4,264.8,192.6z"/>
	<path class="st7" d="M284.1,237c9,6.3,23.6,11.2,28.9,11.8c3-0.7,6.2-4.4,4.7-7.9c-5.9-3.4-7.8-6.9-18.9-15.3
		C290.3,219.3,277.5,232.4,284.1,237z"/>
	<path class="st7" d="M248.6,167.8c-6.9,3.9-17.2,9.7-23,17.3c-4.2,5.6,0.5,20.4,0.7,22c4.7,38.6-0.1,40,3,49.4
		c4,11.8,39.9,10.5,54.1-4c6.6-3.5-4.7-13.6,1.3-42c1.2-5.9,4.1-30-3.8-40.8c-1.8-2.5-5.6-5.4-9.7-5.1
		C261.3,165.4,254.5,164.1,248.6,167.8z"/>
	<g>
		<path class="st8" d="M249,156c-0.1,4.5,0.3,9.7-2,13.6c2.3,8.9,12.7,11.2,18.2,9.2c2.6-1,3.7-3.6,2.9-5.9c-0.3-2-3.1-3.9-3.8-5.9
			C263.4,164.2,251.5,157.6,249,156z"/>
		<path class="st1" d="M275.7,137.6c0,2.7,0.9,5.1,1.5,7.7c0.8,2.1-0.8,3.2-0.8,5.1c0,0.8,0.9,1.8,1.1,2.8c0.6,3.6-1.4,8.7-1.8,11.8
			c-0.5,3-0.4,5.7-3.4,7c-5.1,2.4-10.4-1.9-15.7-3.6c-5.2-1.7-3-8.2-4.7-12.4C243.9,135.9,270.3,124.1,275.7,137.6z"/>
		<path class="st9" d="M244,152.2l0.2,0.4C244.1,152.5,244,152.3,244,152.2z"/>
		<path class="st10" d="M258.7,149.5c-1.6,0.8-3.2,5.2-0.4,10.7c0,0.5-11-11.5-9.4-3.2c0.6,4.7,0.2,5-0.5,7.1
			c-1.7-0.7-3.5-7-5.1-11.4c-2-6.9-0.3-15,2.8-17.8c9.5,0.5,11.5,0.4,15.3,5.6C262.3,143.3,260.6,148.6,258.7,149.5z"/>
		<path class="st1" d="M248.4,155.7c0.8,2.9,2.4,4.9,3.7,4.6c1.3-0.3,1.3-3,1.5-5.5c0.6-3.6-2.6-5.4-4.3-4.9
			C248.1,150.3,247.7,152.9,248.4,155.7z"/>
		<path class="st10" d="M246.3,134.9c1.8-12.9,47.3,0.7,27.1,7.2c-3.6-2.5-8.4,0.2-13.2-2.1C256.1,138.4,250.4,136.5,246.3,134.9z"
			/>
		<path class="st11" d="M279.4,142.1c3,1.7,8.6,5.8,11,8.1c-7-1.7-11.9,3-15.5,4.9c-4.3,2.3-11.3-4.7-15.8-6.6
			C271.9,148.4,277.2,145,279.4,142.1z"/>
		<path class="st0" d="M280.1,143.6c-5.9,5.8-25.6,6.4-37.6,2.5c-2.9-16.3,8.4-20.4,19.3-20.4C273.8,125.7,279.9,133,280.1,143.6z"
			/>
	</g>
	<path class="st6" d="M284.4,258.6c-27.6,16.2-53.4,17.7-55.5,3.5c0.3-1.6,0.1-3.9,0.5-5.5c5.8,11.6,35.9,8.4,54.1-4
		C283.5,254.1,284.3,257.1,284.4,258.6z"/>
	<path class="st1" d="M312.7,246.3c2.9,2.3,0.3,3.5,3.2,6.9c0.9,0.6,2-3,8.8,1.8c1.5,0.4,6.7-6.7,5.8-8c-2.2-2-9-2.8-13.9-5.4
		C314.9,241.1,312.8,242.2,312.7,246.3z"/>
	<path class="st1" d="M324.3,254.5c1.4,1.9,2.1,4.1,2.7,6.6c0.4,1.8,2.6,1,2.2-0.8c-0.5-2.5-1.1-4.8-2.3-6.7
		C326.3,251.8,323.6,252.8,324.3,254.5z"/>
	<path class="st1" d="M326.5,253.2c1.4,1.9,2.1,4.1,2.7,6.7c0.4,1.8,2.6,1,2.2-0.8c-0.5-2.5-1.1-4.8-2.3-6.7
		C328.5,250.6,325.8,251.6,326.5,253.2z"/>
	<path class="st1" d="M328,250.7c1.4,1.9,2.1,4.1,2.7,6.7c0.4,1.8,2.6,1,2.2-0.8c-0.5-2.5-1.1-4.8-2.3-6.7
		C330,248.1,327.3,249.1,328,250.7z"/>
	<path class="st1" d="M328.2,248.3c1.4,1.9,2.9,4.9,3.5,7.5c0.4,1.8,2.6,1,2.2-0.8c-0.5-2.5-1.7-5.4-2.9-7.3
		C330.3,245.9,327.5,246.6,328.2,248.3z"/>
	<g>
		<polygon class="st12" points="234.9,369.7 235.3,348.9 178.7,316.5 182.1,339.5 		"/>
		<polygon class="st13" points="258.9,335.4 235.3,348.9 234.9,369.7 255.4,358.2 		"/>
		<polygon class="st14" points="256.7,323.7 235.3,335.8 180.7,304.6 201.9,292.5 		"/>
		<polygon class="st15" points="235.3,348.9 258.9,335.4 256.7,323.7 235.3,335.8 		"/>
		<polygon class="st16" points="235.3,348.9 178.7,316.5 180.7,304.5 235.3,335.8 		"/>
		<polygon class="st12" points="237.4,322.5 234.9,319.6 234.9,314.3 207.8,301.1 207.8,308.3 205.8,309.4 204.3,296.6 237.4,314.7 
					"/>
		<polygon class="st17" points="237.4,314.7 234.8,316.2 202,297.4 204.5,295.9 		"/>
		<polygon class="st13" points="237.2,327.3 239.9,325.8 237.4,314.7 234.8,316.2 		"/>
		<polygon class="st12" points="237.2,327.3 230.9,323.8 231,316.6 205.8,302.2 205.8,309.4 200.1,306.3 202,297.4 234.8,316.2 		
			"/>
		<g>
			<polygon class="st14" points="227.8,342.2 225.3,343.6 218.8,340 221.2,338.5 			"/>
			<polygon class="st15" points="226.5,353.7 227.8,353 227.8,342.2 225.3,343.6 			"/>
			<polygon class="st16" points="226.5,353.7 220.1,350 218.8,339.9 225.3,343.6 			"/>
		</g>
		<g>
			<polygon class="st14" points="193.4,322.4 190.9,323.8 184.4,320.2 186.8,318.7 			"/>
			<polygon class="st15" points="192.1,333.9 193.4,333.2 193.4,322.4 190.9,323.8 			"/>
			<polygon class="st16" points="192.1,333.9 185.7,330.2 184.4,320.1 190.9,323.8 			"/>
		</g>
	</g>
	<g>
		<path class="st1" d="M219.4,299.5c1.2,0,3.4,0.9,4.2,2.5c1.3,3,2.1,3.9,2.6,4.6c1.2,1.8,1.2,1.4,2.4,3.2c-2.6,2-6.1-2.3-7-4.3
			C215.9,305.4,217.1,299.4,219.4,299.5z"/>
		<g>
			<path class="st1" d="M220.2,294.5c0.5,3.7,2,3.2,3.4,7.5c0.1,1.1-2.4,0.8-1.8,9c-0.3,1.2-1.4,1.7-3.3,0.5c-0.9-0.6-0.8,1-3.5-1.2
				c-0.6-0.5-1,0.1-1.9-0.8c-0.6-0.6-1.2-0.7-1.3-1c-0.6-2.9,0.8-7.5,2.4-13.3C214.6,293.8,216.7,292.6,220.2,294.5z"/>
			<path class="st1" d="M221.2,308.7c0.9,2.2,2.1,3.2,4,5.1c1.3,1.3-0.3,1.9-1.8,0.8c-3.1-2.4-3.3-2.1-4.4-4.2
				C217.9,309.1,220.2,307.3,221.2,308.7z"/>
		</g>
	</g>
	<path class="st11" d="M224.3,248.8c0.3,2.4-17.8,3.8-17-1.8c-0.4-13.8,2.8-23.6,5.9-35.2c4.3-16,7.3-27.8,14.1-29.8
		c6.2-1.8,15.2,0.8,16.9,10.6C244,211.4,227.7,233.4,224.3,248.8z"/>
	<path class="st11" d="M207.7,241.1c-3.9,11.5,0.4,44.2,5.5,56.6c1.2,2.9,10,2.2,9-3.6c-1.1-11.1,1.4-36.3,2-45.2
		C224.7,243.2,211.1,231.2,207.7,241.1z"/>
	<g>
		<polygon class="st0" points="329,251.5 329.1,292.8 306.6,305.9 306.5,264.7 		"/>
		<g>
			<polygon class="st18" points="326.3,258 326.4,260 309.2,270 309.2,268 			"/>
			<polygon class="st18" points="326.3,261.2 326.4,263.1 309.2,273.1 309.2,271.2 			"/>
			<polygon class="st18" points="326.3,264.4 326.4,266.3 309.2,276.3 309.2,274.4 			"/>
			<polygon class="st18" points="326.3,267.6 326.4,269.5 309.2,279.5 309.2,277.5 			"/>
			<polygon class="st18" points="326.3,270.7 326.4,272.7 309.2,282.7 309.2,280.7 			"/>
			<polygon class="st18" points="326.3,273.9 326.4,275.8 309.2,285.8 309.2,283.9 			"/>
			<polygon class="st18" points="326.3,277.1 326.4,279 309.2,289 309.2,287.1 			"/>
			<polygon class="st18" points="326.3,280.3 326.4,282.2 309.2,292.2 309.2,290.2 			"/>
			<polygon class="st18" points="326.3,283.4 326.4,285.4 309.2,295.4 309.2,293.4 			"/>
		</g>
	</g>
</g>
</svg>
